<?xml version="1.0" encoding="UTF-8"?>
<svg xmlns="http://www.w3.org/2000/svg" xmlns:xlink="http://www.w3.org/1999/xlink" width="64px" height="64px" viewBox="0 0 64 64" version="1.1">
    
    <title>bat</title>
    <desc>Created with Sketch.</desc>
    <defs>
        <polygon id="path-1" points="38.7446154 23.3341729 38.7446154 0.431843271 0.764790855 0.431843271 0.764790855 23.3341729 38.7446154 23.3341729"/>
        <polygon id="path-3" points="10.9477744 0.801290062 0.800492308 0.801290062 0.800492308 10.9317103 10.9477744 10.9317103 10.9477744 0.801290062"/>
    </defs>
    <g id="SVG" stroke="none" stroke-width="1" fill="none" fill-rule="evenodd">
        <g id="Color" transform="translate(-617.000000, -255.000000)">
            <g id="7" transform="translate(617.000000, 261.000000)">
                <path d="M35.9884308,22.3979417 L35.9884308,22.3979417 C35.4994051,21.8539165 34.8766359,21.4139443 34.1430974,21.1402931 C33.409559,20.8658226 32.6514051,20.7904456 31.9244308,20.879751 C31.9933538,19.1567315 29.4801231,16.5226338 29.4801231,16.5226338 C27.6618667,20.7052369 28.097559,23.8899143 28.097559,23.8899143 C27.1884308,26.3167253 28.4216615,29.0196454 30.8520205,29.9266271 C33.281559,30.8344281 35.9884308,29.6029977 36.897559,27.177006 C36.897559,27.177006 39.3188923,25.0590767 40.6965333,20.7117914 C40.6965333,20.7117914 37.0690462,21.0526264 35.9884308,22.3979417" id="Fill-1" fill="#5D5D5E"/>
                <path d="M29.8865231,19.000734 C29.0684718,21.7864049 29.3138051,23.7011441 29.3170872,23.7240849 C29.3441641,23.9256364 29.3220103,24.1304651 29.2506256,24.3205462 C28.9257026,25.1865622 28.9585231,26.1271358 29.3425231,26.9685723 C29.7265231,27.8091894 30.4157538,28.4523517 31.2830359,28.7751618 C32.1527795,29.1004299 33.0922667,29.066838 33.9349333,28.6842179 C34.7767795,28.3007784 35.4200615,27.6125538 35.7441641,26.7465379 C35.8155487,26.5556375 35.9328821,26.3860393 36.0863179,26.2516716 C36.1002667,26.2385626 37.5484718,24.9284779 38.7570872,22.3181404 C37.9390359,22.540994 37.2128821,22.8375861 36.9478564,23.1669507 C36.7222154,23.4487951 36.3833436,23.6167546 36.0231385,23.6265864 C35.6416,23.6364182 35.3133949,23.4873029 35.0721641,23.2185675 C34.6955487,22.7998976 34.2377026,22.4877386 33.7117538,22.291103 C33.1858051,22.0952867 32.6368821,22.0313801 32.0756513,22.1002026 C31.7195487,22.1419876 31.3568821,22.0289222 31.0910359,21.7847663 C30.8251897,21.5406104 30.679959,21.1915823 30.6939077,20.8310837 C30.7111385,20.4058592 30.3574974,19.7045255 29.8865231,19.000734 M32.5014974,31.4567798 C31.799959,31.4567798 31.0976,31.329786 30.4206769,31.0782563 C28.9380103,30.5243993 27.7589333,29.4265172 27.1025231,27.9878001 C26.4871385,26.6392076 26.3993436,25.1423191 26.8473436,23.7404712 C26.7784205,22.7794147 26.7300103,19.7635162 28.3513436,16.0331751 C28.5154462,15.6554709 28.8584205,15.3850969 29.2645744,15.3129972 C29.6748308,15.2441747 30.0867282,15.3769038 30.3714462,15.6751344 C30.7570872,16.0790567 32.3734974,17.8463191 32.9503179,19.6324258 C33.5049846,19.6750302 34.0539077,19.7946502 34.5741128,19.9896472 C35.1033436,20.1871021 35.5915487,20.4525601 36.0354462,20.7835634 C37.6452923,19.8143138 40.023959,19.5406625 40.5802667,19.4882264 C40.9880615,19.4448027 41.3942154,19.6193168 41.6534974,19.939669 C41.9127795,20.2608404 41.9940103,20.6893422 41.8692923,21.0826134 C40.6418051,24.9587926 38.6225231,27.2028964 37.9382154,27.8821085 C37.3564718,29.2339782 36.3053949,30.3056422 34.9556513,30.9201285 C34.171241,31.2773498 33.3367795,31.4567798 32.5014974,31.4567798" id="Fill-3" fill="#2E2E30"/>
                <path d="M13.713641,35.9591615 C13.6914872,36.0173328 13.6652308,36.0722269 13.6422564,36.1287597 C15.502359,34.4540798 18.2075897,33.8428708 20.7150769,34.7793479 C23.4490256,35.8002144 25.1507692,38.361393 25.2139487,41.1069176 C28.8709744,39.1422002 31.8592821,35.8993515 33.4289231,31.7101939 C33.9015385,30.4484488 34.2157949,29.1662209 34.3913846,27.8848122 C31.0838974,28.6664387 27.5163077,28.5124075 24.0939487,27.2334568 C16.1702564,24.274091 11.6172308,16.2661063 12.718359,8.23354214 C7.93394872,9.36419683 3.69928205,12.4595689 1.23117949,16.9551502 C4.47302564,18.8813598 5.97620513,22.8976419 4.60841026,26.5493288 C4.51651282,26.7951233 4.40902564,27.0302667 4.29579487,27.2613135 C5.92205128,26.5050858 7.83712821,26.3739954 9.64964103,27.0507496 C13.2352821,28.3903296 15.0551795,32.3787549 13.713641,35.9591615" id="Fill-5" fill="#5D5D5E"/>
                <path d="M18.2848,33.109502 C19.2448,33.109502 20.2138256,33.2799195 21.1467487,33.6281284 C23.6484923,34.5621475 25.4765949,36.6087963 26.1568,39.0962366 C28.9408,37.1864134 31.0839795,34.4630104 32.2761846,31.2799716 C32.5026462,30.6744978 32.6946462,30.0534571 32.8489026,29.4201266 C29.7588513,29.8371579 26.6162872,29.4881297 23.6632615,28.3845124 C15.8765949,25.4775828 11.0060308,18.0488538 11.3342359,9.91715252 C7.85115897,11.1371125 4.86367179,13.4918238 2.87474872,16.5970276 C5.5422359,18.7075831 6.81156923,22.1241266 6.18962051,25.4456296 C7.48931282,25.27767 8.81854359,25.4284239 10.0804923,25.8995301 C13.390441,27.1366957 15.4253128,30.3033481 15.3834667,33.6445147 C16.3098256,33.2913899 17.2928,33.109502 18.2848,33.109502 M25.2140308,42.3366274 C25.0006974,42.3366274 24.7865436,42.2800947 24.5953641,42.1703065 C24.2253128,41.9548266 23.9939282,41.5631941 23.9832615,41.1355116 C23.9299282,38.7930901 22.4776205,36.7497185 20.2852103,35.9304035 C18.286441,35.1848269 16.0571077,35.6108707 14.4669538,37.0422139 C14.0386462,37.4256534 13.4035692,37.4641612 12.9342359,37.1347965 C12.4649026,36.8054319 12.2852103,36.1958616 12.5026462,35.6641261 C12.5067487,35.6551137 12.5387487,35.5797367 12.5428513,35.5707242 L13.3929026,35.8533879 L13.3748513,35.832905 L12.5600821,35.5289392 C13.6620308,32.5884177 12.1621333,29.3021452 9.21813333,28.2026245 C7.77567179,27.6643346 6.21341538,27.7257832 4.81526154,28.3755 C4.34346667,28.5926184 3.78305641,28.4943006 3.41710769,28.120693 C3.0528,27.7495433 2.96090256,27.1874932 3.19064615,26.7204837 C3.28664615,26.5254867 3.37772308,26.3263932 3.45649231,26.1182872 C4.59372308,23.0802672 3.39413333,19.6710975 0.601928205,18.0119846 C0.0324923077,17.6736075 -0.166892308,16.9452365 0.151466667,16.3651615 C2.72787692,11.6729445 7.20541538,8.27360665 12.4345436,7.03807964 C12.8292103,6.94467773 13.2452103,7.052008 13.5463385,7.32402057 C13.8458256,7.59603315 13.9926974,7.99913613 13.9377231,8.40060047 C12.8833641,16.0898717 17.2378256,23.3604729 24.5248,26.0822373 C27.6033641,27.2325556 30.9174154,27.4431195 34.1083897,26.6893497 C34.5030564,26.5992251 34.9182359,26.7032781 35.2193641,26.97611 C35.5188513,27.2481225 35.6657231,27.6512255 35.6107487,28.0518705 C35.4187487,29.4561764 35.0724923,30.8318063 34.5818256,32.1402524 C32.9695179,36.4416561 29.8507487,40.0105922 25.7974154,42.1891507 C25.6160821,42.2874685 25.4142359,42.3366274 25.2140308,42.3366274" id="Fill-7" fill="#2E2E30"/>
                <path d="M4.29612308,27.2610677 L14.6797128,19.0277714" id="Fill-9" fill="#5D5D5E"/>
                <path d="M4.29677949,28.4896305 C3.93411282,28.4896305 3.57472821,28.3306834 3.33185641,28.0250789 C2.91011282,27.4933435 2.99872821,26.7207295 3.53042051,26.2979629 L13.9148308,18.0654859 C14.4457026,17.644358 15.2210872,17.732844 15.6436513,18.2637601 C16.0662154,18.7946762 15.9767795,19.5681096 15.4450872,19.9900568 L5.06149744,28.2233532 C4.8350359,28.4027832 4.56508718,28.4896305 4.29677949,28.4896305" id="Fill-11" fill="#2E2E30"/>
                <path d="M13.6422564,36.1291693 L21.1474872,25.8123549" id="Fill-13" fill="#5D5D5E"/>
                <path d="M13.6413538,37.3580599 C13.3902769,37.3580599 13.137559,37.2818636 12.9184821,37.1237358 C12.3687385,36.7247294 12.2473026,35.9562119 12.6460718,35.4064516 L20.1513026,25.0896372 C20.5508923,24.5406961 21.3188923,24.4186182 21.8702769,24.8184439 C22.4200205,25.2174503 22.5422769,25.9851485 22.1426872,26.5349088 L14.6382769,36.8517232 C14.3970462,37.1819072 14.0220718,37.3580599 13.6413538,37.3580599" id="Fill-15" fill="#2E2E30"/>
                <path d="M39.8184205,45.7092557 C39.7962667,45.767427 39.7806769,45.8264177 39.7609846,45.8845891 C39.4582154,43.4012453 37.8188308,41.1677927 35.3105231,40.2304963 C32.5773949,39.2096298 29.6096,40.0264869 27.7577026,42.0575687 C26.2898051,38.1781123 26.1659077,33.7726555 27.7355487,29.583498 C28.2081641,28.3217529 28.8137026,27.1484938 29.5234462,26.066998 C31.5049846,28.823993 34.2980103,31.0451559 37.7211897,32.3232873 C45.6448821,35.2834724 54.3431385,32.2241502 58.791959,25.4418607 C61.6580103,29.4302861 62.8190359,34.5403537 61.7261128,39.5504649 C58.0149333,38.8794459 54.2405744,40.9244561 52.8727795,44.576143 C52.7808821,44.8219375 52.7070359,45.0693706 52.6405744,45.3176231 C51.9111385,43.6822704 50.5523692,42.3279427 48.7398564,41.6511885 C45.1542154,40.3116085 41.159959,42.1288491 39.8184205,45.7092557" id="Fill-17" fill="#5D5D5E"/>
                <g id="Group-21" transform="translate(24.615385, 23.778569)">
                    <mask id="mask-2" fill="white">
                        <use xlink:href="#path-1"/>
                    </mask>
                    <g id="Clip-20"/>
                    <path d="M8.25435897,14.7788857 C9.21517949,14.7788857 10.1858462,14.9493033 11.1261538,15.3007894 C13.0231795,16.0094969 14.5460513,17.3687404 15.4642051,19.0901212 C17.6287179,16.540413 21.2447179,15.484316 24.5554872,16.7206623 C25.8182564,17.1925877 26.9202051,17.9504541 27.7907692,18.9287162 C29.504,16.0152321 32.7171282,14.275007 36.1066667,14.4241224 C36.6473846,10.7781706 35.9392821,7.04373291 34.1144615,3.8402113 C29.0174359,10.1907218 20.4594872,12.6027851 12.6744615,9.69667486 C9.71979487,8.59223825 7.11958974,6.79793842 5.0625641,4.45715549 C4.76307692,5.03641118 4.49887179,5.63123387 4.27241026,6.23506902 C3.08020513,9.41974639 2.90707692,12.878075 3.75384615,16.1430452 C5.09374359,15.2491726 6.65928205,14.7788857 8.25435897,14.7788857 M15.1458462,23.3341729 C15.104,23.3341729 15.0605128,23.3317149 15.0170256,23.3284377 C14.4467692,23.2678084 13.9930256,22.822101 13.9232821,22.2543157 C13.6648205,20.1314706 12.2625641,18.3486412 10.2637949,17.6030645 C8.0705641,16.7812916 5.63282051,17.3736563 4.05169231,19.1056882 C3.76369231,19.4227631 3.32964103,19.5636853 2.91117949,19.4858504 C2.49107692,19.4047382 2.14235897,19.1130621 1.9905641,18.7132363 C0.364307692,14.4134713 0.356102564,9.67537267 1.96676923,5.37396896 C2.4574359,4.06634223 3.09989744,2.8021392 3.87774359,1.61577109 C4.10010256,1.27657469 4.47589744,1.06846868 4.88123077,1.05945622 C5.28328205,1.02668362 5.6705641,1.24298277 5.90769231,1.57152809 C7.81866667,4.23020523 10.4574359,6.24326217 13.536,7.39358042 C20.8229744,10.1178028 28.8877949,7.48206643 33.1470769,0.989814441 C33.3694359,0.65143735 33.7444103,0.443331342 34.1505641,0.435138192 C34.5649231,0.402365592 34.9390769,0.61702612 35.1770256,0.947210062 C38.3097436,5.30596582 39.4527179,10.805208 38.3138462,16.033257 C38.1727179,16.6796965 37.5433846,17.0983665 36.8910769,16.9812044 C33.6992821,16.4011294 30.5485128,18.1888747 29.4104615,21.2285334 C29.3316923,21.4374587 29.2701538,21.6472033 29.214359,21.856948 C29.0789744,22.3600074 28.6424615,22.7229639 28.1222564,22.7639297 C27.6086154,22.8057147 27.1130256,22.5148579 26.9013333,22.0388359 C26.2728205,20.6328914 25.1339487,19.5612274 23.6931282,19.0237567 C20.7499487,17.9250553 17.4613333,19.4186665 16.3577436,22.3567301 L16.3429744,22.4009731 C16.3396923,22.4099856 16.3126154,22.4935557 16.3093333,22.5042068 C16.1378462,23.0048083 15.6668718,23.3341729 15.1458462,23.3341729" id="Fill-19" fill="#2E2E30" mask="url(#mask-2)"/>
                </g>
                <path d="M52.6408205,45.3176231 L50.2170256,32.3011658" id="Fill-22" fill="#5D5D5E"/>
                <path d="M52.6389333,46.5465956 C52.0580103,46.5465956 51.5402667,46.1336608 51.4303179,45.5421154 L49.0065231,32.5264774 C48.8826256,31.8587357 49.1230359,32.0774928 49.7909333,31.9529569 C50.4621128,31.8267824 51.3023179,31.4089318 51.4262154,32.0766735 L53.8508308,45.0931308 C53.9747282,45.7600532 53.5341128,46.4015768 52.8653949,46.5261127 C52.7899077,46.5400411 52.7136,46.5465956 52.6389333,46.5465956" id="Fill-24" fill="#2E2E30"/>
                <path d="M39.7605744,45.8842613 L40.8781128,33.1816017" id="Fill-26" fill="#5D5D5E"/>
                <path d="M39.7622974,47.11307 C39.7261949,47.11307 39.6892718,47.1114313 39.6531692,47.1081541 C38.9762462,47.0491634 38.4757333,46.4527021 38.5348103,45.7767672 L39.6523487,33.0741076 C39.7114256,32.3973534 40.2176821,32.2457801 40.8781949,32.3006742 C41.5559385,32.3604842 42.1639385,32.6128332 42.104041,33.2887681 L40.9865026,45.9914277 C40.9307077,46.6313127 40.3932718,47.11307 39.7622974,47.11307" id="Fill-28" fill="#2E2E30"/>
                <path d="M32.6880821,41.5643411 C32.6880821,41.5643411 36.7028513,45.7879099 32.7963897,50.3211797 L34.0156718,51.2257035" id="Fill-30" fill="#FEFEFE"/>
                <path d="M34.0147692,52.454594 C33.7587692,52.454594 33.5019487,52.3751205 33.2812308,52.2120768 L32.0627692,51.3083724 C31.7887179,51.1051823 31.6114872,50.7971198 31.5729231,50.4571041 C31.536,50.1179077 31.6402051,49.7787113 31.8642051,49.5198077 C35.0084103,45.8697595 31.9282051,42.5498951 31.7952821,42.4106116 C31.3275897,41.9182033 31.3472821,41.139854 31.8404103,40.6728445 C32.3335385,40.2066542 33.1113846,40.2246792 33.5807179,40.7179068 C35.0978462,42.3139324 37.0408205,46.1606163 34.5210256,50.0695681 L34.7499487,50.2391663 C35.2955897,50.6439079 35.4088205,51.4132447 35.0034872,51.9589085 C34.7622564,52.2833572 34.3905641,52.454594 34.0147692,52.454594" id="Fill-32" fill="#2E2E30"/>
                <path d="M25.6896,43.7076691 L25.6896,43.7076691 C22.5798564,42.5458805 21.0020103,39.0867326 22.1646769,35.9815288 L24.4932923,29.7653859 C25.6567795,26.6601821 29.1209846,25.0846394 32.2307282,26.2456087 L32.2307282,26.2456087 C35.3404718,27.4073974 36.9183179,30.8665453 35.7556513,33.9717491 L33.4270359,40.1878919 C32.2635487,43.2930957 28.7993436,44.8694578 25.6896,43.7076691" id="Fill-34" fill="#5D5D5E"/>
                <path d="M30.1220923,27.0917972 C29.4476308,27.0917972 28.7739897,27.236816 28.1421949,27.5235762 C26.9803487,28.0528537 26.0933744,29.0016205 25.6461949,30.1961817 L23.3175795,36.4123246 C22.3945026,38.8784627 23.6515282,41.6346383 26.1204513,42.5563677 C27.3175795,43.0037137 28.6164513,42.9570127 29.7774769,42.4301932 C30.9401436,41.9009157 31.8262974,40.952149 32.2734769,39.7575877 L34.6020923,33.5414449 C35.0500923,32.3468836 35.0049641,31.049908 34.4757333,29.8897579 C33.9456821,28.7287886 32.9955282,27.8439284 31.7992205,27.3974017 C31.2535795,27.1933923 30.6866051,27.0917972 30.1220923,27.0917972 M27.7992205,45.3207365 C26.9426051,45.3207365 26.0843487,45.1675246 25.2580923,44.8594621 C21.5181949,43.4608915 19.6129641,39.2864816 21.0111179,35.5512245 L23.3397333,29.3350817 C24.0182974,27.5252149 25.3606564,26.0881364 27.1214769,25.2876656 C28.8822974,24.4855562 30.8498872,24.4183724 32.6615795,25.0943073 C34.4740923,25.7718808 35.9140923,27.1122801 36.7157333,28.8705301 C37.5173744,30.6279607 37.5862974,32.5934974 36.9085538,34.4025449 L34.5799385,40.6186877 C33.9013744,42.4277352 32.5590154,43.8656331 30.7981949,44.6661038 C29.8406564,45.1019794 28.820759,45.3207365 27.7992205,45.3207365" id="Fill-36" fill="#2E2E30"/>
                <path d="M35.1061333,28.5173234 C35.0569026,28.6975727 35.0019282,28.877822 34.9346462,29.0556133 L32.6060308,35.2725755 C31.4433641,38.3777793 27.979159,39.953322 24.8694154,38.7915334 L24.8694154,38.7915334 C23.6484923,38.3359943 22.6688,37.5232338 21.9935179,36.5203922 C21.1902359,39.4773 22.7582359,42.6128185 25.6899282,43.7074233 L25.6899282,43.7074233 C28.7996718,44.869212 32.2638769,43.2936693 33.4265436,40.1884654 L35.755159,33.9715033 C36.462441,32.0854402 36.1522872,30.0707446 35.1061333,28.5173234" id="Fill-38" fill="#010202" opacity="0.3"/>
                <path d="M21.8177641,37.5043076 C21.8177641,37.5043076 16.0126359,38.0598032 15.9806359,44.0408026 L14.4667897,43.9244599" id="Fill-40" fill="#FEFEFE"/>
                <path d="M15.9810462,45.2696112 C15.9498667,45.2696112 15.9186872,45.2687919 15.8875077,45.2655147 L14.372841,45.1499912 C13.6950974,45.0983744 13.1880205,44.506829 13.2388923,43.8300748 C13.2922256,43.1541399 13.9018667,42.6535385 14.5607385,42.6986008 L14.8454564,42.7215416 C15.5125333,38.1202686 19.5067897,36.4906511 21.700841,36.2809065 C22.3613538,36.2129033 22.977559,36.7118661 23.0423795,37.387801 C23.1080205,38.0612779 22.6140718,38.6601972 21.9404308,38.727381 C21.4563282,38.7781786 17.2364308,39.3607115 17.2118154,44.0471933 C17.2101744,44.3888476 17.0657641,44.7132964 16.8155077,44.9451625 C16.5865846,45.1540878 16.2887385,45.2696112 15.9810462,45.2696112" id="Fill-42" fill="#2E2E30"/>
                <path d="M51.5625026,5.88497572 C51.5625026,8.00372429 49.8427077,9.72182783 47.720041,9.72182783 C45.5981949,9.72182783 43.8784,8.00372429 43.8784,5.88497572 C43.8784,3.76622715 45.5981949,2.04812362 47.720041,2.04812362 C49.8427077,2.04812362 51.5625026,3.76622715 51.5625026,5.88497572" id="Fill-44" fill="#C5DA59"/>
                <g id="Group-48" transform="translate(41.846154, 0.018435)">
                    <mask id="mask-4" fill="white">
                        <use xlink:href="#path-3"/>
                    </mask>
                    <g id="Clip-47"/>
                    <path d="M5.87454359,3.25882538 C4.43372308,3.25882538 3.26203077,4.42880719 3.26203077,5.866705 C3.26203077,7.30378349 4.43372308,8.4737653 5.87454359,8.4737653 C7.31454359,8.4737653 8.4862359,7.30378349 8.4862359,5.866705 C8.4862359,4.42880719 7.31454359,3.25882538 5.87454359,3.25882538 M5.87454359,10.9317103 C3.07741538,10.9317103 0.800492308,8.6597498 0.800492308,5.866705 C0.800492308,3.07284088 3.07741538,0.800880404 5.87454359,0.800880404 C8.67167179,0.800880404 10.9477744,3.07284088 10.9477744,5.866705 C10.9477744,8.6597498 8.67167179,10.9317103 5.87454359,10.9317103" id="Fill-46" fill="#2E2E30" mask="url(#mask-4)"/>
                </g>
                <path d="M29.5710359,6.45734917 C29.5710359,8.29753065 28.0768821,9.78950325 26.2331897,9.78950325 C24.3903179,9.78950325 22.8961641,8.29753065 22.8961641,6.45734917 C22.8961641,4.6171677 24.3903179,3.1251951 26.2331897,3.1251951 C28.0768821,3.1251951 29.5710359,4.6171677 29.5710359,6.45734917" id="Fill-49" fill="#C5DA59"/>
                <path d="M26.2335179,4.35383987 C25.0716718,4.35383987 24.1272615,5.29769074 24.1272615,6.45702145 C24.1272615,7.61717148 25.0716718,8.56102235 26.2335179,8.56102235 C27.3953641,8.56102235 28.3397744,7.61717148 28.3397744,6.45702145 C28.3397744,5.29769074 27.3953641,4.35383987 26.2335179,4.35383987 M26.2335179,11.0189673 C23.7145436,11.0189673 21.6657231,8.97231847 21.6657231,6.45702145 C21.6657231,3.94254374 23.7145436,1.89589489 26.2335179,1.89589489 C28.7524923,1.89589489 30.8013128,3.94254374 30.8013128,6.45702145 C30.8013128,8.97231847 28.7524923,11.0189673 26.2335179,11.0189673" id="Fill-51" fill="#2E2E30"/>
                <path d="M53.2382359,20.7330117 C53.2382359,22.1659936 52.0755692,23.3269629 50.6404923,23.3269629 C49.2054154,23.3269629 48.0427487,22.1659936 48.0427487,20.7330117 C48.0427487,19.3000297 49.2054154,18.1390604 50.6404923,18.1390604 C52.0755692,18.1390604 53.2382359,19.3000297 53.2382359,20.7330117" id="Fill-53" fill="#C5DA59"/>
                <path d="M50.6405744,19.3679509 C49.8865231,19.3679509 49.2736,19.9807986 49.2736,20.7329297 C49.2736,21.4850609 49.8865231,22.0979085 50.6405744,22.0979085 C51.3946256,22.0979085 52.0075487,21.4850609 52.0075487,20.7329297 C52.0075487,19.9807986 51.3946256,19.3679509 50.6405744,19.3679509 M50.6405744,24.5558535 C48.5293949,24.5558535 46.8120615,22.8410272 46.8120615,20.7329297 C46.8120615,18.6248323 48.5293949,16.910006 50.6405744,16.910006 C52.7517538,16.910006 54.4690872,18.6248323 54.4690872,20.7329297 C54.4690872,22.8410272 52.7517538,24.5558535 50.6405744,24.5558535" id="Fill-55" fill="#2E2E30"/>
            </g>
        </g>
    </g>

	
	
	<metadata>
		<rdf:RDF xmlns:rdf="http://www.w3.org/1999/02/22-rdf-syntax-ns#" xmlns:rdfs="http://www.w3.org/2000/01/rdf-schema#" xmlns:dc="http://purl.org/dc/elements/1.1/">
			<rdf:Description about="https://iconscout.com/legal#licenses" dc:title="Bat, Halloween, Scary, Fly, Mammal, Animal" dc:description="Bat, Halloween, Scary, Fly, Mammal, Animal" dc:publisher="Iconscout" dc:date="2016-12-14" dc:format="image/svg+xml" dc:language="en">
				<dc:creator>
					<rdf:Bag>
						<rdf:li>AomAm .</rdf:li>
					</rdf:Bag>
				</dc:creator>
			</rdf:Description>
		</rdf:RDF>
    </metadata></svg>
