<?xml version="1.0" encoding="UTF-8"?>
<svg xmlns="http://www.w3.org/2000/svg" xmlns:xlink="http://www.w3.org/1999/xlink" width="64px" height="64px" viewBox="0 0 64 64" version="1.1">
    
    <title>candle</title>
    <desc>Created with Sketch.</desc>
    <defs/>
    <g id="SVG" stroke="none" stroke-width="1" fill="none" fill-rule="evenodd">
        <g id="Color" transform="translate(-790.000000, -255.000000)">
            <g id="4" transform="translate(791.000000, 255.000000)">
                <polygon id="Fill-1" fill="#5D5D5E" points="48.4822625 62.4457365 6.6205125 62.4457365 1.3127625 51.3816824 53.7900125 51.3816824"/>
                <path d="M7.4452875,61.1282568 L47.6576625,61.1282568 L51.7010375,52.6984595 L3.4019125,52.6984595 L7.4452875,61.1282568 Z M48.4819125,63.7633919 L6.6210375,63.7633919 C6.1161625,63.7633919 5.6567875,63.473527 5.4380375,63.0176486 L0.1302875,51.9527162 C-0.0657125,51.5442703 -0.0394625,51.0637973 0.2011625,50.6799459 C0.4409125,50.2960946 0.8617875,50.0633243 1.3124125,50.0633243 L53.7905375,50.0633243 C54.2411625,50.0633243 54.6620375,50.2960946 54.9017875,50.6799459 C55.1424125,51.0637973 55.1686625,51.5442703 54.9726625,51.9527162 L49.6649125,63.0176486 C49.4461625,63.473527 48.9867875,63.7633919 48.4819125,63.7633919 L48.4819125,63.7633919 Z" id="Fill-2" fill="#2E2E30"/>
                <polygon id="Fill-5" fill="#010202" opacity="0.3" points="46.79045 51.3812432 41.4827 62.4452973 48.4827 62.4452973 53.79045 51.3812432"/>
                <path d="M53.7903625,52.698723 C53.0658625,52.698723 52.4778625,52.1093311 52.4778625,51.3811554 L52.4778625,36.7684527 C52.4778625,34.0059527 54.7169875,31.7581824 57.4688625,31.7581824 C60.2207375,31.7581824 62.4589875,34.0059527 62.4589875,36.7684527 L62.4589875,39.5933176 C62.4589875,40.3214932 61.8709875,40.9108851 61.1464875,40.9108851 C60.4219875,40.9108851 59.8339875,40.3214932 59.8339875,39.5933176 L59.8339875,36.7684527 C59.8339875,35.4587905 58.7726125,34.3933176 57.4688625,34.3933176 C56.1642375,34.3933176 55.1028625,35.4587905 55.1028625,36.7684527 L55.1028625,51.3811554 C55.1028625,52.1093311 54.5148625,52.698723 53.7903625,52.698723" id="Fill-7" fill="#2E2E30"/>
                <polygon id="Fill-9" fill="#FEFEFE" points="17.92875 51.3817703 37.174375 51.3817703 37.174375 22.7194054 17.92875 22.7194054"/>
                <path d="M19.24125,50.0633243 L35.861,50.0633243 L35.861,24.036973 L19.24125,24.036973 L19.24125,50.0633243 Z M37.174375,52.6984595 L17.92875,52.6984595 C17.20425,52.6984595 16.61625,52.1090676 16.61625,51.3808919 L16.61625,22.7194054 C16.61625,21.9912297 17.20425,21.4018378 17.92875,21.4018378 L37.174375,21.4018378 C37.898875,21.4018378 38.486875,21.9912297 38.486875,22.7194054 L38.486875,51.3808919 C38.486875,52.1090676 37.898875,52.6984595 37.174375,52.6984595 L37.174375,52.6984595 Z" id="Fill-11" fill="#2E2E30"/>
                <polygon id="Fill-12" fill="#010202" opacity="0.3" points="31.049375 51.3808919 37.174375 51.3808919 37.174375 22.718527 31.049375 22.718527"/>
                <path d="M34.45925,13.1455203 C34.45925,16.97525 31.366125,20.0803176 27.551125,20.0803176 C23.736125,20.0803176 20.643875,16.97525 20.643875,13.1455203 C20.643875,9.31579054 27.551125,1.67653378 27.551125,1.67653378 C27.551125,1.67653378 34.45925,9.31579054 34.45925,13.1455203" id="Fill-13" fill="#F27721"/>
                <path d="M27.551475,3.67765541 C25.0726,6.61934459 21.95585,11.0208986 21.95585,13.1456959 C21.95585,16.2428581 24.466225,18.7620473 27.551475,18.7620473 C30.636725,18.7620473 33.1471,16.2428581 33.1471,13.1456959 C33.1471,11.0208986 30.03035,6.61934459 27.551475,3.67765541 M27.551475,21.3971824 C23.018975,21.3971824 19.33085,17.6956959 19.33085,13.1456959 C19.33085,8.92947973 25.83735,1.61083108 26.580225,0.790425676 C27.077225,0.240560811 28.025725,0.240560811 28.522725,0.790425676 C29.2656,1.61083108 35.7721,8.92947973 35.7721,13.1456959 C35.7721,17.6956959 32.083975,21.3971824 27.551475,21.3971824" id="Fill-14" fill="#2E2E30"/>
                <path d="M27.551475,1.67644595 C27.551475,1.67644595 27.42285,1.81962162 27.210225,2.06293243 C29.030225,4.52502703 30.9596,7.60725676 30.9596,9.63191892 C30.9596,13.4616486 27.866475,16.5667162 24.051475,16.5667162 C23.050475,16.5667162 22.101975,16.348 21.2436,15.9641486 C22.320725,18.3875946 24.737475,20.0802297 27.551475,20.0802297 C31.366475,20.0802297 34.4596,16.9751622 34.4596,13.1454324 C34.4596,9.3157027 27.551475,1.67644595 27.551475,1.67644595" id="Fill-15" fill="#010202" opacity="0.3"/>
                <path d="M35.9513875,20.5769527 L19.1513875,20.5769527 C17.0776375,20.5769527 15.3967625,22.2643176 15.3967625,24.3460743 L15.3967625,28.4551284 L15.3967625,29.3791824 L15.3967625,35.2449932 C15.3967625,37.4602635 17.2027625,39.2723581 19.4086375,39.2723581 L19.4637625,39.2723581 C21.6696375,39.2723581 23.4756375,37.4602635 23.4756375,35.2449932 L23.4756375,34.7785743 C23.4756375,32.6476284 25.0147625,30.7239797 27.1270125,30.5228311 C29.5210125,30.2962095 31.5536375,32.2014122 31.5536375,34.5598581 L31.5536375,38.5863446 C31.5536375,40.8016149 33.3596375,42.6137095 35.5655125,42.6137095 L35.6206375,42.6137095 C37.8676375,42.6137095 39.7060125,40.7682365 39.7060125,38.5125608 L39.7060125,29.4652635 L39.7060125,29.3791824 L39.7060125,24.3460743 C39.7060125,22.2643176 38.0251375,20.5769527 35.9513875,20.5769527" id="Fill-16" fill="#FEFEFE"/>
                <path d="M27.5044875,29.1875203 C28.8309875,29.1875203 30.1224875,29.6838041 31.1112375,30.5876554 C32.2259875,31.6065743 32.8664875,33.0541419 32.8664875,34.5596824 L32.8664875,38.5861689 C32.8664875,40.0802905 34.0774875,41.2968446 35.5658625,41.2968446 C37.1487375,41.2968446 38.3929875,40.0477905 38.3929875,38.5123851 L38.3929875,24.3458986 C38.3929875,22.9940743 37.2974875,21.8943446 35.9508625,21.8943446 L19.1517375,21.8943446 C17.8051125,21.8943446 16.7096125,22.9940743 16.7096125,24.3458986 L16.7096125,35.2448176 C16.7096125,36.7389392 17.9206125,37.9546149 19.4089875,37.9546149 C20.9524875,37.9546149 22.1634875,36.7389392 22.1634875,35.2448176 L22.1634875,34.7783986 C22.1634875,31.9148851 24.2888625,29.4694797 27.0031125,29.2112365 C27.1702375,29.1954257 27.3382375,29.1875203 27.5044875,29.1875203 M35.6201125,43.9319797 C32.6293625,43.9319797 30.2414875,41.5340068 30.2414875,38.5861689 L30.2414875,34.5596824 C30.2414875,33.7946149 29.9142375,33.056777 29.3446125,32.536777 C28.7688625,32.0106284 28.0251125,31.7638041 27.2507375,31.8349527 C25.8699875,31.9658311 24.7884875,33.2588041 24.7884875,34.7783986 L24.7884875,35.2448176 C24.7884875,38.191777 22.3997375,40.58975 19.4641125,40.58975 C16.4733625,40.58975 14.0846125,38.191777 14.0846125,35.2448176 L14.0846125,24.3458986 C14.0846125,21.5412365 16.3578625,19.2592095 19.1517375,19.2592095 L35.9508625,19.2592095 C38.7456125,19.2592095 41.0179875,21.5412365 41.0179875,24.3458986 L41.0179875,38.5123851 C41.0179875,41.5006284 38.5968625,43.9319797 35.6201125,43.9319797" id="Fill-17" fill="#2E2E30"/>
                <g id="Group-20" transform="translate(17.500000, 20.344473)" fill="#010202" opacity="0.3">
                    <path d="M18.4513875,0.23247973 L13.2013875,0.23247973 C15.2751375,0.23247973 16.9560125,1.91984459 16.9560125,4.00160135 L16.9560125,9.03470946 L16.9560125,9.12079054 L16.9560125,18.1680878 C16.9560125,19.4241689 16.3741375,20.5388311 15.4807625,21.2924797 C16.1816375,21.8924122 17.0776375,22.2692365 18.0655125,22.2692365 L18.1206375,22.2692365 C20.3676375,22.2692365 22.2060125,20.4237635 22.2060125,18.1680878 L22.2060125,9.12079054 L22.2060125,9.03470946 L22.2060125,4.00160135 C22.2060125,1.91984459 20.5251375,0.23247973 18.4513875,0.23247973" id="Fill-18"/>
                    <path d="M10.0515625,8.72288514 C3.5424375,8.70707432 1.5999375,12.3031554 1.5999375,14.4341014 L1.5999375,14.9005203 C1.5999375,16.1179527 1.0434375,17.2001149 0.1859375,17.9405878 C0.8885625,18.5466689 1.7898125,18.9278851 2.7838125,18.9278851 L2.8380625,18.9278851 C5.0448125,18.9278851 6.8499375,17.1157905 6.8499375,14.9005203 L6.8499375,14.4341014 C6.8499375,13.1630878 7.4064375,11.9737635 8.2971875,11.1718041 C7.4956875,10.4655878 10.0515625,8.72288514 10.0515625,8.72288514" id="Fill-19"/>
                </g>
            </g>
        </g>
    </g>

	
	
	<metadata>
		<rdf:RDF xmlns:rdf="http://www.w3.org/1999/02/22-rdf-syntax-ns#" xmlns:rdfs="http://www.w3.org/2000/01/rdf-schema#" xmlns:dc="http://purl.org/dc/elements/1.1/">
			<rdf:Description about="https://iconscout.com/legal#licenses" dc:title="Candle, Halloween, Light, Darkness, Wax, Holder" dc:description="Candle, Halloween, Light, Darkness, Wax, Holder" dc:publisher="Iconscout" dc:date="2016-12-14" dc:format="image/svg+xml" dc:language="en">
				<dc:creator>
					<rdf:Bag>
						<rdf:li>AomAm .</rdf:li>
					</rdf:Bag>
				</dc:creator>
			</rdf:Description>
		</rdf:RDF>
    </metadata></svg>
