<?xml version="1.0" encoding="UTF-8"?>
<svg xmlns="http://www.w3.org/2000/svg" xmlns:xlink="http://www.w3.org/1999/xlink" width="64px" height="64px" viewBox="0 0 64 64" version="1.1">
    
    <title>ghost</title>
    <desc>Created with Sketch.</desc>
    <defs>
        <polygon id="path-1" points="0.000330713724 63.6324103 53.3611235 63.6324103 53.3611235 0.563576779 0.000330713724 0.563576779"/>
    </defs>
    <g id="SVG" stroke="none" stroke-width="1" fill="none" fill-rule="evenodd">
        <g id="Color" transform="translate(-877.000000, -255.000000)">
            <g id="9" transform="translate(881.923077, 255.000000)">
                <path d="M47.374988,29.1026268 L47.374988,29.1026268 C47.4463336,28.2754055 47.4841553,27.4370055 47.4841553,26.5874268 C47.4841553,13.0913365 38.1980601,2.15000156 26.7440918,2.15000156 C15.2901236,2.15000156 6.00402833,13.0913365 6.00402833,26.5874268 C6.00402833,27.4473242 5.91291233,28.2659466 5.98597705,29.1026268 C5.98597705,29.1026268 0.755403175,44.0751609 1.33476337,57.8489981 C1.33476337,57.8489981 8.02405275,55.7147326 8.83378168,52.920066 C8.83378168,52.920066 10.2237304,58.8464791 13.3156571,61.4416496 C13.3156571,61.4416496 18.2299038,57.9100508 18.4774642,55.3148803 C18.4774642,55.3148803 22.8475937,61.0426571 26.6804825,62.6394867 C30.5133714,61.0426571 34.8835009,55.3148803 34.8835009,55.3148803 C35.1319209,57.9100508 40.0461675,61.4416496 40.0461675,61.4416496 C43.1372347,58.8464791 44.5271834,52.920066 44.5271834,52.920066 C45.3369123,55.7147326 52.0262017,57.8489981 52.0262017,57.8489981 C52.6064215,44.0751609 47.374988,29.1026268 47.374988,29.1026268" id="Fill-1" fill="#FEFEFE"/>
                <g id="Group-5" transform="translate(0.000000, 0.296407)">
                    <mask id="mask-2" fill="white">
                        <use xlink:href="#path-1"/>
                    </mask>
                    <g id="Clip-4"/>
                    <path d="M18.4781519,53.7293154 C18.8735609,53.7293154 19.254357,53.9116137 19.502777,54.2366549 C19.5423179,54.2882488 23.3262105,59.2068621 26.679451,60.9206377 C29.4688039,59.4854689 32.7661714,55.6675243 33.8587038,54.2366549 C34.1810481,53.8144453 34.7286037,53.6347267 35.2374779,53.7791895 C35.7472117,53.9253721 36.1168332,54.3682192 36.1666891,54.8961963 C36.2784352,56.0630771 38.2529016,58.0743772 39.9419858,59.4416141 C42.1734681,56.8971776 43.260843,52.3784166 43.2728772,52.3276826 C43.4069724,51.7575706 43.9098295,51.3482594 44.4952068,51.3345011 C45.0762862,51.3293417 45.6040713,51.7016773 45.7656733,52.2649101 C46.1009114,53.4206123 48.5619028,54.8093466 50.7804913,55.7216978 C50.8621519,42.8541926 46.2074999,29.3735805 46.157644,29.2325573 C46.097473,29.0605778 46.0742642,28.8774197 46.0905963,28.6959813 C46.1593631,27.8928371 46.1946061,27.0845335 46.1946061,26.2917081 C46.1946061,13.5273905 37.4698198,3.14326909 26.7439199,3.14326909 C16.0188796,3.14326909 7.2932337,13.5273905 7.2932337,26.2917081 C7.2932337,26.6176092 7.2820591,26.937491 7.26916532,27.2547932 C7.24939487,27.7604129 7.230484,28.237656 7.27088449,28.6934016 C7.28635702,28.8756999 7.26400781,29.0597179 7.20383687,29.2325573 C7.15398095,29.3727206 2.50104811,42.8645113 2.5809895,55.719978 C4.79957802,54.8067669 7.26142906,53.4163128 7.59580757,52.2649101 C7.75740952,51.7016773 8.27573919,51.3276219 8.86627399,51.3345011 C9.45165128,51.3482594 9.95450842,51.7575706 10.0886037,52.3276826 C10.1006379,52.3784166 11.1888723,56.8980375 13.4203546,59.442474 C15.1343668,58.0597589 17.0813265,56.0759755 17.1947917,54.8961963 C17.2446476,54.3682192 17.6134095,53.9253721 18.1240029,53.7791895 C18.2409065,53.7456535 18.3595292,53.7293154 18.4781519,53.7293154 M26.6803106,63.6327542 C26.511832,63.6327542 26.3424938,63.6000781 26.1851897,63.5330061 C23.4233436,62.3824633 20.5093509,59.3917401 18.8417563,57.4827678 C17.4019516,59.7176412 14.7372386,61.7117433 14.067622,62.1932859 C13.5896928,62.5355251 12.9389871,62.511448 12.4868454,62.1330931 C10.4393143,60.4141581 9.09406398,57.4939464 8.3376293,55.3983764 C6.12677705,57.2970299 2.61967082,58.4965868 1.72742173,58.7812129 C1.34404689,58.9041782 0.926288645,58.8405458 0.596208059,58.6100933 C0.266987057,58.3796408 0.0641250305,58.009025 0.0469333333,57.6074529 C-0.502341392,44.5653885 3.97093822,30.7408174 4.6818149,28.6357885 C4.65430818,28.1224297 4.67321905,27.6305684 4.69212991,27.1541852 C4.70330452,26.870419 4.71447912,26.5832133 4.71447912,26.2917081 C4.71447912,12.1051202 14.5971263,0.563576779 26.7439199,0.563576779 C38.8907136,0.563576779 48.7733607,12.1051202 48.7733607,26.2917081 C48.7733607,27.0673355 48.7424156,27.8575813 48.6822447,28.6435275 C49.4017172,30.7734935 53.8629626,44.5800067 53.3145475,57.6074529 C53.2973558,58.009025 53.0944938,58.3796408 52.7652728,58.6100933 C52.4351922,58.838826 52.0165744,58.9041782 51.6340591,58.7812129 C50.74181,58.4965868 47.2347038,57.2970299 45.0238515,55.3983764 C44.2674168,57.4939464 42.9221665,60.4141581 40.8746354,62.1330931 C40.4233534,62.5123079 39.7709284,62.5355251 39.2938589,62.1932859 C38.6242422,61.7117433 35.9595292,59.7176412 34.5197245,57.4827678 C32.8521299,59.3917401 29.9372777,62.3824633 27.1754315,63.5330061 C27.0172679,63.6000781 26.8487893,63.6327542 26.6803106,63.6327542" id="Fill-3" fill="#2E2E30" mask="url(#mask-2)"/>
                </g>
                <path d="M47.374988,29.1026268 L47.374988,29.1026268 C47.4463336,28.2754055 47.4841553,27.4370055 47.4841553,26.5874268 C47.4841553,13.0913365 38.1980601,2.15000156 26.7440918,2.15000156 C25.7220454,2.15000156 24.7180503,2.24115069 23.7355448,2.40883069 C33.7634618,4.12690576 41.4670613,14.2951929 41.4670613,26.5874268 C41.4670613,27.4370055 41.4292396,28.2754055 41.357894,29.1026268 L41.357894,29.1026268 C41.357894,29.1026268 45.8629783,42.0045279 46.0452103,54.872893 C48.2689563,56.6494411 52.0262017,57.8489981 52.0262017,57.8489981 C52.6064215,44.0751609 47.374988,29.1026268 47.374988,29.1026268" id="Fill-6" fill="#010202" opacity="0.3"/>
                <path d="M26.6471306,39.8559882 L26.6471306,39.8559882 C24.5102027,39.8559882 22.7772796,38.122435 22.7772796,35.9847299 L22.7772796,29.931052 C22.7772796,27.793347 24.5102027,26.0597937 26.6471306,26.0597937 L26.6471306,26.0597937 C28.7840586,26.0597937 30.5169817,27.793347 30.5169817,29.931052 L30.5169817,35.9847299 C30.5169817,38.122435 28.7840586,39.8559882 26.6471306,39.8559882" id="Fill-8" fill="#4C4C4C"/>
                <path d="M26.6475604,27.3495539 C25.2249475,27.3495539 24.0670867,28.5078357 24.0670867,29.930966 L24.0670867,35.9846439 C24.0670867,37.4077742 25.2249475,38.566056 26.6475604,38.566056 C28.0701734,38.566056 29.2280342,37.4077742 29.2280342,35.9846439 L29.2280342,29.930966 C29.2280342,28.5078357 28.0701734,27.3495539 26.6475604,27.3495539 M26.6475604,41.1457483 C23.8023346,41.1457483 21.4883321,38.8309045 21.4883321,35.9846439 L21.4883321,29.930966 C21.4883321,27.0847055 23.8023346,24.7698616 26.6475604,24.7698616 C29.4927863,24.7698616 31.8067888,27.0847055 31.8067888,29.930966 L31.8067888,35.9846439 C31.8067888,38.8309045 29.4927863,41.1457483 26.6475604,41.1457483" id="Fill-10" fill="#2E2E30"/>
                <path d="M13.3521035,21.5706992 L23.0593954,14.3329424 C23.0593954,14.3329424 20.8451048,30.3132764 13.3521035,21.5706992" id="Fill-12" fill="#4C4C4C"/>
                <path d="M15.2899516,21.7350256 C16.1185915,22.4986145 17.0538198,23.0747458 17.8618295,22.8408537 C19.2208332,22.4418613 20.3675194,19.9722358 21.0921495,17.4080217 L15.2899516,21.7350256 Z M17.4724376,25.4781591 C15.8323497,25.4781591 14.1226354,24.4505817 12.3733802,22.410045 C12.1412923,22.1391774 12.0312654,21.7831798 12.0708063,21.4280422 C12.1103473,21.0720446 12.2960176,20.7495831 12.5822593,20.5354686 L22.2886916,13.2977119 C22.7055902,12.986429 23.2677587,12.9589123 23.7156024,13.2229008 C24.1625866,13.4868894 24.4067087,13.9942288 24.3353631,14.5101673 C24.2012679,15.4827113 22.8955585,24.0507294 18.5881788,25.3156385 C18.2202764,25.4239856 17.8489358,25.4781591 17.4724376,25.4781591 L17.4724376,25.4781591 Z" id="Fill-14" fill="#2E2E30"/>
                <path d="M40.1360801,21.5706992 L30.4287883,14.3329424 C30.4287883,14.3329424 32.6430789,30.3132764 40.1360801,21.5706992" id="Fill-16" fill="#4C4C4C"/>
                <path d="M32.3993866,17.4103434 C33.1248762,19.9745575 34.272422,22.444183 35.6271277,22.8405957 C36.4334183,23.0779274 37.3703658,22.4974966 38.1990056,21.7347676 L32.3993866,17.4103434 Z M36.0165197,25.4779011 C35.6408811,25.4779011 35.2686808,25.4237276 34.8999189,25.3153805 C30.5925392,24.0513313 29.2868298,15.4824533 29.1527346,14.5099093 C29.081389,13.9939709 29.3255111,13.4874913 29.7724952,13.2226429 C30.2186198,12.9577945 30.7825074,12.9861711 31.1994061,13.2983138 L40.9066979,20.5360706 C41.1929397,20.750185 41.37861,21.0726466 41.4181509,21.4277842 C41.4576918,21.7829218 41.347665,22.1389194 41.115577,22.4097871 C39.3663219,24.4511836 37.655748,25.4779011 36.0165197,25.4779011 L36.0165197,25.4779011 Z" id="Fill-18" fill="#2E2E30"/>
            </g>
        </g>
    </g>

	
	
	<metadata>
		<rdf:RDF xmlns:rdf="http://www.w3.org/1999/02/22-rdf-syntax-ns#" xmlns:rdfs="http://www.w3.org/2000/01/rdf-schema#" xmlns:dc="http://purl.org/dc/elements/1.1/">
			<rdf:Description about="https://iconscout.com/legal#licenses" dc:title="Ghost, Evil, Halloween, Spirit, Fear" dc:description="Ghost, Evil, Halloween, Spirit, Fear" dc:publisher="Iconscout" dc:date="2016-12-14" dc:format="image/svg+xml" dc:language="en">
				<dc:creator>
					<rdf:Bag>
						<rdf:li>AomAm .</rdf:li>
					</rdf:Bag>
				</dc:creator>
			</rdf:Description>
		</rdf:RDF>
    </metadata></svg>
