<?xml version="1.0" encoding="UTF-8"?>
<svg xmlns="http://www.w3.org/2000/svg" xmlns:xlink="http://www.w3.org/1999/xlink" width="64px" height="64px" viewBox="0 0 64 64" version="1.1">
    
    <title>hat</title>
    <desc>Created with Sketch.</desc>
    <defs/>
    <g id="SVG" stroke="none" stroke-width="1" fill="none" fill-rule="evenodd">
        <g id="Color" transform="translate(-182.000000, -255.000000)">
            <g id="1" transform="translate(182.000000, 256.000000)">
                <path d="M62.6517092,49.9026147 C62.6517092,54.6664675 48.9192642,59.3939286 31.9794444,59.3939286 C15.0404961,59.3939286 1.30805112,54.6664675 1.30805112,49.9026147 C1.30805112,45.1387619 15.0404961,42.1442411 31.9794444,42.1442411 C48.9192642,42.1442411 62.6517092,45.1387619 62.6517092,49.9026147" id="Fill-1" fill="#5D5D5E"/>
                <path d="M31.9799673,43.443773 C13.8417398,43.443773 2.61505636,46.796146 2.61505636,49.9024414 C2.61505636,53.163835 14.3263323,58.0940501 31.9799673,58.0940501 C49.6327308,58.0940501 61.3440067,53.163835 61.3440067,49.9024414 C61.3440067,46.796146 50.1181948,43.443773 31.9799673,43.443773 M31.9799673,60.6934605 C12.226722,60.6934605 0.000348627697,55.0917311 0.000348627697,49.9024414 C0.000348627697,43.2167578 17.2269147,40.8443626 31.9799673,40.8443626 C46.7321483,40.8443626 63.9587144,43.2167578 63.9587144,49.9024414 C63.9587144,55.0917311 51.7323411,60.6934605 31.9799673,60.6934605" id="Fill-3" fill="#2E2E30"/>
                <path d="M31.9797058,42.1440678 C27.8101186,42.1440678 23.837506,42.3260265 20.2135211,42.6708816 C31.3129554,43.7262423 39.1196011,46.3117891 39.1196011,49.9024414 C39.1196011,53.4939601 31.3129554,57.0638171 20.2135211,58.6035345 C23.837506,59.1060872 27.8101186,59.3937553 31.9797058,59.3937553 C48.9195257,59.3937553 62.6519707,54.6662942 62.6519707,49.9024414 C62.6519707,45.139455 48.9195257,42.1440678 31.9797058,42.1440678" id="Fill-5" fill="#010202" opacity="0.3"/>
                <path d="M49.5546382,16.4196958 C49.5546382,16.4196958 39.5551242,5.35747151 34.8730543,2.1601967 C32.3176132,0.510437559 29.564326,1.2954595 28.0939887,3.93299461 C16.2842254,24.0403006 14.3798466,46.4333549 14.3798466,46.4333549 C14.3798466,49.3758875 22.2597042,51.7621463 31.9794444,51.7621463 C41.7000561,51.7621463 49.5799137,49.3758875 49.5799137,46.4333549 C49.5799137,46.4333549 47.903886,35.2775519 40.2715542,18.5330164 C40.2715542,18.5330164 45.4713363,19.9228345 47.531726,20.2971496 C49.7655579,20.7026577 51.1783717,17.9975379 49.5546382,16.4196958" id="Fill-7" fill="#5D5D5E"/>
                <path d="M15.689118,46.4739057 C15.8006788,47.8524597 21.5417054,50.4622678 31.9796187,50.4622678 C42.3390907,50.4622678 48.0714016,47.8923173 48.2675047,46.5059651 C48.0583281,45.2591146 46.118215,34.509686 39.0811649,19.0691882 C38.8728598,18.6108255 38.9486864,18.0744804 39.2755248,17.6915006 C39.6023633,17.3076544 40.1235617,17.1473574 40.6116405,17.2773279 C40.6621915,17.2911914 45.7826608,18.6584813 47.767224,19.0180664 C48.447048,19.1428381 48.7512256,18.654149 48.8296669,18.5025167 C48.9081081,18.3508844 49.126872,17.8223376 48.6405364,17.3492449 C48.6204903,17.3301826 48.6013157,17.3093873 48.5821412,17.288592 C48.4827823,17.1794168 38.6331783,6.30521655 34.1323947,3.23184697 C33.2547245,2.6651755 32.3256317,2.46848678 31.4688791,2.67990549 C30.5720344,2.90258832 29.799824,3.55330739 29.2385334,4.5627451 C18.0162078,23.6684117 15.8198533,45.0936188 15.689118,46.4739057 M31.9796187,53.0616782 C22.5841022,53.0616782 13.0726671,50.7854611 13.0726671,46.4331816 C13.0726671,46.3967899 13.0744102,46.3603981 13.0770249,46.3240064 C13.0961995,46.0969912 15.142644,23.4050047 26.9654808,3.27690342 C27.8605824,1.67046778 29.2411481,0.553587772 30.8369914,0.157610918 C32.3866415,-0.226235353 34.0774859,0.0969580085 35.5853006,1.07087044 C40.2943893,4.28634113 49.8145401,14.7645645 50.5004651,15.5227259 C51.631762,16.6482706 51.8888749,18.2807003 51.1523989,19.6965125 C50.4072072,21.1287877 48.8915483,21.8644208 47.2974481,21.5758863 C46.174867,21.3713993 44.1929185,20.8870425 42.5674419,20.4737363 C49.2497633,35.7989936 50.8072575,45.8015249 50.8726252,46.2408252 C50.8822124,46.304944 50.8874419,46.3690628 50.8874419,46.4331816 C50.8874419,50.7854611 41.3760067,53.0616782 31.9796187,53.0616782" id="Fill-9" fill="#2E2E30"/>
                <path d="M49.5798265,46.4334416 C49.5798265,46.4334416 49.2965665,44.2612009 48.4371992,40.5466434 C44.4593572,41.8342181 38.2633715,43.1902438 31.9793572,43.1902438 C25.6970861,43.1902438 19.1088942,41.8342181 15.1319237,40.5466434 C14.5575596,44.2022809 14.3797595,46.4334416 14.3797595,46.4334416 C14.3797595,49.3759741 22.259617,51.7622329 31.9793572,51.7622329 C41.699969,51.7622329 49.5798265,49.3759741 49.5798265,46.4334416" id="Fill-11" fill="#BABABA"/>
                <path d="M15.689118,46.4708731 C15.7928347,47.8485606 21.5347329,50.4618345 31.9796187,50.4618345 C42.3643662,50.4618345 48.101035,47.878887 48.2692479,46.4951342 C48.2108527,46.0939586 47.9798869,44.5715705 47.4682757,42.2009082 C44.5310874,43.0474495 38.560838,44.4901223 31.9796187,44.4901223 C26.1688665,44.4901223 20.2796732,43.3905717 16.2007291,42.2295017 C15.859074,44.6079623 15.7170082,46.1442138 15.689118,46.4708731 M31.9796187,53.0612449 C22.5841022,53.0612449 13.0726671,50.7850279 13.0726671,46.4336148 C13.0726671,46.398956 13.0744102,46.3642972 13.0770249,46.3305049 C13.0848691,46.2369261 13.2652839,44.0092314 13.839648,40.3466621 C13.8989147,39.9697476 14.1211649,39.6378896 14.4471318,39.4386014 C14.7739702,39.2393133 15.1705343,39.1925239 15.5365933,39.3103638 C19.2120008,40.5008938 25.7243662,41.8907119 31.9796187,41.8907119 C39.4847014,41.8907119 46.1635366,39.9160265 48.0313094,39.3103638 C48.3799371,39.1977227 48.7608129,39.2349809 49.0806788,39.4143403 C49.4005447,39.594566 49.6280243,39.8995635 49.7108234,40.2548163 C50.5745485,43.9884361 50.8639095,46.1745403 50.8761115,46.2663861 C50.8839556,46.3218402 50.8874419,46.3772943 50.8874419,46.4336148 C50.8874419,50.7850279 41.3760067,53.0612449 31.9796187,53.0612449" id="Fill-13" fill="#2E2E30"/>
                <path d="M35.6573794,52.6283565 L28.200233,52.6283565 C26.8466859,52.6283565 25.7485087,51.5374706 25.7485087,50.190976 L25.7485087,44.1265515 C25.7485087,42.7800569 26.8466859,41.689171 28.200233,41.689171 L35.6573794,41.689171 C37.011798,41.689171 38.1091037,42.7800569 38.1091037,44.1265515 L38.1091037,50.190976 C38.1091037,51.5374706 37.011798,52.6283565 35.6573794,52.6283565" id="Fill-15" fill="#F5B956"/>
                <path d="M28.2000587,42.9885296 C27.5690425,42.9885296 27.0565598,43.4988805 27.0565598,44.1262049 L27.0565598,50.1914958 C27.0565598,50.8188202 27.5690425,51.3283047 28.2000587,51.3283047 L35.6580767,51.3283047 C36.2882212,51.3283047 36.8015755,50.8188202 36.8015755,50.1914958 L36.8015755,44.1262049 C36.8015755,43.4988805 36.2882212,42.9885296 35.6580767,42.9885296 L28.2000587,42.9885296 Z M35.6580767,53.9277151 L28.2000587,53.9277151 C26.127467,53.9277151 24.4418521,52.2519618 24.4418521,50.1914958 L24.4418521,44.1262049 C24.4418521,42.0657389 26.127467,40.3891192 28.2000587,40.3891192 L35.6580767,40.3891192 C37.7306683,40.3891192 39.4162833,42.0657389 39.4162833,44.1262049 L39.4162833,50.1914958 C39.4162833,52.2519618 37.7306683,53.9277151 35.6580767,53.9277151 L35.6580767,53.9277151 Z" id="Fill-17" fill="#2E2E30"/>
                <path d="M29.9565322,47.1585904 L33.7443721,47.1585904" id="Fill-19" fill="#FEFEFE"/>
                <path d="M33.7443721,48.4581223 L29.9565322,48.4581223 C29.2348728,48.4581223 28.6491783,47.8767209 28.6491783,47.1584171 C28.6491783,46.4401134 29.2348728,45.8587119 29.9565322,45.8587119 L33.7443721,45.8587119 C34.4660314,45.8587119 35.051726,46.4401134 35.051726,47.1584171 C35.051726,47.8767209 34.4660314,48.4581223 33.7443721,48.4581223" id="Fill-21" fill="#2E2E30"/>
                <path d="M40.2715542,18.5326699 C40.2715542,18.5326699 35.850955,17.3421399 32.3176132,15.0234658" id="Fill-23" fill="#FEFEFE"/>
                <path d="M40.2726,19.8328949 C40.159296,19.8328949 40.0442489,19.818165 39.9292018,19.786972 C39.7418144,19.7367168 35.2636916,18.5149939 31.5978714,16.1088063 C30.9947454,15.7128294 30.8291473,14.9070122 31.2265829,14.3082813 C31.6240184,13.7078175 32.4371925,13.5440547 33.0377038,13.9391651 C36.345309,16.1096728 40.5724199,17.2672769 40.6142552,17.278541 C41.310639,17.466565 41.7220197,18.1805364 41.5328892,18.8737125 C41.3751351,19.4516481 40.8478357,19.8328949 40.2726,19.8328949" id="Fill-25" fill="#2E2E30"/>
                <path d="M42.5358911,23.7474337 C42.5184597,23.7041102 42.497542,23.6590538 42.4801106,23.6157303 C42.1602447,22.8445719 41.82992,22.0612828 41.4830354,21.2606644 C41.4446864,21.1722845 41.4037226,21.0813051 41.3653736,20.9929252 C41.1989038,20.6116783 41.0324341,20.229565 40.8598634,19.8413864 L40.8511477,19.837054 C40.6585309,19.402086 40.4737582,18.9757827 40.2715542,18.5330164 C40.2715542,18.5330164 45.4713363,19.9228345 47.531726,20.2971496 C49.5921157,20.6714647 50.9474058,18.4004465 49.8727609,16.8078744 C44.2520109,16.2567994 36.4183465,15.2906852 31.8504521,13.8662083 C29.343819,13.0846522 30.6921366,14.6226367 33.6511142,17.0513525 C39.4740683,28.7131741 36.5795868,49.6193656 36.2884827,51.5940511 C43.9216862,51.0117831 49.5799137,48.925323 49.5799137,46.4333549 C49.5799137,46.4333549 48.2403118,37.550303 42.5341479,23.7465673 C42.5350195,23.7465673 42.5350195,23.7474337 42.5358911,23.7474337" id="Fill-27" fill="#010202" opacity="0.3"/>
            </g>
        </g>
    </g>

	
	
	<metadata>
		<rdf:RDF xmlns:rdf="http://www.w3.org/1999/02/22-rdf-syntax-ns#" xmlns:rdfs="http://www.w3.org/2000/01/rdf-schema#" xmlns:dc="http://purl.org/dc/elements/1.1/">
			<rdf:Description about="https://iconscout.com/legal#licenses" dc:title="Hat, Halloween, Witch, Wizard, Magic" dc:description="Hat, Halloween, Witch, Wizard, Magic" dc:publisher="Iconscout" dc:date="2016-12-14" dc:format="image/svg+xml" dc:language="en">
				<dc:creator>
					<rdf:Bag>
						<rdf:li>AomAm .</rdf:li>
					</rdf:Bag>
				</dc:creator>
			</rdf:Description>
		</rdf:RDF>
    </metadata></svg>
