<?xml version="1.0" encoding="UTF-8"?>
<svg xmlns="http://www.w3.org/2000/svg" xmlns:xlink="http://www.w3.org/1999/xlink" width="64px" height="64px" viewBox="0 0 64 64" version="1.1">
    
    <title>pot</title>
    <desc>Created with Sketch.</desc>
    <defs>
        <polygon id="path-1" points="0.575340658 20.0460926 13.9787857 20.0460926 13.9787857 0.843461136 0.575340658 0.843461136 0.575340658 20.0460926"/>
        <polygon id="path-3" points="12.3977951 0.765237796 0.647377868 0.765237796 0.647377868 12.5365648 12.3977951 12.5365648 12.3977951 0.765237796"/>
    </defs>
    <g id="SVG" stroke="none" stroke-width="1" fill="none" fill-rule="evenodd">
        <g id="Color" transform="translate(-271.000000, -255.000000)">
            <g id="2" transform="translate(273.000000, 255.000000)">
                <path d="M38.3730382,29.6722263 L38.2599363,29.593785 C37.2202688,28.8799698 36.9531743,27.4436237 37.6665863,26.4020985 L49.8989917,8.54713094 C50.6124036,7.5056057 52.0461877,7.23890551 53.0849851,7.95272072 L53.1989571,8.03116195 C54.2377545,8.74584873 54.504849,10.1821948 53.791437,11.2228485 L41.5590317,29.0786876 C40.8456197,30.1193413 39.4118356,30.3869131 38.3730382,29.6722263" id="Fill-1" fill="#60413E"/>
                <path d="M51.7947535,8.85958852 C51.7329825,8.85958852 51.6703414,8.8656895 51.6085704,8.8770199 C51.347566,8.92582778 51.1231022,9.07137984 50.9760697,9.28665745 L38.7419244,27.1424965 C38.4348092,27.5913547 38.5487811,28.2075542 38.9977087,28.5160897 L39.1090705,28.5927878 C39.1099405,28.5927878 39.1108106,28.5936593 39.1116806,28.5945309 C39.5597381,28.9030664 40.1765785,28.7880193 40.4836936,28.3382895 L52.716099,10.483322 C53.0232141,10.0335923 52.9083722,9.41739283 52.4603147,9.10885732 L52.3454727,9.03041609 C52.18278,8.91798366 51.9922468,8.85958852 51.7947535,8.85958852 M39.6641398,31.3809378 C38.9637781,31.3809378 38.2564562,31.1769906 37.6378758,30.7516648 L37.5239039,30.6740951 C35.8865364,29.5480277 35.4680594,27.3011221 36.5895082,25.662572 L48.8236536,7.80673287 C49.3648027,7.015348 50.1843565,6.48281919 51.1309323,6.30589063 C52.0792483,6.13070522 53.0345243,6.33290928 53.8236275,6.87502535 L53.9384695,6.95346658 C55.5714869,8.07779091 55.9890939,10.3246964 54.8676451,11.962375 L42.6352397,29.8182141 C41.938358,30.8344639 40.8108191,31.3809378 39.6641398,31.3809378" id="Fill-3" fill="#2E2E30"/>
                <path d="M55.4533389,25.5979015 L4.01981548,25.5979015 C2.52078032,25.5979015 1.30536991,24.3803193 1.30536991,22.8786055 L1.30536991,22.4297473 C1.30536991,20.9280335 2.52078032,19.7104513 4.01981548,19.7104513 L55.4533389,19.7104513 C56.9523741,19.7104513 58.1677845,20.9280335 58.1677845,22.4297473 L58.1677845,22.8786055 C58.1677845,24.3803193 56.9523741,25.5979015 55.4533389,25.5979015" id="Fill-5" fill="#5D5D5E"/>
                <g id="Group-9" transform="translate(0.000000, 17.537803)" fill="#2E2E30">
                    <path d="M4.01955448,3.47991452 C3.24176142,3.47991452 2.61013082,4.11354536 2.61013082,4.89272826 L2.61013082,5.34071485 C2.61013082,6.11902619 3.24176142,6.75265703 4.01955448,6.75265703 L55.4530779,6.75265703 C56.230871,6.75265703 56.8625016,6.11902619 56.8625016,5.34071485 L56.8625016,4.89272826 C56.8625016,4.11354536 56.230871,3.47991452 55.4530779,3.47991452 L4.01955448,3.47991452 Z M55.4530779,9.36736476 L4.01955448,9.36736476 C1.80275726,9.36736476 8.70014605e-05,7.56147329 8.70014605e-05,5.34071485 L8.70014605e-05,4.89272826 C8.70014605e-05,2.67196983 1.80275726,0.865206788 4.01955448,0.865206788 L55.4530779,0.865206788 C57.6698751,0.865206788 59.4725454,2.67196983 59.4725454,4.89272826 L59.4725454,5.34071485 C59.4725454,7.56147329 57.6698751,9.36736476 55.4530779,9.36736476 L55.4530779,9.36736476 Z" id="Fill-7"/>
                </g>
                <path d="M9.37954046,60.2628251 L9.20640755,60.2148887 C7.6186309,59.7782326 6.67640508,58.1196363 7.1122824,56.5290224 L8.45471493,51.633418 C8.89059225,50.0428041 10.54623,49.0988946 12.1340067,49.5355508 L12.3080096,49.5834871 C13.8957863,50.0201433 14.8380121,51.6787396 14.4012648,53.2693534 L13.0588322,58.1649579 C12.6229549,59.7555718 10.9673171,60.6994812 9.37954046,60.2628251" id="Fill-10" fill="#5D5D5E"/>
                <path d="M9.72650228,59.0024488 C10.6252274,59.2499744 11.555273,58.7174456 11.8014871,57.8188577 L13.1430496,52.9232533 C13.2613716,52.4900834 13.2030806,52.0351242 12.9794869,51.6403034 C12.7550231,51.2454825 12.393097,50.9630941 11.9615698,50.8436891 L11.7884369,50.7957528 C11.3569097,50.6789625 10.901892,50.7364861 10.5077754,50.9604794 C10.1136588,51.1844727 9.83177405,51.5470455 9.71258205,51.9793438 L8.37014951,56.8758198 C8.12393538,57.7744077 8.65377427,58.7069868 9.55162935,58.9545125 L9.72650228,59.0024488 Z M10.1710797,61.6781664 C9.79523343,61.6781664 9.41416704,61.6284869 9.03397065,61.5238986 L9.03310064,61.5238986 L8.85909772,61.4750907 C6.57530938,60.8466893 5.22591673,58.4725347 5.85406727,56.1829223 L7.19649981,51.2864463 C7.49926489,50.1812965 8.21702694,49.2574331 9.21667372,48.6882983 C10.2163205,48.1182921 11.37605,47.9709969 12.4800985,48.2751745 L12.6532314,48.3231108 C13.75815,48.6264169 14.6786254,49.3454616 15.248485,50.3468946 C15.8166045,51.3491992 15.962767,52.5101295 15.6591319,53.6161508 L14.3175694,58.5117553 C13.7938206,60.4213635 12.0581414,61.6781664 10.1710797,61.6781664 L10.1710797,61.6781664 Z" id="Fill-12" fill="#2E2E30"/>
                <path d="M50.0936139,60.2628251 L50.2667468,60.2148887 C51.8545235,59.7782326 52.7967493,58.1196363 52.360872,56.5290224 L51.0184395,51.633418 C50.5825621,50.0428041 48.9269243,49.0988946 47.3391477,49.5355508 L47.1651448,49.5834871 C45.5773681,50.0201433 44.6351423,51.6787396 45.0718896,53.2693534 L46.4143222,58.1649579 C46.8501995,59.7555718 48.5058373,60.6994812 50.0936139,60.2628251" id="Fill-14" fill="#5D5D5E"/>
                <path d="M48.1277289,50.7361374 C47.9798264,50.7361374 47.8301839,50.7561835 47.6840215,50.7962757 L47.5108886,50.844212 C46.6139035,51.0908661 46.0831946,52.0243168 46.3302788,52.9237762 L47.6727113,57.8185091 C47.9189254,58.7179686 48.844621,59.2504974 49.7476961,59.0021001 L49.919089,58.9550354 C50.3540963,58.8356304 50.7151524,58.5523704 50.9387461,58.1584211 C51.1623399,57.7636003 51.2215009,57.3086411 51.1023089,56.8754712 L49.7598763,51.9798668 C49.6406843,51.5466968 49.3587996,51.1849956 48.964683,50.9601307 C48.7045486,50.811964 48.4174438,50.7361374 48.1277289,50.7361374 M49.3022486,61.6778177 C47.414317,61.6778177 45.6795078,60.4210149 45.155759,58.5114067 L43.8133265,53.6158022 C43.186046,51.3261898 44.5345686,48.9520352 46.819227,48.3227622 L46.9923599,48.2748259 C48.0981484,47.9706482 49.2561379,48.1170719 50.2557847,48.6879497 C51.2563014,49.257956 51.9731935,50.1809478 52.2768286,51.2869692 L53.6192611,56.1825736 C53.9220262,57.288595 53.7758637,58.4495252 53.2077442,59.4509583 C52.6387547,60.4532629 51.7165392,61.1723076 50.6124906,61.4756137 L50.4419678,61.5226784 C50.4410978,61.5226784 50.4402277,61.52355 50.4393577,61.52355 C50.0600314,61.6281383 49.678095,61.6778177 49.3022486,61.6778177" id="Fill-16" fill="#2E2E30"/>
                <path d="M4.72191727,25.5979015 C3.1332706,28.9787186 2.24063561,32.7343105 2.24063561,36.6947211 C2.24063561,51.4608473 14.5504723,56.9900825 29.7365772,56.9900825 C44.9218121,56.9900825 57.2325188,51.4608473 57.2325188,36.6947211 C57.2325188,32.7343105 56.3398838,28.9787186 54.7512371,25.5979015 L4.72191727,25.5979015 Z" id="Fill-18" fill="#5D5D5E"/>
                <path d="M5.56504842,26.9050811 C4.22435592,30.013097 3.54574452,33.3023993 3.54574452,36.6945468 C3.54574452,53.2160134 19.95509,55.6834259 29.7366642,55.6834259 C39.5182384,55.6834259 55.9275839,53.2160134 55.9275839,36.6945468 C55.9275839,33.3032709 55.2481025,30.013097 53.90828,26.9050811 L5.56504842,26.9050811 Z M29.7366642,58.2981337 C11.4332969,58.2981337 0.935700708,50.4235056 0.935700708,36.6945468 C0.935700708,32.6400067 1.81267543,28.7188167 3.54139445,25.0407945 C3.75715807,24.582349 4.21652578,24.2903734 4.72200427,24.2903734 L54.7513241,24.2903734 C55.2568026,24.2903734 55.7170403,24.582349 55.932804,25.0407945 C57.660653,28.7196882 58.5376277,32.6408783 58.5376277,36.6945468 C58.5376277,50.4235056 48.0400315,58.2981337 29.7366642,58.2981337 L29.7366642,58.2981337 Z" id="Fill-20" fill="#2E2E30"/>
                <path d="M4.72191727,25.5979015 C3.1332706,28.9787186 2.24063561,32.7343105 2.24063561,36.6947211 C2.24063561,51.4608473 14.5504723,56.9900825 29.7365772,56.9900825 C44.9218121,56.9900825 57.2325188,51.4608473 57.2325188,36.6947211 C57.2325188,32.7343105 56.3398838,28.9787186 54.7512371,25.5979015 L4.72191727,25.5979015 Z" id="Fill-22" fill="#5D5D5E"/>
                <path d="M5.56504842,26.9050811 C4.22435592,30.013097 3.54574452,33.3023993 3.54574452,36.6945468 C3.54574452,53.2160134 19.95509,55.6834259 29.7366642,55.6834259 C39.5182384,55.6834259 55.9275839,53.2160134 55.9275839,36.6945468 C55.9275839,33.3032709 55.2481025,30.013097 53.90828,26.9050811 L5.56504842,26.9050811 Z M29.7366642,58.2981337 C11.4332969,58.2981337 0.935700708,50.4235056 0.935700708,36.6945468 C0.935700708,32.6400067 1.81267543,28.7188167 3.54139445,25.0407945 C3.75715807,24.582349 4.21652578,24.2903734 4.72200427,24.2903734 L54.7513241,24.2903734 C55.2568026,24.2903734 55.7170403,24.582349 55.932804,25.0407945 C57.660653,28.7196882 58.5376277,32.6408783 58.5376277,36.6945468 C58.5376277,50.4235056 48.0400315,58.2981337 29.7366642,58.2981337 L29.7366642,58.2981337 Z" id="Fill-24" fill="#2E2E30"/>
                <path d="M55.4532519,19.7103641 L48.4931351,19.7103641 C49.9921702,19.7103641 51.2075806,20.9279464 51.2075806,22.4296602 L51.2075806,22.8785183 C51.2075806,24.3802321 49.9921702,25.5978144 48.4931351,25.5978144 L47.7910333,25.5978144 C49.3796799,28.9786315 50.2723149,32.7342233 50.2723149,36.694634 C50.2723149,50.313775 39.7973391,56.0713614 26.2564318,56.8836639 C27.3970209,56.9525179 28.5567504,56.9899954 29.7364902,56.9899954 C44.9225951,56.9899954 57.2324318,51.4616317 57.2324318,36.694634 C57.2324318,32.7342233 56.3397968,28.9786315 54.7511501,25.5978144 L55.4532519,25.5978144 C56.9522871,25.5978144 58.1676975,24.3802321 58.1676975,22.8785183 L58.1676975,22.4296602 C58.1676975,20.9279464 56.9522871,19.7103641 55.4532519,19.7103641" id="Fill-26" fill="#010202" opacity="0.3"/>
                <path d="M25.6629078,56.4600813 C25.6629078,58.8124467 23.7593159,60.7194402 21.4111464,60.7194402 C19.062977,60.7194402 17.1593851,58.8124467 17.1593851,56.4600813 C17.1593851,54.1077159 21.4111464,47.620626 21.4111464,47.620626 C21.4111464,47.620626 25.6629078,54.1077159 25.6629078,56.4600813" id="Fill-28" fill="#F27721"/>
                <path d="M21.4114074,50.0812403 C19.956743,52.5033312 18.463798,55.3856107 18.463798,56.4602556 C18.463798,58.088347 19.7862202,59.4122606 21.4114074,59.4122606 C23.0357247,59.4122606 24.3581469,58.088347 24.3581469,56.4602556 C24.3581469,55.3856107 22.8652018,52.5033312 21.4114074,50.0812403 M21.4114074,62.0269684 C18.347216,62.0269684 15.8537541,59.5299225 15.8537541,56.4602556 C15.8537541,53.8490342 19.5748066,48.0408967 20.3204091,46.9034988 C20.5614032,46.5356966 20.9720501,46.3134465 21.4114074,46.3134465 C21.8507648,46.3134465 22.2614117,46.5356966 22.5024058,46.9034988 C23.2480083,48.0408967 26.9681907,53.8490342 26.9681907,56.4602556 C26.9681907,59.5299225 24.4747289,62.0269684 21.4114074,62.0269684" id="Fill-30" fill="#2E2E30"/>
                <path d="M42.3139433,56.4600813 C42.3139433,58.8124467 40.4103514,60.7194402 38.062182,60.7194402 C35.7140125,60.7194402 33.8104206,58.8124467 33.8104206,56.4600813 C33.8104206,54.1077159 38.062182,47.620626 38.062182,47.620626 C38.062182,47.620626 42.3139433,54.1077159 42.3139433,56.4600813" id="Fill-32" fill="#F27721"/>
                <path d="M38.062269,50.0812403 C36.6076045,52.5033312 35.1146595,55.3856107 35.1146595,56.4602556 C35.1146595,58.088347 36.4370817,59.4122606 38.062269,59.4122606 C39.6865862,59.4122606 41.0090084,58.088347 41.0090084,56.4602556 C41.0090084,55.3856107 39.5160634,52.5033312 38.062269,50.0812403 M38.062269,62.0269684 C34.9980775,62.0269684 32.5046157,59.5299225 32.5046157,56.4602556 C32.5046157,53.8490342 36.2256681,48.0408967 36.9712706,46.9034988 C37.2122647,46.5356966 37.6229116,46.3134465 38.062269,46.3134465 C38.5016263,46.3134465 38.9122732,46.5356966 39.1532673,46.9034988 C39.8988698,48.0408967 43.6190522,53.8490342 43.6190522,56.4602556 C43.6190522,59.5299225 41.1255904,62.0269684 38.062269,62.0269684" id="Fill-34" fill="#2E2E30"/>
                <path d="M35.2940565,57.0172755 C35.2940565,60.0032717 32.8780259,62.4236195 29.8973559,62.4236195 C26.9166859,62.4236195 24.5006553,60.0032717 24.5006553,57.0172755 C24.5006553,54.0312793 29.8973559,45.7984362 29.8973559,45.7984362 C29.8973559,45.7984362 35.2940565,54.0312793 35.2940565,57.0172755" id="Fill-36" fill="#F27721"/>
                <g id="Group-40" transform="translate(22.620380, 43.684881)">
                    <mask id="mask-2" fill="white">
                        <use xlink:href="#path-1"/>
                    </mask>
                    <g id="Clip-39"/>
                    <path d="M7.27706316,4.55874293 C5.31866029,7.76786088 3.18538447,11.8319883 3.18538447,13.3319589 C3.18538447,15.5928096 5.02024528,17.4318207 7.27706316,17.4318207 C9.53388105,17.4318207 11.3687418,15.5928096 11.3687418,13.3319589 C11.3687418,11.8302451 9.23546604,7.76698931 7.27706316,4.55874293 M7.27706316,20.0465284 C3.58211113,20.0465284 0.575340658,17.0343851 0.575340658,13.3319589 C0.575340658,10.1184831 5.24905912,2.8251917 6.18606485,1.39581814 C6.66892295,0.659342133 7.88520337,0.659342133 8.36806148,1.39581814 C9.30506721,2.8251917 13.9787857,10.1184831 13.9787857,13.3319589 C13.9787857,17.0343851 10.9720152,20.0465284 7.27706316,20.0465284" id="Fill-38" fill="#2E2E30" mask="url(#mask-2)"/>
                </g>
                <path d="M38.062095,56.3616811 C36.7614231,56.3616811 35.6121338,55.7646562 34.8317307,54.8425359 C33.9939067,56.7399422 32.1016249,58.065599 29.8978779,58.065599 C27.5932092,58.065599 25.6313263,56.6161793 24.8578833,54.579322 C24.0861803,55.6548385 22.8342293,56.3616811 21.4108854,56.3616811 C19.8483392,56.3616811 18.4972065,55.5075433 17.7585641,54.2498688 C17.3992481,55.1214381 17.1591241,55.906722 17.1591241,56.4601684 C17.1591241,58.8125338 19.062716,60.7195273 21.4108854,60.7195273 C22.8342293,60.7195273 24.0861803,60.0126847 24.8578833,58.9371682 C25.6313263,60.9740256 27.5932092,62.4234452 29.8978779,62.4234452 C32.1016249,62.4234452 33.9939067,61.0977884 34.8317307,59.2003821 C35.6121338,60.1225024 36.7614231,60.7195273 38.062095,60.7195273 C40.4102644,60.7195273 42.3138563,58.8125338 42.3138563,56.4601684 C42.3138563,55.906722 42.0737323,55.1214381 41.7144163,54.2498688 C40.9757739,55.5075433 39.6246412,56.3616811 38.062095,56.3616811" id="Fill-41" fill="#010202" opacity="0.3"/>
                <path d="M14.472519,11.8453233 C14.472519,13.6573157 13.0065443,15.1259099 11.197784,15.1259099 C9.38902362,15.1259099 7.92217899,13.6573157 7.92217899,11.8453233 C7.92217899,10.0333308 9.38902362,8.56473664 11.197784,8.56473664 C13.0065443,8.56473664 14.472519,10.0333308 14.472519,11.8453233" id="Fill-43" fill="#C5DA59"/>
                <path d="M11.197175,9.87156757 C10.1113967,9.87156757 9.2274619,10.7570819 9.2274619,11.8456719 C9.2274619,12.9333903 10.1113967,13.8189047 11.197175,13.8189047 C12.2838232,13.8189047 13.167758,12.9333903 13.167758,11.8456719 C13.167758,10.7570819 12.2838232,9.87156757 11.197175,9.87156757 M11.197175,16.4336124 C8.67239259,16.4336124 6.61741809,14.3749658 6.61741809,11.8456719 C6.61741809,9.31550639 8.67239259,7.25685984 11.197175,7.25685984 C13.7228274,7.25685984 15.7778019,9.31550639 15.7778019,11.8456719 C15.7778019,14.3749658 13.7228274,16.4336124 11.197175,16.4336124" id="Fill-45" fill="#2E2E30"/>
                <path d="M30.2330945,6.75745066 C30.2330945,9.28587304 28.1868202,11.3358039 25.6629078,11.3358039 C23.1389954,11.3358039 21.0927211,9.28587304 21.0927211,6.75745066 C21.0927211,4.22902828 23.1389954,2.17909742 25.6629078,2.17909742 C28.1868202,2.17909742 30.2330945,4.22902828 30.2330945,6.75745066" id="Fill-47" fill="#C5DA59"/>
                <g id="Group-51" transform="translate(19.140321, 0.106419)">
                    <mask id="mask-4" fill="white">
                        <use xlink:href="#path-3"/>
                    </mask>
                    <g id="Clip-50"/>
                    <path d="M6.5225865,3.37985837 C4.72252628,3.37985837 3.25742168,4.84758098 3.25742168,6.65085774 C3.25742168,8.45500608 4.72252628,9.92185711 6.5225865,9.92185711 C8.32264671,9.92185711 9.78775131,8.45500608 9.78775131,6.65085774 C9.78775131,4.84758098 8.32264671,3.37985837 6.5225865,3.37985837 M6.5225865,12.5365648 C3.28265211,12.5365648 0.647377868,9.8965816 0.647377868,6.65085774 C0.647377868,3.40600545 3.28265211,0.765150639 6.5225865,0.765150639 C9.76252089,0.765150639 12.3977951,3.40600545 12.3977951,6.65085774 C12.3977951,9.8965816 9.76252089,12.5365648 6.5225865,12.5365648" id="Fill-49" fill="#2E2E30" mask="url(#mask-4)"/>
                </g>
                <path d="M29.725963,19.7103641 L28.4513916,19.7103641 L14.234483,19.7103641 L12.9599116,19.7103641 L6.84109884,19.7103641 C11.1485412,19.7103641 12.9599116,26.8903516 12.9599116,26.8903516 L12.9599116,39.1803495 C12.9599116,40.7204123 14.2170827,41.9798299 15.7543985,41.9798299 C17.2908443,41.9798299 18.5488854,40.7204123 18.5488854,39.1803495 L18.5488854,28.0469239 C18.8290301,26.7988368 20.01573,25.857542 21.3433723,25.857542 C22.6701446,25.857542 23.8568445,26.7988368 24.1369892,28.0469239 L24.1369892,32.1711896 C24.1369892,33.7112525 25.3950303,34.97067 26.9314761,34.97067 C28.4687919,34.97067 29.725963,33.7112525 29.725963,32.1711896 L29.725963,26.8903516 L29.725963,26.8903516 C29.725963,26.8903516 31.5373334,19.7103641 35.8447757,19.7103641 L29.725963,19.7103641 Z" id="Fill-52" fill="#C5DA59"/>
                <path d="M11.5633641,21.017718 C13.3851747,23.3291196 14.1734079,26.3656669 14.2256088,26.5704856 C14.2517092,26.675074 14.2647595,26.782277 14.2647595,26.8903516 L14.2647595,39.1803495 C14.2647595,40.0031108 14.9329307,40.672476 15.7542245,40.672476 C16.5763883,40.672476 17.2436895,40.0031108 17.2436895,39.1803495 L17.2436895,28.0469239 C17.2436895,27.9501798 17.2549997,27.8543071 17.27501,27.7593061 C17.693487,25.9002489 19.4039357,24.5501881 21.3423283,24.5501881 C23.2815908,24.5501881 24.9929096,25.9002489 25.4105166,27.7593061 C25.4305269,27.8543071 25.4418371,27.9501798 25.4418371,28.0469239 L25.4418371,32.1711896 C25.4418371,32.993951 26.1100083,33.6633162 26.9313021,33.6633162 C27.7525959,33.6633162 28.4207671,32.993951 28.4207671,32.1711896 L28.4207671,26.8903516 C28.4207671,26.7805338 28.4346873,26.6715877 28.4616578,26.5661278 C28.5895499,26.0632323 29.3725631,23.2105862 31.096062,21.017718 L11.5633641,21.017718 Z M15.7542245,43.2871837 C13.4939265,43.2871837 11.6547156,41.4446864 11.6547156,39.1803495 L11.6547156,27.0603076 C11.1579373,25.2413426 9.45183867,21.017718 6.84092484,21.017718 C6.12055275,21.017718 5.53590293,20.432895 5.53590293,19.7103641 C5.53590293,18.9878332 6.12055275,18.4030103 6.84092484,18.4030103 L35.8446017,18.4030103 C36.5649738,18.4030103 37.1496236,18.9878332 37.1496236,19.7103641 C37.1496236,20.432895 36.5649738,21.017718 35.8446017,21.017718 C33.2328179,21.017718 31.5275893,25.2413426 31.0308109,27.0603076 L31.0308109,32.1711896 C31.0308109,34.4363981 29.1924701,36.2780239 26.9313021,36.2780239 C24.6701341,36.2780239 22.8317933,34.4363981 22.8317933,32.1711896 L22.8317933,28.2177515 C22.63691,27.6189834 22.0061494,27.1648959 21.3423283,27.1648959 C20.6793771,27.1648959 20.0494866,27.6189834 19.8537333,28.2177515 L19.8537333,39.1803495 C19.8537333,41.4446864 18.0153924,43.2871837 15.7542245,43.2871837 L15.7542245,43.2871837 Z" id="Fill-54" fill="#2E2E30"/>
            </g>
        </g>
    </g>

	
	
	<metadata>
		<rdf:RDF xmlns:rdf="http://www.w3.org/1999/02/22-rdf-syntax-ns#" xmlns:rdfs="http://www.w3.org/2000/01/rdf-schema#" xmlns:dc="http://purl.org/dc/elements/1.1/">
			<rdf:Description about="https://iconscout.com/legal#licenses" dc:title="Pot, Cauldron, Poison, Halloween, Magic, Withcraft, Potion" dc:description="Pot, Cauldron, Poison, Halloween, Magic, Withcraft, Potion" dc:publisher="Iconscout" dc:date="2016-12-14" dc:format="image/svg+xml" dc:language="en">
				<dc:creator>
					<rdf:Bag>
						<rdf:li>AomAm .</rdf:li>
					</rdf:Bag>
				</dc:creator>
			</rdf:Description>
		</rdf:RDF>
    </metadata></svg>
