<?xml version="1.0" encoding="UTF-8"?>
<svg xmlns="http://www.w3.org/2000/svg" xmlns:xlink="http://www.w3.org/1999/xlink" width="64px" height="64px" viewBox="0 0 64 64" version="1.1">
    
    <title>pumpkin</title>
    <desc>Created with Sketch.</desc>
    <defs>
        <polygon id="path-1" points="15.4640297 0.433073073 0.778843623 0.433073073 0.778843623 17.0968088 15.4640297 17.0968088 15.4640297 0.433073073"/>
        <polygon id="path-3" points="63.893361 50.8028028 0 50.8028028 0 0.443316917 63.893361 0.443316917 63.893361 50.8028028"/>
    </defs>
    <g id="SVG" stroke="none" stroke-width="1" fill="none" fill-rule="evenodd">
        <g id="Color" transform="translate(-1058.000000, -255.000000)">
            <g id="11" transform="translate(1058.000000, 256.000000)">
                <path d="M31.9484675,16.2479023 C31.6833247,16.2479023 31.4123636,16.2154218 31.1430649,16.1479624 C29.3651948,15.7040625 28.2796883,13.9043107 28.7193766,12.1203828 C29.1332987,10.440559 31.4988052,2.08224865 37.4665974,2.08224865 L37.5156364,2.08224865 C39.3516883,2.09640681 40.8286753,3.59883724 40.8145455,5.43856496 C40.8004156,7.22582422 39.3849351,8.67412052 37.6211948,8.74241281 C36.8889351,9.21629469 35.7011948,11.6198503 35.1725714,13.7252517 C34.7935584,15.2368432 33.4379221,16.2479023 31.9484675,16.2479023" id="Fill-1" fill="#9AA63C"/>
                <g id="Group-5" transform="translate(26.597403, 0.400176)">
                    <mask id="mask-2" fill="white">
                        <use xlink:href="#path-1"/>
                    </mask>
                    <g id="Clip-4"/>
                    <path d="M10.9090909,2.93115516 C5.72176623,2.93115516 3.56238961,11.0895856 3.33298701,12.019027 C3.05953247,13.130026 3.7385974,14.2593473 4.84737662,14.5366807 C5.94618182,14.8073514 7.09153247,14.1144344 7.36581818,13.0200921 C7.82545455,11.192024 9.09049351,8.10721121 10.3472208,7.2927007 C10.5358961,7.17110711 10.7528312,7.10281481 10.9764156,7.09365365 C12.086026,7.05034635 12.9620779,6.14339139 12.9703896,5.02906106 C12.9795325,3.88141742 12.0544416,2.94031632 10.9090909,2.93115516 M5.35106494,17.0968088 C4.97787013,17.0968088 4.60550649,17.051003 4.24311688,16.9602242 C1.80446753,16.3505906 0.309194805,13.8654174 0.912623377,11.4193874 C1.36477922,9.58548949 3.96966234,0.432656657 10.8691948,0.432656657 C13.4483117,0.450978979 15.483013,2.52223423 15.4638961,5.04821622 C15.4464416,7.33517518 13.7666494,9.22570571 11.5582338,9.54551351 C11.1202078,10.1051772 10.2424935,11.8024905 9.78451948,13.6297257 C9.27251948,15.670999 7.44976623,17.0968088 5.35106494,17.0968088" id="Fill-3" fill="#2E2E30" mask="url(#mask-2)"/>
                </g>
                <path d="M38.311813,2.19534735 C38.2519688,3.94096496 36.8622545,5.34345546 35.1276052,5.41091491 C34.3953455,5.8847968 33.2076052,8.28918519 32.6789818,10.3937538 C32.2999688,11.9053453 30.9443325,12.9164044 29.4548779,12.9164044 C29.1897351,12.9164044 28.9196052,12.8847568 28.6494753,12.8172973 C28.6411636,12.8147988 28.6345143,12.8106346 28.6253714,12.8081361 C28.5730078,14.3455455 29.5945143,15.7613614 31.1429818,16.1486286 C31.4131117,16.2160881 31.6832416,16.2477357 31.9483844,16.2477357 C33.437839,16.2477357 34.7934753,15.2366767 35.1724883,13.7250851 C35.7011117,11.6205165 36.8888519,9.21612813 37.6211117,8.74224625 C39.3848519,8.67395395 40.8011636,7.22649049 40.8144623,5.43923123 C40.8260987,3.876004 39.7580468,2.56595796 38.311813,2.19534735" id="Fill-6" fill="#010202" opacity="0.3"/>
                <path d="M53.4004364,20.9290891 C53.0247481,20.9290891 52.6781506,21.0032112 52.3440208,21.1106466 C49.7956571,17.1655175 46.4851117,14.7144905 43.5303065,14.7144905 C42.0084364,14.7144905 40.7334234,15.3690971 39.6770078,16.5375616 C37.5234494,13.6792793 34.8470857,12.0869029 31.9471377,12.0869029 C29.0463584,12.0869029 26.3699948,13.6792793 24.2164364,16.5375616 C23.1600208,15.3690971 21.8850078,14.7144905 20.3631377,14.7144905 C17.4083325,14.7144905 14.097787,17.1655175 11.5494234,21.1106466 C11.2152935,21.0032112 10.8686961,20.9290891 10.4930078,20.9290891 C6.36126753,20.9290891 1.24625455,27.6841962 1.24625455,36.0175215 C1.24625455,44.350014 6.36126753,51.1051211 10.4930078,51.1051211 C10.8686961,51.1051211 11.2152935,51.030999 11.5494234,50.9235636 C14.097787,54.8686927 17.4083325,57.3197197 20.3631377,57.3197197 C21.8850078,57.3197197 23.1600208,56.6651131 24.2164364,55.4966486 C26.3699948,58.3549309 29.0463584,59.9473073 31.9471377,59.9473073 C34.8470857,59.9473073 37.5234494,58.3549309 39.6770078,55.4966486 C40.7334234,56.6651131 42.0084364,57.3197197 43.5303065,57.3197197 C46.4851117,57.3197197 49.7956571,54.8686927 52.3440208,50.9235636 C52.6781506,51.030999 53.0247481,51.1051211 53.4004364,51.1051211 C57.5321766,51.1051211 62.6471896,44.350014 62.6471896,36.0175215 C62.6471896,27.6841962 57.5321766,20.9290891 53.4004364,20.9290891" id="Fill-8" fill="#F27721"/>
                <g id="Group-12" transform="translate(0.000000, 10.394170)">
                    <mask id="mask-4" fill="white">
                        <use xlink:href="#path-3"/>
                    </mask>
                    <g id="Clip-11"/>
                    <path d="M24.2166857,43.8530627 C24.2349714,43.8530627 24.2540883,43.8538955 24.272374,43.8547283 C24.6439065,43.8705522 24.9880104,44.0521097 25.2115948,44.3502639 C27.1615169,46.9370426 29.4904519,48.3045542 31.9465558,48.3045542 C34.4034909,48.3045542 36.732426,46.9370426 38.6815169,44.3502639 C38.9059325,44.0521097 39.2500364,43.8705522 39.6215688,43.8547283 C39.9689974,43.8339075 40.3521662,43.9879816 40.6015169,44.2636492 C41.4601143,45.2147443 42.4176208,45.6761337 43.5297247,45.6761337 C45.9999584,45.6761337 48.9755429,43.4441417 51.2978286,39.8496352 C51.6036987,39.3749205 52.1921662,39.1658795 52.7282701,39.3407744 C52.983439,39.4240577 53.1970494,39.462368 53.3998545,39.462368 C56.5466597,39.462368 61.3998545,33.5192729 61.3998545,25.622352 C61.3998545,17.7262639 56.5466597,11.7840016 53.3998545,11.7840016 C53.1970494,11.7840016 52.9826078,11.8223119 52.7257766,11.9055952 C52.1913351,12.0796573 51.6036987,11.8706162 51.2978286,11.3950687 C48.976374,7.80222783 45.9999584,5.569403 43.5297247,5.569403 C42.4176208,5.569403 41.4601143,6.03162523 40.6015169,6.98272032 C40.3521662,7.25838799 39.9706597,7.4082979 39.6215688,7.39164124 C39.2500364,7.37498458 38.9059325,7.19342703 38.6815169,6.89610571 C36.732426,4.30932693 34.4034909,2.94181542 31.9465558,2.94181542 C29.4904519,2.94181542 27.1615169,4.30932693 25.2115948,6.89610571 C24.9880104,7.19342703 24.6439065,7.37498458 24.272374,7.39164124 C23.8925299,7.40663223 23.5417766,7.25838799 23.2932571,6.98272032 C22.4329974,6.03162523 21.4746597,5.569403 20.363387,5.569403 C17.8939844,5.569403 14.9175688,7.80222783 12.5961143,11.3950687 C12.289413,11.8706162 11.7017766,12.0788244 11.1681662,11.9055952 C10.9105039,11.8223119 10.6952312,11.7840016 10.492426,11.7840016 C7.34562078,11.7840016 2.49325714,17.7262639 2.49325714,25.622352 C2.49325714,33.5192729 7.34562078,39.462368 10.492426,39.462368 C10.6960623,39.462368 10.9096727,39.4240577 11.1656727,39.3407744 C11.7017766,39.1658795 12.289413,39.3749205 12.5961143,39.8496352 C14.9175688,43.4441417 17.8939844,45.6761337 20.363387,45.6761337 C21.4746597,45.6761337 22.4329974,45.2147443 23.2932571,44.2636492 C23.5301403,44.0021397 23.8651013,43.8530627 24.2166857,43.8530627 M31.9465558,50.8030527 C29.0540883,50.8030527 26.359439,49.4638575 24.0886857,46.9137233 C22.9848935,47.752386 21.7364779,48.1746322 20.363387,48.1746322 C17.1974649,48.1746322 13.7373091,45.8560256 10.9886338,41.9300517 C10.8224,41.9508725 10.6569974,41.9608665 10.492426,41.9608665 C5.64006234,41.9608665 -0.000249350649,34.8234891 -0.000249350649,25.622352 C-0.000249350649,16.4212148 5.64006234,9.2855031 10.492426,9.2855031 C10.6569974,9.2855031 10.8215688,9.2954971 10.9886338,9.31548509 C13.7364779,5.38951111 17.1966338,3.0709045 20.363387,3.0709045 C21.7364779,3.0709045 22.9848935,3.49398358 24.0886857,4.33264625 C26.359439,1.78167928 29.0540883,0.443316917 31.9465558,0.443316917 C34.8381922,0.443316917 37.5328416,1.78167928 39.8052571,4.33181341 C40.9082182,3.49398358 42.1566338,3.0709045 43.5297247,3.0709045 C46.6973091,3.0709045 50.1574649,5.38867828 52.9053091,9.31548509 C53.072374,9.2954971 53.2361143,9.2855031 53.3998545,9.2855031 C58.2522182,9.2855031 63.893361,16.4212148 63.893361,25.622352 C63.893361,34.8234891 58.2522182,41.9608665 53.3998545,41.9608665 C53.2361143,41.9608665 53.0715429,41.9508725 52.9053091,41.9300517 C50.1566338,45.8560256 46.6964779,48.1746322 43.5297247,48.1746322 C42.1566338,48.1746322 40.9082182,47.752386 39.8052571,46.9145562 C37.5328416,49.4638575 34.8381922,50.8030527 31.9465558,50.8030527" id="Fill-10" fill="#2E2E30" mask="url(#mask-4)"/>
                </g>
                <path d="M59.1629299,24.7745281 C59.778826,26.6792168 60.1536831,28.7896152 60.1536831,31.0199415 C60.1536831,39.3532669 55.0386701,46.108374 50.9069299,46.108374 C50.5312416,46.108374 50.1846442,46.0342519 49.8505143,45.9268164 C47.3021506,49.8719455 43.9916052,52.3229726 41.0368,52.3229726 C39.5149299,52.3229726 38.2399169,51.668366 37.1835013,50.4990687 C35.0299429,53.357351 32.3535792,54.9505602 29.4528,54.9505602 C26.5528519,54.9505602 23.8764883,53.357351 21.7229299,50.4990687 C20.6665143,51.668366 19.3915013,52.3229726 17.8696312,52.3229726 C14.914826,52.3229726 11.6042805,49.8719455 9.05591688,45.9268164 C8.72178701,46.0342519 8.37518961,46.108374 7.9995013,46.108374 C6.08615065,46.108374 3.96667013,44.6467524 2.23700779,42.2631848 C3.92261818,47.4750527 7.46755325,51.105371 10.4930078,51.105371 C10.8686961,51.105371 11.2152935,51.0312488 11.5494234,50.9238134 C14.097787,54.8689425 17.4083325,57.3199696 20.3631377,57.3199696 C21.8850078,57.3199696 23.1600208,56.665363 24.2164364,55.4960657 C26.3699948,58.3543479 29.0463584,59.9475572 31.9463065,59.9475572 C34.8470857,59.9475572 37.5234494,58.3543479 39.6770078,55.4960657 C40.7334234,56.665363 42.0084364,57.3199696 43.5303065,57.3199696 C46.4851117,57.3199696 49.7956571,54.8689425 52.3440208,50.9238134 C52.6781506,51.0312488 53.0247481,51.105371 53.4004364,51.105371 C57.5321766,51.105371 62.6471896,44.3502639 62.6471896,36.0169385 C62.6471896,31.5437934 61.1677091,27.5378675 59.1629299,24.7745281" id="Fill-13" fill="#010202" opacity="0.3"/>
                <path d="M9.42437403,25.643839 C9.42437403,25.643839 10.561413,21.9069181 13.8461922,18.1699972" id="Fill-15" fill="#FEFEFE"/>
                <path d="M9.42528831,26.893005 C9.30393766,26.893005 9.18175584,26.8755155 9.06123636,26.8388709 C8.40295065,26.6373253 8.03058701,25.9385786 8.23172987,25.2798078 C8.2816,25.1157397 9.48679481,21.2397357 12.9103792,17.3445766 C13.3658597,16.8273874 14.1521455,16.7765846 14.6707948,17.2321441 C15.1877818,17.6885365 15.2368208,18.4780621 14.7821714,18.9960841 C11.7110026,22.4898178 10.6271584,25.9735576 10.6171844,26.0085365 C10.452613,26.5465465 9.95972987,26.893005 9.42528831,26.893005" id="Fill-17" fill="#2E2E30"/>
                <path d="M24.2165195,16.5378947 C24.2165195,16.5378947 22.628987,19.2504312 21.5052468,22.9290539" id="Fill-19" fill="#FEFEFE"/>
                <path d="M21.5056623,24.1782198 C21.3843117,24.1782198 21.2612987,24.1607303 21.1399481,24.1240857 C20.4816623,23.9208745 20.110961,23.2229606 20.3121039,22.563357 C21.4665974,18.7881257 23.0732468,16.0214551 23.1414026,15.9056913 C23.4896623,15.3118815 24.2543377,15.1128344 24.846961,15.4601257 C25.4404156,15.8082498 25.6398961,16.5736232 25.2924675,17.1690987 C25.2775065,17.1949165 23.7614545,19.8133429 22.6975584,23.2945842 C22.5321558,23.8325942 22.0392727,24.1782198 21.5056623,24.1782198" id="Fill-21" fill="#2E2E30"/>
                <path d="M54.4691532,25.643839 C54.4691532,25.643839 53.3321143,21.9069181 50.0473351,18.1699972" id="Fill-23" fill="#FEFEFE"/>
                <path d="M54.4683221,26.893005 C53.9347117,26.893005 53.4418286,26.5473794 53.276426,26.0093694 C53.2589714,25.9502382 52.1501922,22.4523403 49.111439,18.9960841 C48.6567896,18.4780621 48.7058286,17.6885365 49.2228156,17.2321441 C49.7406338,16.7765846 50.5277506,16.8273874 50.9832312,17.3445766 C54.4068156,21.2397357 55.6120104,25.1157397 55.6618805,25.2798078 C55.8630234,25.9385786 55.4906597,26.6373253 54.832374,26.8388709 C54.7118545,26.8755155 54.5896727,26.893005 54.4683221,26.893005" id="Fill-25" fill="#2E2E30"/>
                <path d="M39.6769247,16.5378947 C39.6769247,16.5378947 41.2644571,19.2504312 42.3881974,22.9290539" id="Fill-27" fill="#FEFEFE"/>
                <path d="M42.3879481,24.1782198 C41.8543377,24.1782198 41.3614545,23.8325942 41.1960519,23.2945842 C40.1271688,19.7966863 38.6169351,17.1957493 38.6011429,17.1699315 C38.2528831,16.5744561 38.4523636,15.8090827 39.0458182,15.4601257 C39.6384416,15.1111688 40.4039481,15.3102158 40.7522078,15.9056913 C40.8203636,16.0214551 42.427013,18.7881257 43.5815065,22.563357 C43.7826494,23.2229606 43.4119481,23.9208745 42.7536623,24.1240857 C42.6323117,24.1607303 42.5092987,24.1782198 42.3879481,24.1782198" id="Fill-29" fill="#2E2E30"/>
                <path d="M15.3929974,27.3398198 L26.4034909,29.8274915 C26.4034909,29.8274915 20.8529455,41.732004 15.3929974,27.3398198" id="Fill-31" fill="#86391C"/>
                <path d="M17.4877922,29.093849 C19.1335065,32.551771 20.5074286,33.1730643 21.2413506,33.2022134 C21.2604675,33.2030462 21.2804156,33.2030462 21.3011948,33.2030462 C22.4939221,33.2030462 23.689974,31.8530242 24.4795844,30.6729001 L17.4877922,29.093849 Z M21.3045195,35.7015447 C21.252987,35.7015447 21.2022857,35.7007119 21.1507532,35.6990462 C18.4743896,35.5999391 16.2102857,33.0106619 14.2271169,27.783803 C14.0642078,27.3532284 14.1498182,26.8685197 14.4515325,26.5203956 C14.7515844,26.1731043 15.2195325,26.0173646 15.6675325,26.1214687 L26.678026,28.6091403 C27.0454026,28.6924236 27.3562597,28.9381093 27.5224935,29.2779051 C27.6887273,29.6168681 27.6920519,30.0132965 27.5332987,30.3564236 C27.2748052,30.9102575 24.9350649,35.7015447 21.3045195,35.7015447 L21.3045195,35.7015447 Z" id="Fill-33" fill="#2E2E30"/>
                <path d="M48.5004468,27.3398198 L37.4899532,29.8274915 C37.4899532,29.8274915 43.0404987,41.732004 48.5004468,27.3398198" id="Fill-35" fill="#86391C"/>
                <path d="M39.4139429,30.6733165 C40.2035532,31.8526078 41.3996052,33.2026298 42.5923325,33.2026298 C42.6131117,33.2026298 42.6330597,33.2026298 42.6521766,33.201797 C43.3860987,33.1734807 44.7600208,32.5521874 46.4057351,29.0942655 L39.4139429,30.6733165 Z M42.5890078,35.7011283 C38.9584623,35.7011283 36.6187221,30.909841 36.3602286,30.3560072 C36.2014753,30.0137129 36.2048,29.6164517 36.3710338,29.2774887 C36.5372675,28.9376929 36.8481247,28.6920072 37.2155013,28.6087239 L48.226826,26.1210523 C48.6764883,26.0169481 49.1419429,26.1735207 49.4419948,26.520812 C49.7437091,26.8689361 49.8293195,27.3536448 49.6664104,27.7833866 C47.6832416,33.0110783 45.4191377,35.5995227 42.742774,35.6986298 C42.6912416,35.7002955 42.6405403,35.7011283 42.5890078,35.7011283 L42.5890078,35.7011283 Z" id="Fill-37" fill="#2E2E30"/>
                <path d="M44.7118961,40.9607175 L42.2217143,38.4588877 L39.8861299,41.2089017 L36.1358961,38.9627516 L32.379013,42.0725493 L28.6221299,38.9627516 L24.8718961,41.2089017 L22.5363117,38.4588877 L20.0461299,40.9607175 C20.0461299,40.9607175 16.8502857,39.2950519 12.4999481,36.0878126 C12.4999481,36.0878126 15.0782338,43.5883051 20.5257143,46.4865634 L22.2262857,44.4927616 C22.2262857,44.4927616 22.8604675,46.8746635 25.6905974,47.9473522 L26.8999481,48.252169 L28.174961,44.9175063 L32.379013,48.252169 L36.5830649,44.9175063 L37.8580779,48.252169 L39.0674286,47.9473522 C41.8975584,46.8746635 42.5317403,44.4927616 42.5317403,44.4927616 L44.2323117,46.4865634 C49.6797922,43.5883051 52.2580779,36.0878126 52.2580779,36.0878126 C47.9069091,39.2950519 44.7118961,40.9607175 44.7118961,40.9607175" id="Fill-39" fill="#86391C"/>
                <path d="M36.5828156,43.6675908 C36.693361,43.6675908 36.8039065,43.6825818 36.9119584,43.7125638 C37.2951273,43.8175007 37.6043221,44.0989982 37.7464519,44.4704416 L38.6266597,46.7707259 L38.6898286,46.7540693 C40.7918545,45.9270663 41.3096727,44.2289201 41.3312831,44.1564637 C41.4592831,43.7167279 41.8208416,43.3736008 42.2680104,43.277825 C42.7151792,43.1845477 43.1806338,43.3319592 43.4798545,43.6809161 L44.496374,44.8735327 C46.455439,43.5651524 47.9756468,41.5980012 49.0594909,39.8174046 C46.8169974,41.2665337 45.3765818,42.0227459 45.2876468,42.0693846 C44.8072312,42.3192344 44.215439,42.2309542 43.8289455,41.8436869 L42.2946078,40.3012805 L40.8359065,42.0185818 C40.4411013,42.4833025 39.7686857,42.5949021 39.2467117,42.2809241 L36.2520104,40.487835 L33.1725299,43.0354707 C32.7120623,43.4177409 32.0462961,43.4177409 31.5849974,43.0354707 L28.5063481,40.487835 L25.5116468,42.2809241 C24.9905039,42.5949021 24.3172571,42.4833025 23.9224519,42.0185818 L22.4637506,40.3012805 L20.929413,41.8436869 C20.5429195,42.2309542 19.9519584,42.3200673 19.4707117,42.0693846 C19.3817766,42.0227459 17.9405299,41.2665337 15.6988675,39.8174046 C16.7827117,41.5980012 18.3029195,43.5651524 20.2611532,44.8735327 L21.2785039,43.6809161 C21.579387,43.3286278 22.0506597,43.1695568 22.5028156,43.2736609 C22.9549714,43.3760993 23.3115429,43.7217249 23.4312312,44.1706218 C23.4486857,44.229753 23.9648416,45.9278991 26.0685299,46.7540693 L26.1316987,46.7707259 L27.0110753,44.4704416 C27.1532052,44.0989982 27.4624,43.8175007 27.8455688,43.7125638 C28.2287377,43.6076268 28.6376727,43.6900773 28.949361,43.9374286 L32.3787636,46.6591263 L35.8081662,43.9374286 C36.0317506,43.7600352 36.3052052,43.6675908 36.5828156,43.6675908 M37.8569974,49.5015848 C37.3516468,49.5015848 36.8820364,49.191771 36.6941922,48.6987339 L36.0259325,46.9522835 L33.153413,49.2317469 C32.6987636,49.5906979 32.0595948,49.5906979 31.6049455,49.2317469 L28.732426,46.9522835 L28.0641662,48.6987339 C27.8380883,49.2900452 27.2039065,49.6140172 26.5954909,49.4641073 L25.3861403,49.1592905 C25.340426,49.146798 25.2947117,49.1326398 25.2498286,49.1159832 C23.6548156,48.5105137 22.6324779,47.5502575 21.9924779,46.6899411 L21.4738286,47.2979091 C21.0948156,47.7434747 20.4598026,47.8659011 19.9419844,47.5902334 C14.1262961,44.4962595 11.4333091,36.8192064 11.3211013,36.4944016 C11.1440623,35.9780452 11.3219325,35.4050563 11.7616208,35.0810843 C12.2013091,34.7579451 12.8005818,34.7579451 13.2386078,35.0810843 C16.2008935,37.2656048 18.6337247,38.7297249 19.8272831,39.4126478 L21.653361,37.5770843 C21.899387,37.3297329 22.2276987,37.1889842 22.5859325,37.2106378 C22.9341922,37.224796 23.2608416,37.3838671 23.4860883,37.6495407 L25.1367896,39.5942054 L27.9818805,37.8902294 C28.4348675,37.6195588 29.008374,37.6628661 29.4156468,37.9993305 L32.3787636,40.4528561 L35.3427117,37.9993305 C35.7491532,37.6620332 36.3234909,37.6187259 36.7756468,37.8902294 L39.6207377,39.5942054 L41.2722701,37.6495407 C41.4975169,37.3838671 41.8241662,37.224796 42.172426,37.2106378 C42.5398026,37.1906498 42.8581403,37.3305658 43.1049974,37.5770843 L44.9310753,39.4126478 C46.1238026,38.7297249 48.5574649,37.2656048 51.5197506,35.0810843 C51.9577766,34.7579451 52.5570494,34.7579451 52.9967377,35.0810843 C53.4355948,35.4050563 53.6142961,35.9780452 53.436426,36.4944016 C53.3250494,36.8192064 50.6312312,44.4962595 44.816374,47.5902334 C44.3002182,47.8659011 43.664374,47.7434747 43.2845299,47.2979091 L42.7650494,46.6899411 C42.1258805,47.5502575 41.1027117,48.5105137 39.509361,49.1159832 C39.4636468,49.1326398 39.4179325,49.146798 39.371387,49.1592905 L38.1620364,49.4641073 C38.0606338,49.4890923 37.9584,49.5015848 37.8569974,49.5015848" id="Fill-41" fill="#2E2E30"/>
            </g>
        </g>
    </g>

	
	
	<metadata>
		<rdf:RDF xmlns:rdf="http://www.w3.org/1999/02/22-rdf-syntax-ns#" xmlns:rdfs="http://www.w3.org/2000/01/rdf-schema#" xmlns:dc="http://purl.org/dc/elements/1.1/">
			<rdf:Description about="https://iconscout.com/legal#licenses" dc:title="Pumpkin, Halloween, Spooky, Scary" dc:description="Pumpkin, Halloween, Spooky, Scary" dc:publisher="Iconscout" dc:date="2016-12-14" dc:format="image/svg+xml" dc:language="en">
				<dc:creator>
					<rdf:Bag>
						<rdf:li>AomAm .</rdf:li>
					</rdf:Bag>
				</dc:creator>
			</rdf:Description>
		</rdf:RDF>
    </metadata></svg>
