<?xml version="1.0" encoding="UTF-8"?>
<svg xmlns="http://www.w3.org/2000/svg" xmlns:xlink="http://www.w3.org/1999/xlink" width="64px" height="64px" viewBox="0 0 64 64" version="1.1">
    
    <title>zombie</title>
    <desc>Created with Sketch.</desc>
    <defs>
        <polygon id="path-1" points="32.9969223 0.67072 0.100670389 0.67072 0.100670389 63.1464107 32.9969223 63.1464107"/>
    </defs>
    <g id="SVG" stroke="none" stroke-width="1" fill="none" fill-rule="evenodd">
        <g id="Color" transform="translate(-969.000000, -255.000000)">
            <g id="10" transform="translate(972.000000, 255.000000)">
                <path d="M11.9174118,62.0497067 L55.7115902,62.0497067 L11.9174118,62.0497067 Z" id="Fill-1" fill="#FEFEFE"/>
                <g id="Group-53" transform="translate(0.000000, 0.182528)">
                    <path d="M55.7122727,63.1466667 L11.9172412,63.1466667 C11.2108422,63.1466667 10.6375328,62.5732267 10.6375328,61.8666667 C10.6375328,61.1601067 11.2108422,60.5866667 11.9172412,60.5866667 L55.7122727,60.5866667 C56.4186717,60.5866667 56.991981,61.1601067 56.991981,61.8666667 C56.991981,62.5732267 56.4186717,63.1466667 55.7122727,63.1466667" id="Fill-2" fill="#2E2E30"/>
                    <path d="M7.35746975,61.8669227 L1.27970833,61.8669227" id="Fill-4" fill="#FEFEFE"/>
                    <path d="M7.35746975,63.1466667 L1.27970833,63.1466667 C0.573309331,63.1466667 0,62.5732267 0,61.8666667 C0,61.1601067 0.573309331,60.5866667 1.27970833,60.5866667 L7.35746975,60.5866667 C8.06386875,60.5866667 8.63717808,61.1601067 8.63717808,61.8666667 C8.63717808,62.5732267 8.06386875,63.1466667 7.35746975,63.1466667" id="Fill-6" fill="#2E2E30"/>
                    <path d="M33.056999,19.4601813 C33.056999,19.4601813 33.2847871,17.6767147 33.056999,17.9839147 L34.3921613,13.238528 L34.8426187,13.3119147 C34.9961837,13.3375147 35.1480424,13.343488 35.299048,13.343488 L33.056999,19.4601813 Z M46.964016,22.147328 L44.5982618,19.9218347 L44.5786396,19.963648 C44.3320825,19.7289813 44.0368964,19.538688 43.6956409,19.4200747 C42.4022823,18.9669547 40.9732747,19.6555947 40.5202579,20.9501013 L37.7833884,25.7791147 L37.8132483,22.7984213 L37.7833884,22.677248 L37.7833884,21.328128 L39.3318355,16.907008 C40.4298252,17.626368 41.7914349,17.6323413 42.6155671,16.8242347 C43.5941174,15.8642347 43.4524963,14.1183147 42.3016119,12.944128 L39.9358578,10.7186347 L39.9162356,10.7595947 C39.6688253,10.5257813 39.3736393,10.335488 39.0332369,10.2168747 C38.6211708,10.0726613 38.1971608,10.0555947 37.7936261,10.125568 C37.479671,9.25943467 36.6802798,8.561408 35.649688,8.392448 L33.3939888,8.12450133 C33.3470662,8.108288 33.3052624,8.08439467 33.2566335,8.07074133 C31.9368276,7.69954133 30.5538895,8.47607467 30.1836272,9.79618133 L27.7026993,18.627328 L27.7120839,18.6290347 C27.6190917,18.891008 27.5585189,19.167488 27.5585189,19.4601813 L27.5585189,4.52343467 C27.5585189,3.108608 26.4366412,1.95063467 25.0665002,1.95063467 C23.695506,1.95063467 22.5744815,3.108608 22.5744815,4.52343467 L22.5744815,21.6626347 C22.5744815,20.291328 21.4526039,19.1691947 20.0824628,19.1691947 C18.7114686,19.1691947 17.5904441,20.291328 17.5904441,21.6626347 L17.5904441,40.4880213 L17.5904441,40.9078613 L17.6049475,40.8745813 C17.7218275,44.5097813 19.4664965,47.744768 22.1257304,49.8431147 L22.1257304,61.8665813 L37.49844,61.8665813 L37.49844,49.9890347 C40.3624273,47.824128 42.2290951,44.3689813 42.2290951,40.4880213 L42.2290951,29.3989547 L43.7536543,25.9378347 C44.8857696,26.827008 46.393266,26.896128 47.2779711,26.0274347 C48.2565214,25.0674347 48.1157534,23.3215147 46.964016,22.147328 L46.964016,22.147328 Z" id="Fill-8" fill="#9AA63C"/>
                    <g id="Group-12" transform="translate(16.209639, 0.000000)">
                        <mask id="mask-2" fill="white">
                            <use xlink:href="#path-1"/>
                        </mask>
                        <g id="Clip-11"/>
                        <path d="M16.8477867,20.7400107 C16.7471163,20.7400107 16.6455928,20.728064 16.5440693,20.7033173 C15.9110402,20.548864 15.4947084,19.9438507 15.5774629,19.2978773 C15.615001,19.0085973 15.645714,18.690304 15.6593642,18.462464 C15.5569876,18.206464 15.5365122,17.9180373 15.6158542,17.6372907 L16.9518697,12.891904 C17.1276163,12.2638507 17.7478482,11.8687573 18.3919681,11.975424 L18.8407192,12.049664 C18.9251799,12.0633173 19.0113469,12.0633173 19.0966608,12.0641707 C19.5138457,12.0667307 19.9028771,12.2715307 20.1409028,12.6145707 C20.3789286,12.9567573 20.4343826,13.393664 20.2910553,13.785344 L18.0481531,19.901184 C17.8604626,20.4140373 17.3733203,20.7400107 16.8477867,20.7400107 L16.8477867,20.7400107 Z M23.8819168,18.6100907 L23.4869135,19.737344 C23.7445615,19.3337173 24.0781388,18.9838507 24.4722889,18.7048107 C24.2752139,18.687744 24.0781388,18.6561707 23.8819168,18.6100907 L23.8819168,18.6100907 Z M7.1962265,60.5864107 L20.0086663,60.5864107 L20.0086663,49.988864 C20.0086663,49.5877973 20.19721,49.2097707 20.5171371,48.9682773 C23.1610145,46.9689173 24.7401745,43.798784 24.7401745,40.4878507 L24.7401745,29.398784 C24.7401745,29.2212907 24.7768595,29.045504 24.8485232,28.8833707 L26.3722292,25.4213973 C26.5317662,25.059584 26.849987,24.7916373 27.2330464,24.696064 C27.6126932,24.5979307 28.0221998,24.685824 28.3335955,24.9307307 C28.9649183,25.4265173 29.773694,25.5041707 30.1721098,25.1141973 C30.6293923,24.665344 30.4809461,23.7096107 29.8573016,23.060224 L27.7517548,21.0796373 C27.6579095,21.0309973 27.5691831,20.968704 27.4898412,20.8936107 C27.3610172,20.7707307 27.2176899,20.681984 27.0641249,20.628224 C26.4336552,20.4097707 25.7392002,20.7417173 25.5190903,21.3723307 C25.4943493,21.444864 25.46193,21.5148373 25.4243919,21.5813973 L22.6866692,26.411264 C22.4000146,26.9172907 21.8028174,27.1681707 21.2405988,27.015424 C20.676674,26.8635307 20.2876427,26.3489707 20.2936147,25.766144 L20.3226214,22.9492907 C20.3038523,22.8596907 20.2936147,22.7692373 20.2936147,22.6779307 L20.2936147,21.3279573 C20.2936147,21.1845973 20.3175026,21.0412373 20.3652783,20.904704 L21.9137254,16.4844373 C22.0451088,16.112384 22.3385886,15.8213973 22.7114103,15.695104 C23.0825257,15.569664 23.4937386,15.620864 23.8230502,15.8367573 C24.4373102,16.2386773 25.1454155,16.268544 25.5088527,15.910144 C25.7758852,15.649024 25.7878291,15.270144 25.7716195,15.067904 C25.7374939,14.637824 25.5207966,14.189824 25.1778348,13.8408107 L23.0902039,11.8772907 C22.9946524,11.8277973 22.9059259,11.7637973 22.8248777,11.688704 C22.6977601,11.5675307 22.5544327,11.478784 22.4008677,11.425024 C22.2208554,11.3618773 22.0203678,11.3499307 21.8028174,11.3857707 C21.1919699,11.4958507 20.5922133,11.1442773 20.381488,10.5614507 C20.2100071,10.091264 19.7706405,9.74395733 19.2323099,9.656064 L17.033771,9.39579733 C16.9399257,9.384704 16.849493,9.364224 16.7599134,9.33265067 C16.7394381,9.325824 16.6925154,9.30705067 16.6549773,9.29169067 C16.0176826,9.13979733 15.381241,9.51611733 15.2054944,10.142464 L12.7663703,18.8276907 C12.7535732,18.9061973 12.7348041,18.9829973 12.7075037,19.058944 C12.6546091,19.2082773 12.6290149,19.3388373 12.6290149,19.4600107 C12.6290149,20.1665707 12.0557056,20.7400107 11.3493066,20.7400107 C10.6429076,20.7400107 10.0695983,20.1665707 10.0695983,19.4600107 L10.0695983,4.523264 C10.0695983,3.81073067 9.52529566,3.230464 8.85643477,3.230464 C8.18842703,3.230464 7.64412442,3.81073067 7.64412442,4.523264 L7.64412442,21.662464 C7.64412442,22.369024 7.07081508,22.942464 6.36441609,22.942464 C5.65801709,22.942464 5.08470776,22.369024 5.08470776,21.662464 C5.08470776,20.994304 4.54040515,20.4498773 3.8723974,20.4498773 C3.20438965,20.4498773 2.66008705,20.994304 2.66008705,21.662464 L2.66008705,40.680704 C2.6677653,40.7310507 2.67288413,40.7813973 2.67459041,40.834304 C2.7752608,43.9771307 4.24607223,46.8946773 6.70823106,48.8385707 C7.01706734,49.0809173 7.1962265,49.451264 7.1962265,49.842944 L7.1962265,60.5864107 Z M21.2883746,63.1464107 L5.91651817,63.1464107 C5.20926604,63.1464107 4.63680984,62.5729707 4.63680984,61.8664107 L4.63680984,50.4453973 C1.93491899,48.0953173 0.307983138,44.756224 0.126264555,41.1611307 C0.110054916,41.0792107 0.100670389,40.9938773 0.100670389,40.9076907 L0.100670389,21.662464 C0.100670389,19.5828907 1.79329794,17.8898773 3.8723974,17.8898773 C4.29640743,17.8898773 4.70420782,17.9598507 5.08470776,18.0904107 L5.08470776,4.523264 C5.08470776,2.39931733 6.77648217,0.670464 8.85643477,0.670464 C10.9363874,0.670464 12.6290149,2.39931733 12.6290149,4.523264 L12.6290149,9.850624 L12.7416293,9.45041067 C13.3047009,7.446784 15.3923318,6.28027733 17.3929425,6.83835733 C17.4176835,6.845184 17.4560747,6.857984 17.4961723,6.873344 L19.5906282,7.121664 C20.7466314,7.31025067 21.7251817,7.93147733 22.3368823,8.816384 C22.6474249,8.84113067 22.9511423,8.90513067 23.2463284,9.008384 C23.6208563,9.13979733 23.9697901,9.32923733 24.2863047,9.57329067 C24.4014784,9.62705067 24.5081208,9.69787733 24.6036723,9.78577067 L26.9685733,12.011264 C27.771377,12.8287573 28.2397503,13.8280107 28.3225047,14.860544 C28.4129375,15.9647573 28.0401158,17.0143573 27.3012975,17.737984 C27.2006271,17.837824 27.0948379,17.9291307 26.9839298,18.0136107 C27.2953255,18.040064 27.6058681,18.1057707 27.9087324,18.211584 C28.2832603,18.342144 28.6321941,18.5324373 28.9495618,18.7764907 C29.0638824,18.8302507 29.1705248,18.9010773 29.2652232,18.9889707 L31.6309773,21.2153173 C31.6437744,21.2264107 31.6557184,21.2392107 31.6685154,21.2511573 C33.3167798,22.9313707 33.4490163,25.484544 31.9654078,26.941184 C30.9757667,27.9122773 29.5254306,28.169984 28.1621146,27.7100373 L27.2995912,29.6684373 L27.2995912,40.4878507 C27.2995912,44.379904 25.5421251,48.114944 22.5680829,50.605824 L22.5680829,61.8664107 C22.5680829,62.5729707 21.9947736,63.1464107 21.2883746,63.1464107 L21.2883746,63.1464107 Z" id="Fill-10" fill="#2E2E30" mask="url(#mask-2)"/>
                    </g>
                    <path d="M32.945835,26.9633707 C32.239436,26.9633707 31.6661266,26.3899307 31.6661266,25.6833707 L31.6661266,18.303744 C31.6661266,17.5963307 32.239436,17.023744 32.945835,17.023744 C33.652234,17.023744 34.2255433,17.5963307 34.2255433,18.303744 L34.2255433,25.6833707 C34.2255433,26.3899307 33.652234,26.9633707 32.945835,26.9633707" id="Fill-13" fill="#2E2E30"/>
                    <path d="M27.5645761,26.9633707 C26.8581771,26.9633707 26.2848678,26.3899307 26.2848678,25.6833707 L26.2848678,19.4600107 C26.2848678,18.7534507 26.8581771,18.1800107 27.5645761,18.1800107 C28.2709751,18.1800107 28.8442845,18.7534507 28.8442845,19.4600107 L28.8442845,25.6833707 C28.8442845,26.3899307 28.2709751,26.9633707 27.5645761,26.9633707" id="Fill-15" fill="#2E2E30"/>
                    <path d="M37.7830471,27.0592 C37.0766481,27.0592 36.5033388,26.48576 36.5033388,25.7792 L36.5033388,22.6773333 C36.5033388,21.9707733 37.0766481,21.3973333 37.7830471,21.3973333 C38.4894461,21.3973333 39.0627555,21.9707733 39.0627555,22.6773333 L39.0627555,25.7792 C39.0627555,26.48576 38.4894461,27.0592 37.7830471,27.0592" id="Fill-17" fill="#2E2E30"/>
                    <path d="M41.2372359,18.7217067 C40.1179176,18.7217067 38.9474111,18.2498133 38.0464964,17.3316267 L37.0338206,16.2990933 C36.539,15.79392 36.5466783,14.9841067 37.0508834,14.4891733 C37.5567947,13.9933867 38.3655704,14.0027733 38.8603909,14.50624 L39.8730668,15.5387733 C40.5103615,16.1873067 41.4735553,16.3630933 41.9368098,15.9099733 C42.3881202,15.4679467 42.2482054,14.52928 41.6424768,13.8798933 L38.9073136,11.58016 C38.3655704,11.1253333 38.295613,10.3172267 38.750336,9.77706667 C39.2059122,9.23434667 40.0121284,9.16608 40.5530185,9.62005333 L43.3419295,11.96416 C43.3734956,11.9906133 43.4033555,12.0196267 43.4323622,12.04864 C45.0797734,13.7288533 45.2128631,16.2820267 43.7292546,17.7378133 C43.056128,18.39744 42.1645978,18.7217067 41.2372359,18.7217067" id="Fill-19" fill="#2E2E30"/>
                    <path d="M45.8936679,27.9266987 C45.7622845,27.9266987 45.6291949,27.919872 45.4961052,27.907072 C44.4646603,27.8029653 43.4750192,27.315712 42.7097536,26.5340587 L41.6970777,25.5023787 C41.2022572,24.9972053 41.2099354,24.187392 41.7141405,23.6924587 C42.2191987,23.1958187 43.0288275,23.206912 43.5236481,23.7095253 L44.5363239,24.7420587 C44.8801389,25.0919253 45.3220649,25.316352 45.7520468,25.359872 C45.9533876,25.3794987 46.3330344,25.3743787 46.5983606,25.114112 C46.8653931,24.8521387 46.877337,24.4732587 46.8611274,24.2710187 C46.827855,23.854592 46.6231017,23.4228053 46.3006152,23.0780587 L43.762527,20.8918187 C43.2276089,20.4301653 43.1678892,19.6220587 43.6285842,19.0861653 C44.0901323,18.5519787 44.8980548,18.4896853 45.433826,18.9513387 L48.0162775,21.1776853 C48.0435779,21.2007253 48.0691721,21.225472 48.0947662,21.251072 C48.8608849,22.0327253 49.3284051,23.0319787 49.4120127,24.064512 C49.5015923,25.1687253 49.1296237,26.217472 48.3908054,26.941952 C47.7424199,27.5776853 46.8483303,27.9266987 45.8936679,27.9266987" id="Fill-21" fill="#2E2E30"/>
                    <path d="M25.0651351,52.8192 C24.9081576,52.8192 24.7503269,52.79104 24.5959088,52.7304533 C23.4262553,52.2688 22.3274125,51.63648 21.3309462,50.8497067 C20.776406,50.4119467 20.6808544,49.6072533 21.1185147,49.0525867 C21.5570281,48.4962133 22.3623912,48.4032 22.9152252,48.8401067 C23.7163226,49.4715733 24.5967619,49.9793067 25.5343615,50.3479467 C26.1912785,50.60736 26.5146181,51.3506133 26.256117,52.0085333 C26.0573357,52.512 25.5753122,52.8192 25.0651351,52.8192" id="Fill-23" fill="#2E2E30"/>
                    <path d="M35.0295414,52.750848 C34.5338677,52.750848 34.0620819,52.461568 33.8530629,51.977728 C33.5740865,51.327488 33.8735382,50.574848 34.5219238,50.2949547 C35.3068115,49.957888 36.0507486,49.520128 36.7341129,48.995328 C37.293772,48.5661013 38.0999882,48.6710613 38.5291171,49.2299947 C38.9590991,49.7906347 38.8533099,50.5944747 38.2936508,51.025408 C37.4422182,51.6790613 36.5140031,52.2251947 35.5354528,52.6467413 C35.3699438,52.717568 35.1976098,52.750848 35.0295414,52.750848" id="Fill-25" fill="#2E2E30"/>
                    <path d="M35.5360499,14.63168 C35.309115,14.63168 35.0804738,14.61376 34.8526857,14.5762133 L32.7386075,14.2280533 C32.0407399,14.1137067 31.5689541,13.4549333 31.6824216,12.75776 C31.7975954,12.0597333 32.4596311,11.58528 33.153233,11.7013333 L35.2673112,12.0494933 C35.6606082,12.1152 36.0479333,12.0349867 36.3610353,11.8301867 C36.6408648,11.6458667 36.8217302,11.38048 36.869506,11.0843733 C36.9189881,10.7857067 36.8328211,10.4768 36.6255083,10.21312 C36.3951608,9.91872 36.0513458,9.71989333 35.6597551,9.65589333 L32.7949147,9.31626667 C32.0936345,9.23349333 31.5919889,8.59690667 31.6755965,7.89461333 C31.758351,7.19232 32.3990583,6.68629333 33.0969259,6.77504 L36.0172203,7.12149333 C37.1024129,7.29813333 38.0135653,7.83317333 38.6423286,8.63616 C39.2941267,9.46986667 39.5620124,10.48704 39.3956503,11.49824 C39.2301413,12.50944 38.6517132,13.3866667 37.7670081,13.96864 C37.1049724,14.40384 36.3311754,14.63168 35.5360499,14.63168" id="Fill-27" fill="#2E2E30"/>
                    <path d="M27.193802,41.01248 C26.487403,41.01248 25.9140937,40.43904 25.9140937,39.73248 C25.9140937,36.7893333 25.9140937,33.1259733 22.1969675,31.1744 C22.1338353,31.1419733 22.0741155,31.1035733 22.0178084,31.0600533 L21.7959923,30.8919467 C21.4777714,30.6496 21.2900809,30.2724267 21.2900809,29.8722133 L21.2900809,21.4941867 C21.2900809,20.7876267 21.8633902,20.2141867 22.5697892,20.2141867 C23.2761882,20.2141867 23.8494976,20.7876267 23.8494976,21.4941867 L23.8494976,29.1656533 C28.4735103,31.8954667 28.4735103,36.77824 28.4735103,39.73248 C28.4735103,40.43904 27.900201,41.01248 27.193802,41.01248" id="Fill-29" fill="#2E2E30"/>
                    <path d="M55.7122727,63.1466667 L11.9172412,63.1466667 C11.2108422,63.1466667 10.6375328,62.5732267 10.6375328,61.8666667 C10.6375328,61.1601067 11.2108422,60.5866667 11.9172412,60.5866667 L55.7122727,60.5866667 C56.4186717,60.5866667 56.991981,61.1601067 56.991981,61.8666667 C56.991981,62.5732267 56.4186717,63.1466667 55.7122727,63.1466667" id="Fill-31" fill="#2E2E30"/>
                    <path d="M7.35746975,63.1466667 L1.27970833,63.1466667 C0.573309331,63.1466667 0,62.5732267 0,61.8666667 C0,61.1601067 0.573309331,60.5866667 1.27970833,60.5866667 L7.35746975,60.5866667 C8.06386875,60.5866667 8.63717808,61.1601067 8.63717808,61.8666667 C8.63717808,62.5732267 8.06386875,63.1466667 7.35746975,63.1466667" id="Fill-33" fill="#2E2E30"/>
                    <path d="M54.0322716,43.444224 C54.0322716,45.218304 52.5947326,46.6561707 50.8210569,46.6561707 C49.0473811,46.6561707 47.6089889,45.218304 47.6089889,43.444224 C47.6089889,41.670144 49.0473811,40.2322773 50.8210569,40.2322773 C52.5947326,40.2322773 54.0322716,41.670144 54.0322716,43.444224" id="Fill-35" fill="#C5DA59"/>
                    <path d="M50.8208862,41.51168 C49.7553158,41.51168 48.8885266,42.3786667 48.8885266,43.44448 C48.8885266,44.5102933 49.7553158,45.3764267 50.8208862,45.3764267 C51.8856036,45.3764267 52.7523927,44.5102933 52.7523927,43.44448 C52.7523927,42.3786667 51.8856036,41.51168 50.8208862,41.51168 M50.8208862,47.9364267 C48.344224,47.9364267 46.32911,45.9217067 46.32911,43.44448 C46.32911,40.9664 48.344224,38.95168 50.8208862,38.95168 C53.2966953,38.95168 55.3118093,40.9664 55.3118093,43.44448 C55.3118093,45.9217067 53.2966953,47.9364267 50.8208862,47.9364267" id="Fill-37" fill="#2E2E30"/>
                    <path d="M15.4694555,52.9562453 C15.4694555,54.6441387 14.1010208,56.0128853 12.413512,56.0128853 C10.7260033,56.0128853 9.35842169,54.6441387 9.35842169,52.9562453 C9.35842169,51.268352 10.7260033,49.8996053 12.413512,49.8996053 C14.1010208,49.8996053 15.4694555,51.268352 15.4694555,52.9562453" id="Fill-39" fill="#C5DA59"/>
                    <path d="M12.4138533,51.180032 C11.4344499,51.180032 10.6376181,51.9770453 10.6376181,52.9558187 C10.6376181,53.9354453 11.4344499,54.7324587 12.4138533,54.7324587 C13.3932567,54.7324587 14.1900885,53.9354453 14.1900885,52.9558187 C14.1900885,51.9770453 13.3932567,51.180032 12.4138533,51.180032 M12.4138533,57.2924587 C10.0233581,57.2924587 8.07820148,55.3468587 8.07820148,52.9558187 C8.07820148,50.5647787 10.0233581,48.620032 12.4138533,48.620032 C14.8043485,48.620032 16.7495051,50.5647787 16.7495051,52.9558187 C16.7495051,55.3468587 14.8043485,57.2924587 12.4138533,57.2924587" id="Fill-41" fill="#2E2E30"/>
                    <path d="M9.73602096,41.8712747 C9.73602096,43.185408 8.67130363,44.250368 7.35746975,44.250368 C6.04363587,44.250368 4.97891854,43.185408 4.97891854,41.8712747 C4.97891854,40.5571413 6.04363587,39.4921813 7.35746975,39.4921813 C8.67130363,39.4921813 9.73602096,40.5571413 9.73602096,41.8712747" id="Fill-43" fill="#C5DA59"/>
                    <path d="M7.35746975,40.7725227 C6.75174114,40.7725227 6.25862687,41.2657493 6.25862687,41.871616 C6.25862687,42.4774827 6.75174114,42.969856 7.35746975,42.969856 C7.96319836,42.969856 8.45631264,42.4774827 8.45631264,41.871616 C8.45631264,41.2657493 7.96319836,40.7725227 7.35746975,40.7725227 M7.35746975,45.529856 C5.34064942,45.529856 3.69921021,43.888896 3.69921021,41.871616 C3.69921021,39.854336 5.34064942,38.2125227 7.35746975,38.2125227 C9.37429008,38.2125227 11.0157293,39.854336 11.0157293,41.871616 C11.0157293,43.888896 9.37429008,45.529856 7.35746975,45.529856" id="Fill-45" fill="#2E2E30"/>
                    <path d="M47.9599703,55.3353387 C47.9599703,56.649472 46.895253,57.714432 45.5814191,57.714432 C44.2675852,57.714432 43.2028679,56.649472 43.2028679,55.3353387 C43.2028679,54.0212053 44.2675852,52.9562453 45.5814191,52.9562453 C46.895253,52.9562453 47.9599703,54.0212053 47.9599703,55.3353387" id="Fill-47" fill="#C5DA59"/>
                    <path d="M45.5812484,54.236672 C44.9755198,54.236672 44.4824056,54.7290453 44.4824056,55.334912 C44.4824056,55.9407787 44.9755198,56.4340053 45.5812484,56.4340053 C46.1869771,56.4340053 46.6800913,55.9407787 46.6800913,55.334912 C46.6800913,54.7290453 46.1869771,54.236672 45.5812484,54.236672 M45.5812484,58.9940053 C43.5644281,58.9940053 41.9229889,57.352192 41.9229889,55.334912 C41.9229889,53.317632 43.5644281,51.676672 45.5812484,51.676672 C47.5980688,51.676672 49.239508,53.317632 49.239508,55.334912 C49.239508,57.352192 47.5980688,58.9940053 45.5812484,58.9940053" id="Fill-49" fill="#2E2E30"/>
                    <path d="M37.5213894,49.5241387 C40.3853767,47.359232 42.2520446,43.903232 42.2520446,40.022272 L42.2520446,29.2148053 C39.3718477,46.1910187 30.2901843,48.0333653 30.2901843,48.0333653 L30.2901843,61.4016853 L37.5213894,61.4016853 L37.5213894,49.5241387 Z" id="Fill-51" fill="#010202" opacity="0.3"/>
                </g>
            </g>
        </g>
    </g>

	
	
	<metadata>
		<rdf:RDF xmlns:rdf="http://www.w3.org/1999/02/22-rdf-syntax-ns#" xmlns:rdfs="http://www.w3.org/2000/01/rdf-schema#" xmlns:dc="http://purl.org/dc/elements/1.1/">
			<rdf:Description about="https://iconscout.com/legal#licenses" dc:title="Zombie, Bone, Halloween, Tissue, Organ, Hand" dc:description="Zombie, Bone, Halloween, Tissue, Organ, Hand" dc:publisher="Iconscout" dc:date="2016-12-14" dc:format="image/svg+xml" dc:language="en">
				<dc:creator>
					<rdf:Bag>
						<rdf:li>AomAm .</rdf:li>
					</rdf:Bag>
				</dc:creator>
			</rdf:Description>
		</rdf:RDF>
    </metadata></svg>
