<?xml version="1.0" encoding="UTF-8"?>
<svg xmlns="http://www.w3.org/2000/svg" xmlns:xlink="http://www.w3.org/1999/xlink" width="64px" height="64px" viewBox="0 0 64 64" version="1.1">
    
    <title>candy</title>
    <desc>Created with Sketch.</desc>
    <defs>
        <polygon id="path-1" points="48.4789204 0.122965333 0.000431848853 0.122965333 0.000431848853 48.3886645 48.4789204 48.3886645 48.4789204 0.122965333"/>
        <polygon id="path-3" points="23.1415795 0.122965333 0.343492578 0.122965333 0.343492578 24.6616005 23.1415795 24.6616005 23.1415795 0.122965333"/>
        <polygon id="path-5" points="3.51158598e-20 0.513230115 3.51158598e-20 23.2111255 24.6477208 23.2111255 24.6477208 0.513230115 0 0.513230115"/>
    </defs>
    <g id="SVG" stroke="none" stroke-width="1" fill="none" fill-rule="evenodd">
        <g id="Color" transform="translate(-704.000000, -255.000000)">
            <g id="8" transform="translate(711.000000, 255.000000)">
                <path d="M24.3556707,62.5871885 L24.0309204,62.5863286 C22.4797193,62.5820291 21.2144022,61.3154002 21.2187206,59.7710244 L21.294726,32.4245662 C21.2990445,30.8801904 22.572135,29.6204406 24.123336,29.6247401 L24.4480864,29.6256 C25.9992874,29.6298995 27.2646046,30.8973883 27.2602861,32.4417641 L27.183417,59.7873625 C27.1790985,61.3317383 25.9068718,62.591488 24.3556707,62.5871885" id="Fill-1" fill="#60413E"/>
                <path d="M24.1152173,30.9149302 C23.7118704,30.9149302 23.3318435,31.0731513 23.0425047,31.3594972 C22.7523023,31.6467029 22.5907908,32.0259177 22.5899271,32.4283497 L22.5139217,59.774808 C22.513058,60.17724 22.6711147,60.5581745 22.9595897,60.8471001 C23.2489285,61.1360256 23.6298192,61.2951066 24.0348934,61.2968264 L24.35878,61.2976863 L24.3630985,61.2976863 C25.2026127,61.2976863 25.8857976,60.6192272 25.8883887,59.7834069 L25.9652578,32.4378086 C25.9661215,32.0362365 25.8072011,31.654442 25.518726,31.3655165 C25.230251,31.0765909 24.8484966,30.91665 24.4442861,30.9157901 L24.1195358,30.9149302 L24.1152173,30.9149302 Z M24.3630985,63.8773786 L24.3518704,63.8773786 L24.0271201,63.8765187 C22.930224,63.8730791 21.8998327,63.4431304 21.1225047,62.6657831 C20.3460405,61.8884359 19.9202375,60.8582787 19.9228286,59.7670689 L19.998834,32.4214705 C20.0022888,31.3294008 20.4341377,30.3026832 21.2157841,29.5296354 C21.993112,28.7591673 23.021776,28.3352379 24.1143536,28.3352379 L24.127309,28.3352379 L24.4511957,28.3360978 C26.7209933,28.3421171 28.5615331,30.1857372 28.5563509,32.4446878 L28.4794818,59.7902861 C28.4734359,62.0457971 26.6277139,63.8773786 24.3630985,63.8773786 L24.3630985,63.8773786 Z" id="Fill-3" fill="#2E2E30"/>
                <path d="M47.1832874,24.5004393 C47.1832874,37.1159946 36.9113306,47.3436147 24.2391579,47.3436147 C11.5678489,47.3436147 1.29502834,37.1159946 1.29502834,24.5004393 C1.29502834,11.884884 11.5678489,1.65726392 24.2391579,1.65726392 C36.9113306,1.65726392 47.1832874,11.884884 47.1832874,24.5004393" id="Fill-5" fill="#FEFEFE"/>
                <g id="Group-9" transform="translate(0.000000, 0.244968)">
                    <mask id="mask-2" fill="white">
                        <use xlink:href="#path-1"/>
                    </mask>
                    <g id="Clip-8"/>
                    <path d="M24.2392443,2.70231368 C12.302942,2.70231368 2.59152497,12.3710005 2.59152497,24.2556429 C2.59152497,36.1402854 12.302942,45.8089721 24.2392443,45.8089721 C36.1764103,45.8089721 45.8878273,36.1402854 45.8878273,24.2556429 C45.8878273,12.3710005 36.1764103,2.70231368 24.2392443,2.70231368 M24.2392443,48.3886645 C10.8735223,48.3886645 0.000431848853,37.5625557 0.000431848853,24.2556429 C0.000431848853,10.9487301 10.8735223,0.122621374 24.2392443,0.122621374 C37.60583,0.122621374 48.4789204,10.9487301 48.4789204,24.2556429 C48.4789204,37.5625557 37.60583,48.3886645 24.2392443,48.3886645" id="Fill-7" fill="#2E2E30" mask="url(#mask-2)"/>
                </g>
                <path d="M15.457857,3.39804029 C15.4595843,10.4216825 20.5683563,18.1384021 24.1501107,23.6168087 C24.5335924,15.3609334 29.0809609,9.11033895 35.6657922,4.71110367 C32.2982348,2.77891413 28.4038219,1.65760788 24.2390715,1.65760788 C21.1271687,1.65760788 18.1638219,2.28017362 15.457857,3.39804029" id="Fill-10" fill="#F27721"/>
                <g id="Group-14" transform="translate(13.819163, 0.244968)">
                    <mask id="mask-4" fill="white">
                        <use xlink:href="#path-3"/>
                    </mask>
                    <g id="Clip-13"/>
                    <path d="M2.96222402,4.02234224 C3.29129285,9.27115618 6.48265587,14.9585178 9.4814143,19.6810745 C10.6586343,13.8432309 14.0227368,8.72168172 19.370753,4.64662777 C14.2257058,2.30856665 8.23164372,2.09187249 2.96222402,4.02234224 M10.3304291,24.6616005 C9.89944399,24.6616005 9.48832389,24.447486 9.24476113,24.0751504 L9.09793252,23.852437 C5.40476113,18.202051 0.345219973,10.4655537 0.343492578,3.15384583 C0.343492578,2.63188808 0.65874224,2.16152418 1.14241296,1.96202798 C4.09625911,0.741833518 7.21852632,0.122707364 10.4202537,0.122707364 C14.6402807,0.122707364 18.8145317,1.23799434 22.4930202,3.34818265 C22.8808205,3.57089608 23.1261107,3.97590777 23.1407935,4.42133465 C23.1563401,4.86676152 22.9404157,5.28811126 22.5681619,5.53662162 C15.6438974,10.1645896 11.9619541,16.1847316 11.6242483,23.4310873 C11.5992011,23.9908805 11.2131282,24.4698434 10.670726,24.6160259 C10.5575816,24.6469822 10.4435735,24.6616005 10.3304291,24.6616005" id="Fill-12" fill="#2E2E30" mask="url(#mask-4)"/>
                </g>
                <path d="M33.3294035,45.5771274 C33.3276761,38.5534851 28.2189042,30.8367655 24.6371498,25.358359 C24.253668,33.6142343 19.7062996,39.8648287 13.1214683,44.2649239 C16.4890256,46.1962535 20.3834386,47.3175598 24.5481889,47.3175598 C27.6600918,47.3175598 30.6234386,46.6949941 33.3294035,45.5771274" id="Fill-15" fill="#F27721"/>
                <path d="M15.5980351,44.0837435 C20.743946,46.4218046 26.7380081,46.6402186 32.0057004,44.708029 C31.6774953,39.4592151 28.4861323,33.7718535 25.4865101,29.0492967 C24.3092901,34.8862805 20.9443239,40.0095495 15.5980351,44.0837435 M24.5476707,48.6076639 C20.3285074,48.6076639 16.1542564,47.4923769 12.4749042,45.3821886 C12.0871039,45.1594752 11.8418138,44.7536036 11.8271309,44.3081767 C11.8115843,43.8627499 12.0283725,43.4414001 12.3997625,43.1937497 C19.324027,38.5666416 23.0059703,32.5464996 23.3436761,25.2984241 C23.3687233,24.7394908 23.7547962,24.2605279 24.2971984,24.1134855 C24.8404642,23.966443 25.4165506,24.1848569 25.7231633,24.6543609 L25.8656734,24.8727749 C29.5614359,30.5231609 34.6227045,38.2622379 34.6244318,45.5765255 C34.6244318,46.0984832 34.3091822,46.5688471 33.8255115,46.7683433 C30.8716653,47.9885378 27.7493981,48.6076639 24.5476707,48.6076639" id="Fill-17" fill="#2E2E30"/>
                <path d="M45.4349042,15.9660432 C38.3802213,15.967763 30.6293981,21.0540564 25.12678,24.620051 C33.4191417,25.0018455 39.6973603,29.5292055 44.1169015,36.0850635 C46.0567665,32.7323234 47.1830283,28.8550459 47.1830283,24.7086205 C47.1830283,21.61041 46.5577112,18.6601019 45.4349042,15.9660432" id="Fill-19" fill="#F27721"/>
                <path d="M28.8335115,23.7741699 C34.6971552,24.9462101 39.8422024,28.2955106 43.9352659,33.6208555 C45.217857,30.8227492 45.8880864,27.7787123 45.8880864,24.7088784 C45.8880864,22.1592825 45.4424184,19.6664399 44.5623104,17.2836641 C39.2894359,17.611285 33.5769393,20.788606 28.8335115,23.7741699 M44.1166424,37.3751677 C43.6856572,37.3751677 43.2823104,37.1619131 43.0413387,36.8041958 C38.3929177,29.9095381 32.3453063,26.2437954 25.0669258,25.9084354 C24.5046586,25.8826384 24.0244426,25.4982643 23.8767503,24.9582487 C23.729058,24.4182331 23.9484372,23.8446815 24.4200162,23.538558 L24.6419865,23.3949552 C30.3173441,19.7163139 38.0897598,14.6781749 45.4355088,14.6764551 C45.9589096,14.6764551 46.4313522,14.9903176 46.6317301,15.4718602 C47.8573171,18.416149 48.4791795,21.5229584 48.4791795,24.7088784 C48.4791795,28.9103373 47.3589636,33.0662216 45.2394494,36.7293847 C45.0157517,37.1146187 44.6089501,37.3588296 44.1615547,37.3743078 C44.1460081,37.3751677 44.1313252,37.3751677 44.1166424,37.3751677" id="Fill-21" fill="#2E2E30"/>
                <path d="M3.04367072,33.3450004 C10.0983536,33.3432806 17.8491768,28.2569872 23.3517949,24.6909926 C15.0594332,24.3091981 8.78121457,19.7818381 4.36167341,13.2259801 C2.42180837,16.5787202 1.29554656,20.4559977 1.29554656,24.6024231 C1.29554656,27.7006336 1.9208637,30.6509417 3.04367072,33.3450004" id="Fill-23" fill="#F27721"/>
                <g id="Group-27" transform="translate(0.000000, 11.423635)">
                    <mask id="mask-6" fill="white">
                        <use xlink:href="#path-5"/>
                    </mask>
                    <g id="Clip-26"/>
                    <path d="M4.54365452,4.26758498 C3.26192713,7.06569124 2.59083401,10.1088683 2.59083401,13.1787021 C2.59083401,15.7300178 3.03650202,18.2228605 3.91660999,20.6039165 C9.18862078,20.2762955 14.9011174,17.0981146 19.6445452,14.1134106 C13.7809015,12.9405105 8.63585425,9.59206991 4.54365452,4.26758498 L4.54365452,4.26758498 Z M3.0442753,23.2111255 C2.5200108,23.2111255 2.04756815,22.8972629 1.84719028,22.4157204 C0.621603239,19.4748711 -0.000259109312,16.3663419 -0.000259109312,13.1787021 C-0.000259109312,8.97810314 1.11995682,4.82135893 3.23947099,1.15819586 C3.46316869,0.772961805 3.87083401,0.528750933 4.31822942,0.513272779 C4.7759892,0.50983319 5.1897004,0.714488779 5.43758165,1.08338478 C10.085139,7.97804242 16.1327503,11.6437852 23.4119946,11.9791452 C23.9733981,12.0049421 24.4544777,12.3884564 24.60217,12.9293319 C24.7498623,13.4693474 24.5304831,14.042899 24.0589042,14.3490225 L23.8377976,14.4917655 C18.1624399,18.1704067 10.3900243,23.2085458 3.045139,23.2111255 L3.0442753,23.2111255 Z" id="Fill-25" fill="#2E2E30" mask="url(#mask-6)"/>
                </g>
                <path d="M37.1560162,5.62130511 C39.6676491,9.28446818 41.1376626,13.7112202 41.1376626,18.4810713 C41.1376626,31.0974864 30.8648421,41.3242466 18.1935331,41.3242466 C13.4026019,41.3242466 8.9562861,39.8607012 5.27693387,37.3601195 C9.4071363,43.3862807 16.3581754,47.3435287 24.239417,47.3435287 C36.910726,47.3435287 47.1835466,37.1167685 47.1835466,24.5003533 C47.1835466,16.6546491 43.2088097,9.73419454 37.1560162,5.62130511" id="Fill-28" fill="#010202" opacity="0.3"/>
            </g>
        </g>
    </g>

	
	
	<metadata>
		<rdf:RDF xmlns:rdf="http://www.w3.org/1999/02/22-rdf-syntax-ns#" xmlns:rdfs="http://www.w3.org/2000/01/rdf-schema#" xmlns:dc="http://purl.org/dc/elements/1.1/">
			<rdf:Description about="https://iconscout.com/legal#licenses" dc:title="Candy, Lollipop, Sweet, Food, Halloween" dc:description="Candy, Lollipop, Sweet, Food, Halloween" dc:publisher="Iconscout" dc:date="2016-12-14" dc:format="image/svg+xml" dc:language="en">
				<dc:creator>
					<rdf:Bag>
						<rdf:li>AomAm .</rdf:li>
					</rdf:Bag>
				</dc:creator>
			</rdf:Description>
		</rdf:RDF>
    </metadata></svg>
