<?xml version="1.0" encoding="UTF-8"?>
<svg xmlns="http://www.w3.org/2000/svg" xmlns:xlink="http://www.w3.org/1999/xlink" width="64px" height="64px" viewBox="0 0 64 64" version="1.1">
    
    <title>web</title>
    <desc>Created with Sketch.</desc>
    <defs>
        <polygon id="path-1" points="0 0.350526085 0 22.9281247 63.1905025 22.9281247 63.1905025 0.350526085 3.37933145e-20 0.350526085"/>
    </defs>
    <g id="SVG" stroke="none" stroke-width="1" fill="none" fill-rule="evenodd">
        <g id="Color" transform="translate(-357.000000, -255.000000)">
            <g id="3" transform="translate(357.000000, 255.000000)">
                <path d="M27.5530805,51.2539429 C30.3732364,51.2539429 33.1884052,51.8507221 35.7691844,53.0210078 L38.4771325,54.2503065 L40.0280935,51.7119169 C42.2921974,48.0073974 45.770639,45.1074494 49.822587,43.5473455 L52.3144312,42.5873455 L51.7143273,39.9799688 C50.7401974,35.7493195 51.1973403,31.2435532 53.0009766,27.293839 L54.1812364,24.7097351 L51.5497558,23.1014234 C47.8452364,20.8381506 44.9461195,17.3597091 43.3851844,13.3069299 L42.4559377,10.8948779 L39.9325091,11.4766961 C35.7010286,12.450826 31.1960935,11.9936831 27.2463792,10.1892156 L24.5608727,8.96407273 L23.0298597,11.4850078 C20.7740675,15.1953455 17.3022753,18.1036052 13.2536519,19.6736831 L10.8407688,20.6104104 L11.4259117,23.1280208 C12.4100156,27.3561766 11.9636779,31.862774 10.1700156,35.8166442 L8.8950026,38.6259948 L11.3228468,40.1013195 C15.0331844,42.3554494 17.940613,45.8272416 19.5106909,49.8758649 L20.4790026,52.3702026 L23.0797299,51.7651117 C24.5492364,51.4235013 26.0519896,51.2539429 27.5530805,51.2539429 M38.7672104,56.9981506 C38.5910026,56.9981506 38.4147948,56.9607481 38.2518857,56.8859429 L34.7385351,55.291761 C31.2808727,53.7241766 27.3411325,53.3343584 23.6449247,54.193787 L20.4823273,54.9293714 C20.4482494,54.9551377 20.4116779,54.9784104 20.3734442,55.0008519 C19.8464831,55.3092156 19.171574,55.1895273 18.7817558,54.7165922 L18.7102753,54.6293195 C18.5606649,54.4464623 18.467574,54.2286961 18.4368208,54.001787 L17.1859117,50.7776831 C15.8136519,47.2377351 13.2702753,44.2031377 10.0270545,42.2324364 L6.79131429,40.2650597 C6.41811948,40.0381506 6.19121039,39.6333714 6.19204156,39.1970078 L6.19287273,38.8130078 C6.19287273,38.6359688 6.23110649,38.4614234 6.30424935,38.3001766 L7.89926234,34.786826 C9.46767792,31.3299948 9.8574961,27.3902545 8.99723636,23.6932156 L8.32066494,20.7849558 C8.27827532,20.7425662 8.23837922,20.6951896 8.20180779,20.6453195 C7.86684675,20.1915013 7.87931429,19.5706182 8.2308987,19.1300987 L8.37884675,18.9447481 C8.63567792,18.6205922 9.03547013,18.4418909 9.44191169,18.4776312 L12.3518338,17.3489039 C15.8917818,15.9766442 18.9263792,13.4340987 20.8987429,10.1900468 L22.8644571,6.95430649 C23.0680935,6.61934545 23.4038857,6.41487792 23.7629506,6.36583896 C24.0879377,6.20542338 24.4802494,6.18547532 24.8359896,6.34838442 L28.2820156,7.92178701 C31.7338597,9.49851429 35.6744312,9.89913766 39.3723013,9.04635844 L42.4152104,8.34568312 C42.7352104,8.09383896 43.1616,8.01155325 43.5597299,8.1353974 L43.7849766,8.20604675 C44.3227429,8.37394286 44.6801455,8.88095584 44.6585351,9.44365714 C44.6560416,9.50516364 44.6493922,9.56500779 44.638587,9.62485195 L45.711626,12.4109299 C47.0764052,15.9542026 49.6114701,18.9946182 52.8505351,20.9736312 L56.1419636,22.9858909 C56.2924052,23.0781506 56.4212364,23.2011636 56.5218078,23.345787 L56.7379117,23.6632935 C56.9847688,24.0240208 57.0246649,24.4869818 56.842639,24.8842805 L55.2692364,28.3294753 C53.6925091,31.7829818 53.2935481,35.7218909 54.1446649,39.4205922 L54.9201455,42.7909818 C55.0232104,42.9962805 55.0689247,43.2306701 55.0464831,43.4667221 L55.0356779,43.5789299 C54.9783273,44.1881766 54.4871065,44.6652675 53.8770286,44.7051636 C53.834639,44.7084883 53.790587,44.7084883 53.7498597,44.7076571 L50.718587,45.873787 C47.1761455,47.2385662 44.1348987,49.7736312 42.1558857,53.0126961 L40.143626,56.3049558 C39.9848727,56.5642805 39.7371844,56.7571117 39.4471065,56.8468779 L39.134587,56.9424623 C39.0140675,56.9798649 38.8910545,56.9981506 38.7672104,56.9981506" id="Fill-1" fill="#2E2E30"/>
                <path d="M28.8444675,44.437361 C30.801039,44.437361 32.7542857,44.8512831 34.5446234,45.6641662 L36.0407273,46.3424 L36.8968312,44.9410494 C38.4694026,42.369413 40.8831169,40.3571532 43.6941299,39.2749714 L45.0422857,38.7554909 L44.7181299,37.3441662 C44.0415584,34.4084779 44.3590649,31.2816208 45.6108052,28.540426 L46.2557922,27.1282701 L44.7921039,26.2339325 C42.2204675,24.6621922 40.2082078,22.2493091 39.1251948,19.4366338 L38.6273247,18.1425039 L37.2716883,18.4541922 C34.3376623,19.1299325 31.209974,18.8132571 28.4679481,17.5615169 L26.9901299,16.8866078 L26.1456623,18.2754909 C24.5805714,20.8504519 22.1718442,22.8685299 19.3624935,23.957361 L18.0658701,24.4602182 L18.3800519,25.8116987 C19.0624416,28.747387 18.7524156,31.8742442 17.5081558,34.6179325 L16.7991688,36.1796987 L18.1257143,36.9859325 C20.7006753,38.5510234 22.7195844,40.9605818 23.8075844,43.7699325 L24.3320519,45.1197506 L25.7400519,44.7922701 C26.7590649,44.5545558 27.8021818,44.437361 28.8444675,44.437361 M36.3964675,49.1201662 C36.2202597,49.1201662 36.0440519,49.0827636 35.8811429,49.0087896 L33.513974,47.9349195 C31.2664935,46.9142442 28.7073247,46.6607377 26.3044156,47.2209455 L24.2472727,47.6996987 C24.2364675,47.7063481 24.2256623,47.7121662 24.2165195,47.7188156 C23.6862338,48.0263481 23.0121558,47.9074909 22.624,47.4362182 C22.5159481,47.3057247 22.4336623,47.1519584 22.382961,46.9890494 L21.4836364,44.6709195 C20.590961,42.3710753 18.9394286,40.3987117 16.8307532,39.1170494 L14.6514286,37.7921662 C14.2798961,37.5660883 14.0521558,37.1621403 14.0521558,36.7266078 L14.0521558,36.4689455 C14.0521558,36.2910753 14.0903896,36.1148675 14.1635325,35.9536208 L15.2374026,33.5872831 C16.2564156,31.3406338 16.5107532,28.7806338 15.9513766,26.3768935 L15.5191688,24.5184 C15.5075325,24.5042701 15.4958961,24.4893091 15.4850909,24.4735169 C15.150961,24.0205299 15.1625974,23.3996468 15.5133506,22.9591273 L15.6122597,22.8344519 C15.8491429,22.5360623 16.2057143,22.3665039 16.5764156,22.3631792 L18.4615065,21.6325818 C20.7605195,20.7407377 22.7328831,19.088374 24.0137143,16.9805299 L25.3385974,14.800374 C25.5297662,14.4870234 25.8372987,14.2875429 26.1705974,14.2235429 C26.4839481,14.0888935 26.8496623,14.081413 27.1837922,14.2343481 L29.5035844,15.2940883 C31.7477403,16.3172571 34.3085714,16.5782442 36.7131429,16.0238545 L38.6805195,15.5716987 C38.9897143,15.3647377 39.3787013,15.3048935 39.7419221,15.4187636 L39.8948571,15.4661403 C40.4326234,15.6332052 40.7916883,16.1410494 40.7709091,16.7037506 C40.7700779,16.7228675 40.7692468,16.7428156 40.7675844,16.7619325 L41.4516364,18.5406338 C42.3384935,20.8429714 43.9867013,22.8194909 46.0920519,24.1061403 L48.3087792,25.4609455 C48.4592208,25.5532052 48.5880519,25.675387 48.6877922,25.8208416 L48.8340779,26.0344519 C49.0809351,26.3951792 49.1208312,26.8589714 48.9388052,27.2571013 L47.8782338,29.5768935 C46.8542338,31.8210494 46.5940779,34.3810494 47.1476364,36.7847896 L47.6612987,39.0139844 C47.7452468,39.2043221 47.7826494,39.415439 47.7643636,39.6290494 C47.7136623,40.213361 47.2606753,40.7145558 46.6863377,40.7943481 L44.5901299,41.601413 C42.2886234,42.4882701 40.3121039,44.1356468 39.0254545,46.2409974 L37.6706494,48.4585558 C37.5127273,48.7170494 37.265039,48.9098805 36.9741299,48.9996468 L36.7638442,49.0644779 C36.6441558,49.1018805 36.5194805,49.1201662 36.3964675,49.1201662" id="Fill-3" fill="#2E2E30"/>
                <path d="M30.0530701,38.0498286 C31.2017455,38.0498286 32.3479273,38.2925299 33.3976935,38.7696208 L33.7575896,38.9325299 L33.9645506,38.5959065 C34.8854857,37.0873351 36.3026286,35.9070753 37.9516675,35.2712312 L38.2284468,35.1648416 L38.1611221,34.8739325 C37.7646545,33.1509195 37.9508364,31.3165299 38.6855896,29.7090494 L38.8285506,29.3948675 L38.4578494,29.1687896 C36.9501091,28.2478545 35.7698494,26.8315429 35.1340052,25.1816727 L35.0384208,24.9339844 L34.7782649,24.9938286 C33.0560831,25.3902961 31.2225247,25.2041143 29.6133818,24.4701922 L29.2651221,24.3106078 L29.0664727,24.6380883 C28.1472,26.1491532 26.734213,27.3327377 25.085174,27.9719065 L24.8374857,28.0683221 L24.8973299,28.3268156 C25.2979532,30.0481662 25.1167584,31.8825558 24.386161,33.493361 L24.2066286,33.8881662 L24.5008623,34.0668675 C26.0119273,34.9853091 27.1955117,36.3991273 27.8346805,38.0473351 L27.9427325,38.3257766 L28.2319792,38.2576208 C28.8295896,38.1188156 29.442161,38.0498286 30.0530701,38.0498286 M34.1740052,41.7377247 C33.9977974,41.7377247 33.8224208,41.7003221 33.6595117,41.6263481 L32.3678753,41.040374 C31.2549403,40.5350234 29.9890701,40.4095169 28.7963429,40.6862961 L27.7540571,40.9289974 C27.2379013,41.1941403 26.6045506,41.0686338 26.2280312,40.6189714 C26.1241351,40.4942961 26.045174,40.3505039 25.9944727,40.1967377 L25.5099013,38.9491532 C25.0677195,37.8096208 24.2498494,36.8329974 23.2059013,36.1979844 L22.0164987,35.4748675 C21.6449662,35.2487896 21.417226,34.8456727 21.417226,34.4101403 L21.417226,34.2688416 C21.417226,34.0909714 21.4554597,33.9155948 21.5286026,33.7535169 L22.1145766,32.4627117 C22.6199273,31.3497766 22.7454338,30.081413 22.4686545,28.8920104 L22.2575377,27.9852052 C21.9790961,27.5421922 22.0056935,26.9678545 22.333174,26.5522701 L22.3863688,26.4841143 C22.5983169,26.2139844 22.9083429,26.0485818 23.2391481,26.0145039 L24.1833558,25.6471273 C25.3237195,25.2057766 26.2995117,24.3879065 26.9345247,23.3431273 L27.6568104,22.1537247 C27.837174,21.8586597 28.1206026,21.6641662 28.4322909,21.589361 C28.7290182,21.4788156 29.0697974,21.4813091 29.3831481,21.6242701 L30.6490182,22.2019325 C31.7611221,22.7089455 33.0294857,22.8361143 34.2188883,22.5634909 L35.2079792,22.3365818 C35.4997195,22.1794909 35.8479792,22.1437506 36.1704727,22.2451532 L36.2535896,22.2717506 C36.7606026,22.4305039 37.1072,22.8918026 37.1263169,23.4162701 L37.4604468,24.2848416 C37.9001351,25.4260364 38.7163429,26.4043221 39.7586286,27.0409974 L40.9679792,27.7807377 C41.1184208,27.8729974 41.2480831,27.9960104 41.3469922,28.1414649 L41.4267844,28.2578286 C41.6728104,28.6185558 41.7127065,29.0815169 41.5315117,29.4788156 L40.9530182,30.7438545 C40.4460052,31.8559584 40.3180052,33.1243221 40.5914597,34.3145558 L40.8599273,35.4815169 C40.9305766,35.6618805 40.9588364,35.8588675 40.9397195,36.0575169 C40.8840312,36.609413 40.4717714,37.0682182 39.9406545,37.1771013 L38.8476675,37.5985039 C37.7081351,38.037361 36.7290182,38.8535688 36.0923429,39.8958545 L35.3517714,41.1052052 C35.1938494,41.3645299 34.946161,41.557361 34.6560831,41.6462961 L34.5413818,41.6820364 C34.4216935,41.719439 34.2970182,41.7377247 34.1740052,41.7377247" id="Fill-5" fill="#2E2E30"/>
                <path d="M41.4833039,63.1910234 C40.9596675,63.1910234 40.4726026,62.859387 40.2997195,62.3357506 L20.216187,1.63881558 C19.9992519,0.984685714 20.354161,0.279854545 21.0074597,0.0637506494 C21.6657455,-0.153184416 22.3672519,0.201724675 22.5833558,0.855023377 L42.6668883,61.5519584 C42.8838234,62.2060883 42.5289143,62.9117506 41.8756156,63.1270234 C41.7442909,63.1702442 41.6129662,63.1910234 41.4833039,63.1910234" id="Fill-7" fill="#2E2E30"/>
                <path d="M59.6634597,48.2819325 C59.4623169,48.2819325 59.2578494,48.2328935 59.0683429,48.1298286 L2.90294026,17.5868675 C2.29784935,17.2577247 2.07426494,16.501361 2.40340779,15.8962701 C2.73255065,15.2911792 3.49057662,15.068426 4.09483636,15.3967377 L60.260239,45.9396987 C60.8644987,46.2688416 61.0889143,47.0252052 60.7589403,47.6302961 C60.5336935,48.0458805 60.1048104,48.2819325 59.6634597,48.2819325" id="Fill-9" fill="#2E2E30"/>
                <g id="Group-13" transform="translate(0.000000, 19.970244)">
                    <mask id="mask-2" fill="white">
                        <use xlink:href="#path-1"/>
                    </mask>
                    <g id="Clip-12"/>
                    <path d="M1.24708571,22.9281247 C0.723449351,22.9281247 0.236384416,22.5964883 0.0635012987,22.0728519 C-0.153433766,21.4187221 0.201475325,20.7130597 0.854774026,20.497787 L61.5517091,0.414254545 C62.2099948,0.197319481 62.9106701,0.552228571 63.126774,1.20552727 C63.3437091,1.85965714 62.9888,2.56448831 62.3355013,2.78059221 L1.6393974,22.8641247 C1.50807273,22.9073455 1.37674805,22.9281247 1.24708571,22.9281247" id="Fill-11" fill="#2E2E30" mask="url(#mask-2)"/>
                </g>
                <path d="M16.1553455,61.079439 C15.9542026,61.079439 15.7497351,61.0304 15.5602286,60.9273351 C14.9559688,60.5981922 14.7315532,59.8418286 15.0615273,59.2367377 L45.6044883,3.0705039 C45.9328,2.46541299 46.6916571,2.24349091 47.2950857,2.57097143 C47.8993455,2.90011429 48.123761,3.65730909 47.793787,4.2624 L17.250826,60.4278026 C17.0255792,60.843387 16.5966961,61.079439 16.1553455,61.079439" id="Fill-14" fill="#2E2E30"/>
            </g>
        </g>
    </g>

	
	
	<metadata>
		<rdf:RDF xmlns:rdf="http://www.w3.org/1999/02/22-rdf-syntax-ns#" xmlns:rdfs="http://www.w3.org/2000/01/rdf-schema#" xmlns:dc="http://purl.org/dc/elements/1.1/">
			<rdf:Description about="https://iconscout.com/legal#licenses" dc:title="Cobweb, Spider, Net, Spiderweb, Trap, Silk" dc:description="Cobweb, Spider, Net, Spiderweb, Trap, Silk" dc:publisher="Iconscout" dc:date="2016-12-14" dc:format="image/svg+xml" dc:language="en">
				<dc:creator>
					<rdf:Bag>
						<rdf:li>AomAm .</rdf:li>
					</rdf:Bag>
				</dc:creator>
			</rdf:Description>
		</rdf:RDF>
    </metadata></svg>
