<?xml version="1.0" encoding="UTF-8"?>
<svg xmlns="http://www.w3.org/2000/svg" xmlns:xlink="http://www.w3.org/1999/xlink" width="64px" height="64px" viewBox="0 0 64 64" version="1.1">
    
    <title>grave</title>
    <desc>Created with Sketch.</desc>
    <defs/>
    <g id="SVG" stroke="none" stroke-width="1" fill="none" fill-rule="evenodd">
        <g id="Color" transform="translate(-1147.000000, -255.000000)">
            <g id="12" transform="translate(1150.000000, 255.000000)">
                <path d="M50.4321548,62.2781296 L6.81538065,62.2781296 L6.81538065,23.1164394 C6.81538065,11.0961577 16.5792516,1.35193239 28.6237677,1.35193239 L28.6237677,1.35193239 C40.6682839,1.35193239 50.4321548,11.0961577 50.4321548,23.1164394 L50.4321548,62.2781296 Z" id="Fill-1" fill="#BABABA"/>
                <path d="M8.17049032,60.9260169 L49.0775871,60.9260169 L49.0775871,23.1164394 C49.0775871,11.8605521 39.9017161,2.70404507 28.6240387,2.70404507 C17.3454581,2.70404507 8.17049032,11.8605521 8.17049032,23.1164394 L8.17049032,60.9260169 Z M50.4324258,63.6302423 L6.81565161,63.6302423 C6.06778065,63.6302423 5.4608129,63.0244958 5.4608129,62.2781296 L5.4608129,23.1164394 C5.4608129,10.3696225 15.8515226,-0.00018028169 28.6240387,-0.00018028169 C41.3956516,-0.00018028169 51.7872645,10.3696225 51.7872645,23.1164394 L51.7872645,62.2781296 C51.7872645,63.0244958 51.1802968,63.6302423 50.4324258,63.6302423 L50.4324258,63.6302423 Z" id="Fill-3" fill="#2E2E30"/>
                <path d="M55.8924258,62.2781296 L1.35474839,62.2781296 L1.35474839,54.2015099 C1.35474839,53.1883268 2.17849032,52.3662423 3.19371613,52.3662423 L54.0534581,52.3662423 C55.0686839,52.3662423 55.8924258,53.1883268 55.8924258,54.2015099 L55.8924258,62.2781296 Z" id="Fill-5" fill="#BABABA"/>
                <path d="M2.70967742,60.9260169 L54.5376774,60.9260169 L54.5376774,54.2015099 C54.5376774,53.934693 54.3209032,53.7183549 54.0535484,53.7183549 L3.19380645,53.7183549 C2.92645161,53.7183549 2.70967742,53.934693 2.70967742,54.2015099 L2.70967742,60.9260169 Z M55.8925161,63.6302423 L1.35483871,63.6302423 C0.606967742,63.6302423 0,63.0244958 0,62.2781296 L0,54.2015099 C0,52.4437634 1.43251613,51.0141296 3.19380645,51.0141296 L54.0535484,51.0141296 C55.8148387,51.0141296 57.2473548,52.4437634 57.2473548,54.2015099 L57.2473548,62.2781296 C57.2473548,63.0244958 56.6403871,63.6302423 55.8925161,63.6302423 L55.8925161,63.6302423 Z" id="Fill-7" fill="#2E2E30"/>
                <path d="M28.6237677,15.5017014 L28.6237677,39.4440113" id="Fill-9" fill="#FEFEFE"/>
                <path d="M28.6235871,40.7957634 C27.8757161,40.7957634 27.2687484,40.1900169 27.2687484,39.4436507 L27.2687484,15.5013408 C27.2687484,14.7549746 27.8757161,14.1492282 28.6235871,14.1492282 C29.3714581,14.1492282 29.9784258,14.7549746 29.9784258,15.5013408 L29.9784258,39.4436507 C29.9784258,40.1900169 29.3714581,40.7957634 28.6235871,40.7957634" id="Fill-11" fill="#2E2E30"/>
                <path d="M20.8914323,23.1337465 L36.3555613,23.1337465" id="Fill-13" fill="#FEFEFE"/>
                <path d="M36.3557419,24.4858592 L20.8916129,24.4858592 C20.1437419,24.4858592 19.5367742,23.8801127 19.5367742,23.1337465 C19.5367742,22.3873803 20.1437419,21.7816338 20.8916129,21.7816338 L36.3557419,21.7816338 C37.1036129,21.7816338 37.7105806,22.3873803 37.7105806,23.1337465 C37.7105806,23.8801127 37.1036129,24.4858592 36.3557419,24.4858592" id="Fill-15" fill="#2E2E30"/>
                <path d="M36.3548387,16.8538141 C36.0603871,16.8538141 35.7632258,16.7591662 35.5139355,16.5617577 C34.9277419,16.0975324 34.8292903,15.2475042 35.2935484,14.6615887 L36.5580645,13.0697014 L35.1535484,10.3744901 C34.9223226,9.92829296 34.9557419,9.39375775 35.2420645,8.98091268 L38.8585806,3.75995493 C39.2849032,3.14519437 40.1294194,2.99195493 40.7436129,3.41741972 C41.3587097,3.84108169 41.5131613,4.68389859 41.0868387,5.29865915 L37.9345806,9.84896901 L39.3670968,12.5982648 C39.6127742,13.0715042 39.5585806,13.6438986 39.2270968,14.0621521 L37.4179355,16.3418141 C37.1505806,16.6789408 36.7540645,16.8538141 36.3548387,16.8538141" id="Fill-17" fill="#2E2E30"/>
                <path d="M16.7652258,43.5166648 C16.4960645,43.5166648 16.2232903,43.4364394 15.9875484,43.2714817 L12.1081935,40.5501296 C11.9537419,40.4419606 11.8227742,40.3022423 11.726129,40.1408901 L10.7641935,38.5472 L7.54058065,40.5861859 C6.90922581,40.9828056 6.07193548,40.7980169 5.67090323,40.167031 C5.26987097,39.5360451 5.45774194,38.7004394 6.09090323,38.3011155 L10.486,35.5229746 C10.794,35.3282704 11.1688387,35.2678761 11.522,35.3490028 C11.877871,35.4328338 12.1840645,35.6563831 12.3719355,35.9682704 L13.9001935,38.5021296 L17.5447097,41.0576225 C18.1570968,41.4875944 18.3043226,42.3313127 17.8752903,42.9415662 C17.6115484,43.3165521 17.1915484,43.5166648 16.7652258,43.5166648" id="Fill-19" fill="#2E2E30"/>
                <path d="M54.0533677,52.3663324 L50.4323355,52.3663324 L50.4323355,23.1165296 C50.4323355,11.0962479 40.6684645,1.35202254 28.6239484,1.35202254 L28.6239484,1.35202254 C27.3919484,1.35202254 26.1870452,1.45929014 25.0110452,1.65489577 C35.3349161,3.37388169 43.206529,12.3248676 43.206529,23.1165296 L43.206529,52.3663324 L46.8275613,52.3663324 C47.8436903,52.3663324 48.666529,53.1884169 48.666529,54.2016 L48.666529,62.2782197 L50.4323355,62.2782197 L55.8923355,62.2782197 L55.8923355,54.2016 C55.8923355,53.1884169 55.0694968,52.3663324 54.0533677,52.3663324" id="Fill-21" fill="#010202" opacity="0.3"/>
            </g>
        </g>
    </g>

	
	
	<metadata>
		<rdf:RDF xmlns:rdf="http://www.w3.org/1999/02/22-rdf-syntax-ns#" xmlns:rdfs="http://www.w3.org/2000/01/rdf-schema#" xmlns:dc="http://purl.org/dc/elements/1.1/">
			<rdf:Description about="https://iconscout.com/legal#licenses" dc:title="Funeral, Death, Gravestone, Halloween" dc:description="Funeral, Death, Gravestone, Halloween" dc:publisher="Iconscout" dc:date="2016-12-14" dc:format="image/svg+xml" dc:language="en">
				<dc:creator>
					<rdf:Bag>
						<rdf:li>AomAm .</rdf:li>
					</rdf:Bag>
				</dc:creator>
			</rdf:Description>
		</rdf:RDF>
    </metadata></svg>
