<?xml version="1.0" encoding="UTF-8"?>
<svg xmlns="http://www.w3.org/2000/svg" xmlns:xlink="http://www.w3.org/1999/xlink" width="64px" height="64px" viewBox="0 0 64 64" version="1.1">
    
    <title>pot</title>
    <desc>Created with Sketch.</desc>
    <defs>
        <polygon id="path-1" points="36.9390933 39.6958177 36.9390933 0.270941399 0.207445333 0.270941399 0.207445333 39.6958177 36.9390933 39.6958177"/>
        <polygon id="path-3" points="1.73472348e-20 0.637885216 1.73472348e-20 25.7017868 31.958442 25.7017868 31.958442 0.637885216 0 0.637885216"/>
    </defs>
    <g id="SVG" stroke="none" stroke-width="1" fill="none" fill-rule="evenodd">
        <g id="Color" transform="translate(-444.000000, -255.000000)">
            <g id="5" transform="translate(444.000000, 257.000000)">
                <path d="M54.4174933,34.231626 C54.4174933,36.0127717 52.9796267,37.456365 51.2055467,37.456365 C49.4314667,37.456365 47.9927467,36.0127717 47.9927467,34.231626 C47.9927467,32.4504803 49.4314667,31.006887 51.2055467,31.006887 C52.9796267,31.006887 54.4174933,32.4504803 54.4174933,34.231626" id="Fill-1" fill="#C5DA59"/>
                <path d="M51.2052053,32.2919849 C50.139392,32.2919849 49.2724053,33.1624245 49.2724053,34.231626 C49.2724053,35.3016842 50.139392,36.1712671 51.2052053,36.1712671 C52.2710187,36.1712671 53.1380053,35.3016842 53.1380053,34.231626 C53.1380053,33.1624245 52.2710187,32.2919849 51.2052053,32.2919849 M51.2052053,38.7414629 C48.7279787,38.7414629 46.7124053,36.7187188 46.7124053,34.231626 C46.7124053,31.7445332 48.7279787,29.721789 51.2052053,29.721789 C53.682432,29.721789 55.6980053,31.7445332 55.6980053,34.231626 C55.6980053,36.7187188 53.682432,38.7414629 51.2052053,38.7414629" id="Fill-3" fill="#2E2E30"/>
                <path d="M38.743296,32.1322044 L44.2839893,24.264835 L61.1424427,7.33923877 C62.433536,6.04386007 62.433536,3.92259179 61.1424427,2.6272131 C59.8513493,1.33097767 57.7393493,1.33097767 56.448256,2.6272131 L39.5898027,19.5528093 C39.342336,19.8012616 39.158016,20.0856966 39.0052693,20.3829825 L33.464576,28.2503519 L28.910336,32.8218736 C27.620096,34.118109 27.620096,36.2385205 28.910336,37.534756 C30.2014293,38.8301347 32.3134293,38.8301347 33.6045227,37.534756 L38.1579093,32.9623776 C38.405376,32.7139253 38.5905493,32.4294903 38.743296,32.1322044" id="Fill-5" fill="#60413E"/>
                <g id="Group-9" transform="translate(26.453333, 0.097626)">
                    <mask id="mask-2" fill="white">
                        <use xlink:href="#path-1"/>
                    </mask>
                    <g id="Clip-8"/>
                    <path d="M32.3426987,2.83920965 C31.8204587,2.83920965 31.2973653,3.03882819 30.9005653,3.43806527 L14.042112,20.3636615 C13.9149653,20.4913145 13.8023253,20.6532369 13.6905387,20.873417 C13.6623787,20.9273911 13.6316587,20.9779383 13.596672,21.0276287 L8.05597867,28.8949981 C8.01416533,28.9541126 7.96808533,29.0098002 7.916032,29.0612041 L3.36264533,33.6327257 C2.56733867,34.4311999 2.56733867,35.7300055 3.36264533,36.5284797 C4.157952,37.3260971 5.450752,37.3260971 6.24605867,36.5284797 L10.8002987,31.9569581 C10.926592,31.829305 11.0383787,31.6673827 11.1527253,31.4454891 C11.1791787,31.3932285 11.210752,31.3418245 11.2448853,31.2921341 L16.786432,23.4256214 C16.827392,23.3656502 16.8743253,23.3108193 16.9263787,23.2585587 L33.7839787,6.33381923 C34.5792853,5.53448833 34.5792853,4.23653944 33.7839787,3.43806527 C33.3871787,3.03882819 32.8640853,2.83920965 32.3426987,2.83920965 M4.80477867,39.6958177 C3.62717867,39.6958177 2.44957867,39.2460334 1.55272533,38.3456081 C-0.240981333,36.5447576 -0.240981333,33.6155911 1.55272533,31.8155973 L6.02845867,27.3211815 L11.4573653,19.6131643 C11.681792,19.1925089 11.9360853,18.8429623 12.232192,18.5456763 L29.089792,1.62093683 C30.8834987,-0.178200243 33.8010453,-0.179913707 35.594752,1.62093683 C37.3876053,3.42093063 37.3876053,6.35009713 35.594752,8.15094767 L18.813952,24.9985813 L13.3833387,32.708312 C13.1597653,33.1281106 12.9063253,33.4776573 12.6102187,33.7740865 L8.05597867,38.3456081 C7.15912533,39.2460334 5.98152533,39.6958177 4.80477867,39.6958177" id="Fill-7" fill="#2E2E30" mask="url(#mask-2)"/>
                </g>
                <path d="M61.1424427,2.62695608 C60.6705493,2.15318332 60.0877227,1.85675407 59.476736,1.72910101 C59.696896,2.79401881 59.4016427,3.94718 58.5824427,4.76964266 L41.7239893,21.6952389 L36.183296,29.5617515 C36.0305493,29.8590375 35.845376,30.1443292 35.5979093,30.3927815 L31.0445227,34.9643031 C30.2253227,35.7867658 29.0775893,36.083195 28.016896,35.8621582 C28.1431893,36.4755783 28.4384427,37.0607262 28.910336,37.5344989 C30.2014293,38.8307344 32.3134293,38.8307344 33.6045227,37.5344989 L38.1579093,32.9629773 C38.405376,32.7145251 38.5905493,32.4292333 38.743296,32.1319473 L44.2839893,24.2654347 L61.1424427,7.33983848 C62.433536,6.04360305 62.433536,3.9231915 61.1424427,2.62695608" id="Fill-10" fill="#010202" opacity="0.3"/>
                <polygon id="Fill-12" fill="#F5B956" points="30.5394347 41.7811478 24.480768 35.6983511 28.233728 31.006887 35.212288 38.012384"/>
                <path d="M26.1969067,35.6042819 L30.6325333,40.0575745 L33.2983467,37.9071773 L28.3387733,32.928708 L26.1969067,35.6042819 Z M30.53952,43.0664171 C30.2101333,43.0664171 29.8824533,42.9396208 29.6341333,42.6903118 L23.5754667,36.6066583 C23.1138133,36.1431663 23.0737067,35.4046633 23.4824533,34.8931944 L27.23712,30.2017303 C27.4641067,29.9172953 27.8020267,29.7433787 28.1655467,29.7236739 C28.512,29.7125363 28.8814933,29.8393327 29.1392,30.0980657 L36.11776,37.1035628 C36.3754667,37.3614391 36.5102933,37.7178396 36.4906667,38.0819507 C36.47104,38.4460617 36.2978133,38.7853276 36.0145067,39.0132183 L31.3408,42.7828388 C31.1061333,42.9730333 30.8219733,43.0664171 30.53952,43.0664171 L30.53952,43.0664171 Z" id="Fill-14" fill="#2E2E30"/>
                <path d="M1.280256,52.8852505 L1.280256,52.8852505 L7.85860267,43.2238844 C14.5376427,33.413447 21.0707627,33.0698975 26.3674027,36.7050111 L26.3674027,36.7050111 C31.6631893,40.339268 31.8372693,46.7836056 28.2174293,52.100484 L28.2174293,52.100484 C23.278336,59.3544334 8.50542933,57.844015 1.280256,52.8852505" id="Fill-16" fill="#F5B956"/>
                <g id="Group-20" transform="translate(0.000000, 32.653440)">
                    <mask id="mask-4" fill="white">
                        <use xlink:href="#path-3"/>
                    </mask>
                    <g id="Clip-19"/>
                    <path d="M3.08770133,19.8545913 C6.48311467,21.8190777 11.1576747,23.0561986 15.628288,23.1341612 C15.7750613,23.1367314 15.9218347,23.1375881 16.0677547,23.1375881 C21.214208,23.1375881 25.2419413,21.5397831 27.1602347,18.7219917 C28.8037547,16.3085779 29.585408,13.6509954 29.3609813,11.2375815 C29.1305813,8.7402079 27.844608,6.62236654 25.6447147,5.11194814 C23.0838613,3.3539342 20.499968,2.81419307 17.968128,3.50900268 C14.9080747,4.34688651 11.8616747,6.96677278 8.91511467,11.2958393 L3.08770133,19.8545913 Z M16.1053013,25.7017868 C10.418688,25.7017868 4.40610133,23.9334921 0.557568,21.2930443 C0.277674667,21.1002796 0.0848213333,20.8038503 0.0216746667,20.4697249 C-0.0406186667,20.133886 0.0319146667,19.788623 0.223914667,19.5067582 L6.80226133,9.84453537 C10.101248,4.99885952 13.6306347,2.03285355 17.2939947,1.02876371 C20.5853013,0.127481713 23.8800213,0.786308574 27.089408,2.98982312 C29.938688,4.94659887 31.6061013,7.7155565 31.909888,10.99941 C32.1897813,14.0082526 31.2528213,17.2664042 29.2739413,20.1724389 C26.5910613,24.1134058 21.4941013,25.7017868 16.1053013,25.7017868 L16.1053013,25.7017868 Z" id="Fill-18" fill="#2E2E30" mask="url(#mask-4)"/>
                </g>
                <path d="M4.27972267,54.5588763 C4.27972267,54.5588763 9.08654933,52.7228998 11.9622827,49.8365699" id="Fill-21" fill="#FEFEFE"/>
                <path d="M4.27938133,55.8438029 C3.763968,55.8438029 3.27842133,55.5293823 3.08386133,55.0161998 C2.832128,54.3530893 3.16322133,53.6111595 3.82370133,53.3584235 C3.86978133,53.3404322 8.41463467,51.5789913 11.0565547,48.9282627 C11.556608,48.4262178 12.3672747,48.4262178 12.8664747,48.9282627 C13.366528,49.4303076 13.366528,50.2442029 12.8664747,50.7453911 C9.83202133,53.7910732 4.94071467,55.6810238 4.734208,55.7598432 C4.58402133,55.8172442 4.43127467,55.8438029 4.27938133,55.8438029" id="Fill-23" fill="#2E2E30"/>
                <path d="M9.205248,56.234387 C9.205248,56.234387 13.362688,56.1504273 17.2888747,52.8759978" id="Fill-25" fill="#FEFEFE"/>
                <path d="M9.20439467,57.5195706 C8.50978133,57.5195706 7.93975467,56.9609813 7.925248,56.2601746 C7.91074133,55.5516573 8.470528,54.9665094 9.17538133,54.9493748 C9.230848,54.9476613 12.9752747,54.8037303 16.470528,51.8874148 C17.0141013,51.4324901 17.822208,51.5087393 18.272768,52.0536208 C18.7250347,52.6002158 18.6499413,53.4098275 18.1072213,53.8630387 C13.884928,57.3867771 9.41858133,57.5152869 9.230848,57.5195706 L9.20439467,57.5195706 Z" id="Fill-27" fill="#2E2E30"/>
                <path d="M12.4174507,27.9148557 C12.4174507,29.6960014 10.979584,31.1395947 9.205504,31.1395947 C7.431424,31.1395947 5.992704,29.6960014 5.992704,27.9148557 C5.992704,26.13371 7.431424,24.6901167 9.205504,24.6901167 C10.979584,24.6901167 12.4174507,26.13371 12.4174507,27.9148557" id="Fill-29" fill="#C5DA59"/>
                <path d="M9.205248,25.9748719 C8.13943467,25.9748719 7.272448,26.8453116 7.272448,27.914513 C7.272448,28.9845712 8.13943467,29.8550109 9.205248,29.8550109 C10.2710613,29.8550109 11.138048,28.9845712 11.138048,27.914513 C11.138048,26.8453116 10.2710613,25.9748719 9.205248,25.9748719 M9.205248,32.4252067 C6.72802133,32.4252067 4.712448,30.4016058 4.712448,27.914513 C4.712448,25.4274202 6.72802133,23.4046761 9.205248,23.4046761 C11.6824747,23.4046761 13.698048,25.4274202 13.698048,27.914513 C13.698048,30.4016058 11.6824747,32.4252067 9.205248,32.4252067" id="Fill-31" fill="#2E2E30"/>
                <path d="M37.5712427,10.3625601 C37.5712427,12.1437058 36.133376,13.5872991 34.359296,13.5872991 C32.585216,13.5872991 31.146496,12.1437058 31.146496,10.3625601 C31.146496,8.5814144 32.585216,7.13782109 34.359296,7.13782109 C36.133376,7.13782109 37.5712427,8.5814144 37.5712427,10.3625601" id="Fill-33" fill="#C5DA59"/>
                <path d="M34.3593813,8.42274765 C33.293568,8.42274765 32.4265813,9.2931873 32.4265813,10.3623888 C32.4265813,11.432447 33.293568,12.3020299 34.3593813,12.3020299 C35.4243413,12.3020299 36.291328,11.432447 36.291328,10.3623888 C36.291328,9.2931873 35.4243413,8.42274765 34.3593813,8.42274765 M34.3593813,14.8722257 C31.8821547,14.8722257 29.8665813,12.8494816 29.8665813,10.3623888 C29.8665813,7.87529594 31.8821547,5.85255183 34.3593813,5.85255183 C36.8357547,5.85255183 38.851328,7.87529594 38.851328,10.3623888 C38.851328,12.8494816 36.8357547,14.8722257 34.3593813,14.8722257" id="Fill-35" fill="#2E2E30"/>
                <path d="M19.6399787,11.3095059 C19.6399787,13.7948853 17.6329387,15.8099188 15.1574187,15.8099188 C12.6818987,15.8099188 10.6748587,13.7948853 10.6748587,11.3095059 C10.6748587,8.82412656 12.6818987,6.80909304 15.1574187,6.80909304 C17.6329387,6.80909304 19.6399787,8.82412656 19.6399787,11.3095059" id="Fill-37" fill="#C5DA59"/>
                <path d="M15.15776,8.0943623 C13.3922133,8.0943623 11.9552,9.53709888 11.9552,11.3096773 C11.9552,13.0822556 13.3922133,14.5249922 15.15776,14.5249922 C16.9233067,14.5249922 18.36032,13.0822556 18.36032,11.3096773 C18.36032,9.53709888 16.9233067,8.0943623 15.15776,8.0943623 M15.15776,17.0951881 C11.9799467,17.0951881 9.3952,14.500147 9.3952,11.3096773 C9.3952,8.11920752 11.9799467,5.52416648 15.15776,5.52416648 C18.3355733,5.52416648 20.92032,8.11920752 20.92032,11.3096773 C20.92032,14.500147 18.3355733,17.0951881 15.15776,17.0951881" id="Fill-39" fill="#2E2E30"/>
                <path d="M49.2560213,48.8033512 C49.2560213,51.2887305 47.2489813,53.303764 44.7734613,53.303764 C42.2979413,53.303764 40.2909013,51.2887305 40.2909013,48.8033512 C40.2909013,46.3179718 42.2979413,44.3029383 44.7734613,44.3029383 C47.2489813,44.3029383 49.2560213,46.3179718 49.2560213,48.8033512" id="Fill-41" fill="#C5DA59"/>
                <path d="M44.7735467,45.5881219 C43.008,45.5881219 41.5709867,47.0308585 41.5709867,48.8034368 C41.5709867,50.5760152 43.008,52.0187518 44.7735467,52.0187518 C46.5390933,52.0187518 47.9761067,50.5760152 47.9761067,48.8034368 C47.9761067,47.0308585 46.5390933,45.5881219 44.7735467,45.5881219 M44.7735467,54.5889476 C41.5957333,54.5889476 39.0109867,51.9939066 39.0109867,48.8034368 C39.0109867,45.6129671 41.5957333,43.0179261 44.7735467,43.0179261 C47.95136,43.0179261 50.5361067,45.6129671 50.5361067,48.8034368 C50.5361067,51.9939066 47.95136,54.5889476 44.7735467,54.5889476" id="Fill-43" fill="#2E2E30"/>
                <path d="M30.5394347,41.7811478 L34.9349547,38.2359911 L30.8278613,33.707306 L26.7890347,37.1273799 C28.057088,40.4754884 24.7922347,46.3475291 22.4157013,49.8369983 L22.4157013,49.8369983 C18.661888,55.350925 10.7608747,56.348161 3.276288,54.0675406 C10.946048,58.0342094 23.697408,58.7384431 28.2175147,52.100484 L28.2175147,52.100484 C30.5931947,48.6110148 31.321088,44.640919 30.0530347,41.2928106 L30.5394347,41.7811478 Z" id="Fill-45" fill="#010202" opacity="0.3"/>
            </g>
        </g>
    </g>

	
	
	<metadata>
		<rdf:RDF xmlns:rdf="http://www.w3.org/1999/02/22-rdf-syntax-ns#" xmlns:rdfs="http://www.w3.org/2000/01/rdf-schema#" xmlns:dc="http://purl.org/dc/elements/1.1/">
			<rdf:Description about="https://iconscout.com/legal#licenses" dc:title="Pot, Broom, Magic, Witch, Scary, Halloween" dc:description="Pot, Broom, Magic, Witch, Scary, Halloween" dc:publisher="Iconscout" dc:date="2016-12-14" dc:format="image/svg+xml" dc:language="en">
				<dc:creator>
					<rdf:Bag>
						<rdf:li>AomAm .</rdf:li>
					</rdf:Bag>
				</dc:creator>
			</rdf:Description>
		</rdf:RDF>
    </metadata></svg>
