<?xml version="1.0" encoding="UTF-8"?>
<svg xmlns="http://www.w3.org/2000/svg" xmlns:xlink="http://www.w3.org/1999/xlink" width="64px" height="64px" viewBox="0 0 64 64" version="1.1">
    
    <title>skull</title>
    <desc>Created with Sketch.</desc>
    <defs/>
    <g id="SVG" stroke="none" stroke-width="1" fill="none" fill-rule="evenodd">
        <g id="Color" transform="translate(-530.000000, -255.000000)">
            <g id="6" transform="translate(536.000000, 255.000000)">
                <path d="M49.9370877,25.9195525 C49.9370877,12.3912814 39.0757453,1.42382373 25.6782279,1.42382373 C12.2807105,1.42382373 1.41936814,12.3912814 1.41936814,25.9195525 C1.41936814,32.0349424 3.64124302,37.6235525 7.31249602,41.9146712 C10.0408486,45.1038237 11.5735352,47.1824678 11.5735352,51.3834169 L11.5735352,54.3248407 C11.5735352,58.7127729 15.1207721,62.2692475 19.4963604,62.2692475 L32.0778335,62.2692475 C36.4543684,62.2692475 40.0016054,58.7127729 40.0016054,54.3248407 L40.0016054,51.1309424 C40.0016054,46.9793492 41.4973712,44.9443661 44.1679758,41.7722983 C47.7653872,37.5001627 49.9370877,31.9666034 49.9370877,25.9195525" id="Fill-1" fill="#FEFEFE"/>
                <path d="M25.6788906,2.84745763 C13.0851106,2.84745763 2.84006163,13.1979661 2.84006163,25.9194576 C2.84006163,31.4530169 4.81106441,36.804339 8.39048875,40.9872542 C11.2551643,44.3349153 12.9942287,46.7058983 12.9942287,51.383322 L12.9942287,54.3247458 C12.9942287,57.9201356 15.910972,60.8454237 19.4970231,60.8454237 L32.0784961,60.8454237 C35.6645473,60.8454237 38.5812906,57.9210847 38.5812906,54.3256949 L38.5812906,51.1308475 C38.5812906,46.5322034 40.2824875,44.1802034 43.0827883,40.8534237 C46.5874243,36.692339 48.5167729,31.3894237 48.5167729,25.9194576 C48.5167729,13.1979661 38.2717239,2.84745763 25.6788906,2.84745763 M32.0784961,63.6928814 L19.4970231,63.6928814 C14.3451513,63.6928814 10.154167,59.4900339 10.154167,54.3247458 L10.154167,51.383322 C10.154167,47.780339 9.01908906,46.0965424 6.23488197,42.8409492 C2.21430139,38.1416949 0,32.1326102 0,25.9194576 C0,11.6271186 11.51929,0 25.6788906,0 C39.8375445,0 51.3568345,11.6271186 51.3568345,25.9194576 C51.3568345,32.0604746 49.1889208,38.0164068 45.2535421,42.6900339 C42.7353541,45.6808136 41.4213522,47.4149153 41.4213522,51.1308475 L41.4213522,54.3256949 C41.4213522,59.4900339 37.2294213,63.6928814 32.0784961,63.6928814" id="Fill-3" fill="#2E2E30"/>
                <path d="M25.6785119,1.42391864 C24.7166777,1.42391864 23.7709372,1.48656271 22.8384503,1.59666441 C34.897352,3.01754576 44.2572484,13.3614102 44.2572484,25.9196475 C44.2572484,31.9666983 42.085548,37.5002576 38.4881366,41.7714441 C35.8165853,44.9435119 34.3217662,46.9794441 34.3217662,51.1310373 L34.3217662,54.3249356 C34.3217662,58.7119186 30.7735825,62.2683932 26.3979942,62.2683932 L32.0781175,62.2683932 C36.4537058,62.2683932 40.0018894,58.7119186 40.0018894,54.3249356 L40.0018894,51.1310373 C40.0018894,46.9794441 41.4967085,44.9435119 44.1682598,41.7714441 C47.7656712,37.5002576 49.9373717,31.9666983 49.9373717,25.9196475 C49.9373717,12.3913763 39.0760293,1.42391864 25.6785119,1.42391864" id="Fill-5" fill="#010202" opacity="0.3"/>
                <path d="M19.4968338,62.2688678 L19.4968338,56.3803254" id="Fill-7" fill="#FEFEFE"/>
                <path d="M19.4967391,63.6928814 C18.7128821,63.6928814 18.0767083,63.0550508 18.0767083,62.2691525 L18.0767083,56.3806102 C18.0767083,55.5947119 18.7128821,54.9568814 19.4967391,54.9568814 C20.2805961,54.9568814 20.9167699,55.5947119 20.9167699,56.3806102 L20.9167699,62.2691525 C20.9167699,63.0550508 20.2805961,63.6928814 19.4967391,63.6928814" id="Fill-9" fill="#2E2E30"/>
                <path d="M31.3707528,62.2688678 L31.3707528,56.3803254" id="Fill-11" fill="#FEFEFE"/>
                <path d="M31.3710368,63.6928814 C30.5871798,63.6928814 29.951006,63.0550508 29.951006,62.2691525 L29.951006,56.3806102 C29.951006,55.5947119 30.5871798,54.9568814 31.3710368,54.9568814 C32.1548938,54.9568814 32.7910676,55.5947119 32.7910676,56.3806102 L32.7910676,62.2691525 C32.7910676,63.0550508 32.1548938,63.6928814 31.3710368,63.6928814" id="Fill-13" fill="#2E2E30"/>
                <path d="M25.4337933,62.2688678 L25.4337933,56.3803254" id="Fill-15" fill="#FEFEFE"/>
                <path d="M25.433888,63.6928814 C24.6500309,63.6928814 24.0138571,63.0550508 24.0138571,62.2691525 L24.0138571,56.3806102 C24.0138571,55.5947119 24.6500309,54.9568814 25.433888,54.9568814 C26.217745,54.9568814 26.8539188,55.5947119 26.8539188,56.3806102 L26.8539188,62.2691525 C26.8539188,63.0550508 26.217745,63.6928814 25.433888,63.6928814" id="Fill-17" fill="#2E2E30"/>
                <path d="M25.4337933,48.0217085 C25.4337933,48.0217085 29.0113243,48.4004203 29.9428645,45.9791322 C30.6216392,44.2156068 29.3985193,41.5314034 28.0561169,39.3474034 C26.7979696,37.2991322 25.4337933,41.5779119 25.4337933,41.5779119 C25.4337933,41.5779119 24.0592035,37.3114712 22.7963227,39.3711322 C21.4596004,41.5513356 20.2478407,44.2222508 20.9247221,45.9791322 C21.8562623,48.4004203 25.4337933,48.0217085 25.4337933,48.0217085" id="Fill-19" fill="#4C4C4C"/>
                <path d="M23.5913506,40.8316881 C22.4079916,42.9331119 21.9213944,44.614061 22.2489482,45.4664 C22.7667861,46.8104 25.2679337,46.6063322 25.2906542,46.6053831 C25.3843762,46.5968407 25.4837784,46.5958915 25.5775004,46.6053831 C25.6011676,46.6053831 28.1013685,46.8104 28.6192064,45.4664 C28.9505469,44.6055186 28.4506961,42.8989424 27.2758573,40.8193492 C27.0959867,41.1771797 26.9151694,41.6137898 26.78642,42.0133831 C26.5970825,42.6009085 26.0527374,42.9995525 25.436444,43.0005017 L25.4345506,43.0005017 C24.8192039,43.0005017 24.2739121,42.6037559 24.083628,42.0181288 C23.9539318,41.6204339 23.7712212,41.1876203 23.5913506,40.8316881 M26.0224434,49.4746712 C25.8151189,49.4746712 25.6172613,49.467078 25.4336039,49.4518915 C23.6793925,49.5914169 20.614966,49.1301288 19.5991707,46.4914847 C18.8635947,44.5789424 19.5130221,42.006739 21.5872138,38.6268068 C22.3246831,37.4204339 23.2685303,37.3397559 23.7702745,37.4005017 C24.4272754,37.4792814 24.9744606,37.8722305 25.4260304,38.4198915 C25.8785469,37.8636881 26.4266788,37.4640949 27.0855731,37.3834169 C27.5797439,37.3188746 28.5264311,37.3986034 29.2648471,38.6011797 C31.350399,41.9925017 32.0064533,44.5732475 31.2680372,46.4914847 C30.3582708,48.8548746 27.8088422,49.4746712 26.0224434,49.4746712" id="Fill-21" fill="#2E2E30"/>
                <path d="M20.5030676,29.4231593 C18.9003262,32.6369898 16.8299212,35.6334644 13.5714239,35.6334644 C10.3138732,35.6334644 9.44197424,32.7205153 9.44197424,29.1270237 C9.44197424,23.8041763 14.4433228,20.6994983 17.7008735,20.6994983 C20.9593708,20.6994983 22.4201092,25.5790915 20.5030676,29.4231593" id="Fill-23" fill="#4C4C4C"/>
                <path d="M17.7013468,22.1229424 C15.3147484,22.1229424 10.8615317,24.5290441 10.8615317,29.1276881 C10.8615317,34.2094508 12.6924248,34.2094508 13.5718972,34.2094508 C15.6167416,34.2094508 17.3633795,32.5379932 19.23214,28.7869424 C20.3179903,26.6105356 20.0188371,24.3325695 19.2823145,23.1366373 C18.8667188,22.4636881 18.3356272,22.1229424 17.7013468,22.1229424 M13.5718972,37.0569085 C11.0395089,37.0569085 8.02147008,35.6815864 8.02147008,29.1276881 C8.02147008,23.0236881 13.6589924,19.2754847 17.7013468,19.2754847 C19.338169,19.2754847 20.7581998,20.1145356 21.6982602,21.6398237 C23.1107175,23.9320271 23.1410115,27.3157559 21.7730485,30.0597559 C20.1485333,33.3181966 17.7486812,37.0569085 13.5718972,37.0569085" id="Fill-25" fill="#2E2E30"/>
                <path d="M30.8539562,29.4231593 C32.4566977,32.6369898 34.5271026,35.6334644 37.7856,35.6334644 C41.0431507,35.6334644 41.9150496,32.7205153 41.9150496,29.1270237 C41.9150496,23.8041763 36.9137011,20.6994983 33.6561504,20.6994983 C30.397653,20.6994983 28.9369146,25.5790915 30.8539562,29.4231593" id="Fill-27" fill="#4C4C4C"/>
                <path d="M33.6564344,22.1229424 C33.022154,22.1229424 32.4901157,22.4636881 32.0754667,23.1366373 C31.3389441,24.3325695 31.0388443,26.6105356 32.1246945,28.7869424 C33.993455,32.5379932 35.7400929,34.2094508 37.7849373,34.2094508 C38.6644097,34.2094508 40.4953028,34.2094508 40.4953028,29.1276881 C40.4953028,24.5290441 36.0430329,22.1229424 33.6564344,22.1229424 M37.7849373,37.0569085 C33.6081533,37.0569085 31.2083013,33.3181966 29.583786,30.0597559 C28.215823,27.3167051 28.246117,23.9329763 29.659521,21.6398237 C30.5995814,20.1154847 32.0196122,19.2754847 33.6564344,19.2754847 C37.6987888,19.2754847 43.3353644,23.0236881 43.3353644,29.1276881 C43.3353644,35.6815864 40.3173256,37.0569085 37.7849373,37.0569085" id="Fill-29" fill="#2E2E30"/>
                <polyline id="Fill-31" fill="#FEFEFE" points="15.4007076 3.73026441 13.1949263 11.6841627 17.4748992 11.6841627 20.7315032 14.6692475"/>
                <path d="M20.7309352,16.0925017 C20.3882345,16.0925017 20.044587,15.9691119 19.7719411,15.7194847 L16.9243059,13.1074169 L13.1943583,13.1074169 C12.750362,13.1074169 12.3319263,12.8995525 12.0640138,12.5455186 C11.7961013,12.1905356 11.7080594,11.7311458 11.8263953,11.3021288 L14.0321765,3.34917966 C14.2423411,2.59175593 15.023358,2.14850169 15.7807078,2.35826441 C16.5361642,2.56897627 16.9782671,3.35392542 16.7681026,4.11134915 L15.0631189,10.2599593 L17.4752779,10.2599593 C17.8302856,10.2599593 18.171093,10.3928407 18.4333254,10.6329763 L21.6899294,13.618061 C22.2683553,14.1486373 22.3081161,15.0493831 21.778918,15.6293153 C21.4996452,15.9368407 21.1152902,16.0925017 20.7309352,16.0925017" id="Fill-33" fill="#2E2E30"/>
            </g>
        </g>
    </g>

	
	
	<metadata>
		<rdf:RDF xmlns:rdf="http://www.w3.org/1999/02/22-rdf-syntax-ns#" xmlns:rdfs="http://www.w3.org/2000/01/rdf-schema#" xmlns:dc="http://purl.org/dc/elements/1.1/">
			<rdf:Description about="https://iconscout.com/legal#licenses" dc:title="Skull, Bone, Evil, Halloween, Scary" dc:description="Skull, Bone, Evil, Halloween, Scary" dc:publisher="Iconscout" dc:date="2016-12-14" dc:format="image/svg+xml" dc:language="en">
				<dc:creator>
					<rdf:Bag>
						<rdf:li>AomAm .</rdf:li>
					</rdf:Bag>
				</dc:creator>
			</rdf:Description>
		</rdf:RDF>
    </metadata></svg>
